<?xml version="1.0" encoding="UTF-8"?> <svg xmlns="http://www.w3.org/2000/svg" width="219" height="19" viewBox="0 0 219 19" fill="none"><path d="M9.5 1.53327L11.5256 5.63757L12.1341 5.33726L11.5256 5.63758C11.7233 6.03813 12.1054 6.31576 12.5474 6.37999L17.0768 7.03814L13.7993 10.2329C13.4795 10.5447 13.3335 10.9939 13.409 11.4342L14.1827 15.9452L10.1315 13.8154C9.73617 13.6075 9.26383 13.6075 8.86847 13.8154L4.81727 15.9452L5.59098 11.4342C5.66649 10.9939 5.52053 10.5447 5.20067 10.2329L1.92319 7.03814L6.45256 6.37999C6.89459 6.31576 7.27672 6.03813 7.4744 5.63757L9.5 1.53327Z" fill="#FFDE06" stroke="#151417" stroke-width="1.35714"></path><path d="M31.2144 1.53327L33.24 5.63757L33.8485 5.33726L33.24 5.63758C33.4376 6.03813 33.8198 6.31576 34.2618 6.37999L38.7912 7.03814L35.5137 10.2329C35.1938 10.5447 35.0479 10.9939 35.1234 11.4342L35.8971 15.9452L31.8459 13.8154C31.4505 13.6075 30.9782 13.6075 30.5828 13.8154L26.5316 15.9452L27.3053 11.4342C27.3808 10.9939 27.2349 10.5447 26.915 10.2329L23.6375 7.03814L28.1669 6.37999C28.6089 6.31576 28.9911 6.03813 29.1888 5.63757L31.2144 1.53327Z" fill="#FFDE06" stroke="#151417" stroke-width="1.35714"></path><path d="M52.9285 1.53327L54.9541 5.63757L55.5626 5.33726L54.9541 5.63758C55.1517 6.03813 55.5339 6.31576 55.9759 6.37999L60.5053 7.03814L57.2278 10.2329C56.9079 10.5447 56.762 10.9939 56.8375 11.4342L57.6112 15.9452L53.56 13.8154C53.1646 13.6075 52.6923 13.6075 52.2969 13.8154L48.2457 15.9452L49.0194 11.4342C49.095 10.9939 48.949 10.5447 48.6291 10.2329L45.3517 7.03814L49.881 6.37999C50.3231 6.31576 50.7052 6.03813 50.9029 5.63757L52.9285 1.53327Z" fill="#FFDE06" stroke="#151417" stroke-width="1.35714"></path><path d="M74.6428 1.53327L76.6684 5.63757L77.2769 5.33726L76.6684 5.63758C76.8661 6.03813 77.2482 6.31576 77.6903 6.37999L82.2196 7.03814L78.9422 10.2329C78.6223 10.5447 78.4763 10.9939 78.5518 11.4342L79.3256 15.9452L75.2744 13.8154C74.879 13.6075 74.4067 13.6075 74.0113 13.8154L69.9601 15.9452L70.7338 11.4342C70.8093 10.9939 70.6634 10.5447 70.3435 10.2329L67.066 7.03814L71.5954 6.37999C72.0374 6.31576 72.4195 6.03813 72.6172 5.63757L74.6428 1.53327Z" fill="#FFDE06" stroke="#151417" stroke-width="1.35714"></path><path d="M95.8913 1.23295C96.1402 0.728609 96.8593 0.728609 97.1083 1.23295L99.1339 5.33726C99.2327 5.53754 99.4238 5.67635 99.6448 5.70847L104.174 6.36663C104.731 6.4475 104.953 7.13148 104.55 7.52406L101.273 10.7188C101.113 10.8747 101.04 11.0993 101.078 11.3194L101.851 15.8305C101.946 16.3848 101.365 16.8076 100.867 16.5458L96.8155 14.416C96.6178 14.3121 96.3817 14.3121 96.184 14.416L92.1328 16.5458C91.635 16.8076 91.0531 16.3848 91.1482 15.8305L91.9219 11.3194C91.9597 11.0993 91.8867 10.8747 91.7268 10.7188L88.4493 7.52406C88.0465 7.13148 88.2688 6.4475 88.8254 6.36663L93.3547 5.70847C93.5758 5.67635 93.7668 5.53754 93.8657 5.33726L95.8913 1.23295Z" fill="white"></path><path d="M92.5243 11.004L91.7748 14.7226C91.6664 15.2607 92.2085 15.6982 92.7116 15.4785L95.497 14.2623C95.7902 14.1342 95.9542 13.8187 95.8904 13.5051L94.4884 6.61518C94.4177 6.26796 94.0918 6.03356 93.7402 6.07704L89.5588 6.59411C88.9685 6.6671 88.7511 7.41011 89.2088 7.78982L92.2923 10.3477C92.4845 10.5071 92.5736 10.7592 92.5243 11.004Z" fill="#FFDE06"></path><path d="M96.3572 1.53327L98.3828 5.63757L98.9913 5.33726L98.3828 5.63758C98.5805 6.03813 98.9626 6.31576 99.4046 6.37999L103.934 7.03814L100.657 10.2329C100.337 10.5447 100.191 10.9939 100.266 11.4342L101.04 15.9452L96.9887 13.8154C96.5933 13.6075 96.121 13.6075 95.7256 13.8154L91.6744 15.9452L92.4482 11.4342C92.5237 10.9939 92.3777 10.5447 92.0578 10.2329L88.7804 7.03814L93.3097 6.37999C93.7518 6.31576 94.1339 6.03813 94.3316 5.63757L96.3572 1.53327Z" stroke="#151417" stroke-width="1.35714"></path><path d="M114.406 13.054H118.704V15H120.608V13.054H122.106V11.402H120.608V5.914H118.228L114.406 11.038V13.054ZM118.704 11.402H116.114L118.704 7.93V11.402ZM123.148 13.824C123.148 14.524 123.722 15.098 124.422 15.098C125.136 15.098 125.71 14.524 125.71 13.824C125.71 13.124 125.136 12.55 124.422 12.55C123.722 12.55 123.148 13.124 123.148 13.824ZM129.593 10.968C129.789 10.898 130.027 10.828 130.419 10.828C131.287 10.828 131.903 11.318 131.903 12.172C131.903 12.928 131.329 13.544 130.363 13.544C129.411 13.544 128.753 12.872 128.711 11.948L126.849 12.312C126.961 13.838 128.249 15.21 130.363 15.21C132.561 15.21 133.849 13.768 133.849 12.2C133.849 10.534 132.589 9.484 131.217 9.428L133.569 7.468V5.914H127.143V7.58H131.119L128.739 9.624L129.593 10.968ZM142.025 8.098C140.093 8.098 138.665 9.582 138.665 11.64C138.665 13.712 140.093 15.196 142.025 15.196C143.957 15.196 145.385 13.712 145.385 11.64C145.385 9.582 143.957 8.098 142.025 8.098ZM142.025 9.106C143.229 9.106 144.265 10.016 144.265 11.64C144.265 13.278 143.229 14.188 142.025 14.188C140.821 14.188 139.785 13.278 139.785 11.64C139.785 10.016 140.821 9.106 142.025 9.106ZM151.564 14.09V14.146C151.564 14.482 151.592 14.846 151.634 15H152.712C152.67 14.734 152.628 14.258 152.628 13.74V8.294H151.508V12.34C151.508 13.404 150.906 14.188 149.8 14.188C148.61 14.188 148.148 13.306 148.148 12.326V8.294H147.028V12.508C147.028 13.992 147.924 15.196 149.548 15.196C150.43 15.196 151.242 14.776 151.564 14.09ZM156.433 6.166H155.383V7.272C155.383 7.902 155.089 8.294 154.403 8.294H153.969V9.302H155.313V13.166C155.313 14.384 156.027 15.07 157.133 15.07C157.567 15.07 157.889 14.986 158.015 14.944V13.992C157.903 14.02 157.651 14.062 157.455 14.062C156.741 14.062 156.433 13.712 156.433 13.012V9.302H158.015V8.294H156.433V6.166ZM166.019 8.098C164.087 8.098 162.659 9.582 162.659 11.64C162.659 13.712 164.087 15.196 166.019 15.196C167.951 15.196 169.379 13.712 169.379 11.64C169.379 9.582 167.951 8.098 166.019 8.098ZM166.019 9.106C167.223 9.106 168.259 10.016 168.259 11.64C168.259 13.278 167.223 14.188 166.019 14.188C164.815 14.188 163.779 13.278 163.779 11.64C163.779 10.016 164.815 9.106 166.019 9.106ZM174.37 9.302V8.294H172.634V7.076C172.634 6.11 173.25 5.816 173.796 5.816C174.118 5.816 174.3 5.872 174.398 5.914V4.948C174.3 4.892 174.034 4.808 173.628 4.808C172.438 4.808 171.514 5.578 171.514 7.048V8.294H170.198V9.302H171.514V15H172.634V9.302H174.37ZM178.309 12.452C178.421 13.88 179.793 15.224 181.767 15.224C183.951 15.224 185.253 13.754 185.253 12.06C185.253 10.114 183.965 9.022 182.145 9.022C181.543 9.022 180.899 9.218 180.507 9.582L180.955 7.58H184.763V5.914H179.639L178.561 10.576C178.757 10.632 180.143 11.108 180.325 11.178C180.619 10.842 181.109 10.562 181.725 10.562C182.565 10.562 183.335 11.052 183.335 12.088C183.335 12.998 182.635 13.572 181.767 13.572C180.801 13.572 180.157 12.886 180.115 12.046L178.309 12.452ZM189.864 13.236C189.976 14.076 190.774 15.196 192.538 15.196C194.134 15.196 194.96 14.132 194.96 13.166C194.96 12.172 194.316 11.486 193.14 11.22L192.048 10.968C191.46 10.828 191.166 10.534 191.166 10.058C191.166 9.498 191.712 9.05 192.412 9.05C193.476 9.05 193.826 9.792 193.91 10.254L194.904 9.89C194.75 9.204 194.148 8.098 192.412 8.098C191.138 8.098 190.074 9.008 190.074 10.128C190.074 11.094 190.718 11.752 191.74 11.99L192.832 12.242C193.448 12.382 193.854 12.718 193.854 13.222C193.854 13.796 193.35 14.244 192.552 14.244C191.544 14.244 190.97 13.656 190.872 12.886L189.864 13.236ZM198.31 6.166H197.26V7.272C197.26 7.902 196.966 8.294 196.28 8.294H195.846V9.302H197.19V13.166C197.19 14.384 197.904 15.07 199.01 15.07C199.444 15.07 199.766 14.986 199.892 14.944V13.992C199.78 14.02 199.528 14.062 199.332 14.062C198.618 14.062 198.31 13.712 198.31 13.012V9.302H199.892V8.294H198.31V6.166ZM200.954 13.222C200.954 14.244 201.78 15.196 203.166 15.196C204.37 15.196 205.098 14.538 205.392 13.992C205.392 14.51 205.448 14.846 205.476 15H206.568C206.526 14.79 206.484 14.44 206.484 13.88V10.492C206.484 9.19 205.686 8.098 203.782 8.098C202.34 8.098 201.22 8.966 201.08 10.24L202.144 10.492C202.242 9.638 202.83 9.05 203.81 9.05C204.86 9.05 205.364 9.624 205.364 10.38C205.364 10.674 205.252 10.884 204.762 10.954L202.956 11.22C201.78 11.388 200.954 12.046 200.954 13.222ZM203.306 14.244C202.536 14.244 202.074 13.712 202.074 13.166C202.074 12.508 202.536 12.144 203.18 12.046L205.364 11.724V12.172C205.364 13.6 204.468 14.244 203.306 14.244ZM212.192 8.252C212.094 8.224 211.898 8.196 211.716 8.196C210.974 8.196 210.12 8.518 209.686 9.498V8.294H208.594V15H209.714V11.528C209.714 10.016 210.484 9.372 211.604 9.372C211.8 9.372 212.01 9.386 212.192 9.442V8.252ZM212.97 13.236C213.082 14.076 213.88 15.196 215.644 15.196C217.24 15.196 218.066 14.132 218.066 13.166C218.066 12.172 217.422 11.486 216.246 11.22L215.154 10.968C214.566 10.828 214.272 10.534 214.272 10.058C214.272 9.498 214.818 9.05 215.518 9.05C216.582 9.05 216.932 9.792 217.016 10.254L218.01 9.89C217.856 9.204 217.254 8.098 215.518 8.098C214.244 8.098 213.18 9.008 213.18 10.128C213.18 11.094 213.824 11.752 214.846 11.99L215.938 12.242C216.554 12.382 216.96 12.718 216.96 13.222C216.96 13.796 216.456 14.244 215.658 14.244C214.65 14.244 214.076 13.656 213.978 12.886L212.97 13.236Z" fill="#151417"></path></svg> 