<svg width="150" height="50" viewBox="0 0 150 50" fill="none" xmlns="http://www.w3.org/2000/svg">
<g clip-path="url(#clip0_2558_61204)">
<path d="M28.429 5.30147C26.293 4.81701 22.8137 4.48669 18.8499 4.48669C14.8861 4.48669 11.4068 4.81701 9.2708 5.30147C5.04279 6.20432 1.69561 9.5515 0.814774 13.8015C0.330314 15.9376 0 19.4389 0 23.4027C0 27.3664 0.330314 30.8677 0.814774 33.0038C1.69561 37.2538 5.04279 40.601 9.2708 41.5038C11.4068 41.9883 14.8861 42.3186 18.8499 42.3186C22.8137 42.3186 26.293 41.9883 28.429 41.5038C32.657 40.601 36.0042 37.2538 36.885 33.0038C37.3695 30.8677 37.6998 27.3664 37.6998 23.4027C37.6998 19.4389 37.3695 15.9376 36.885 13.8015C36.0042 9.52948 32.657 6.1823 28.429 5.30147Z" fill="#00B388"/>
<mask id="mask0_2558_61204" style="mask-type:alpha" maskUnits="userSpaceOnUse" x="0" y="4" width="38" height="39">
<path d="M28.429 5.30147C26.293 4.81701 22.8137 4.48669 18.8499 4.48669C14.8861 4.48669 11.4068 4.81701 9.2708 5.30147C5.04279 6.20432 1.69561 9.5515 0.814774 13.8015C0.330314 15.9376 0 19.4389 0 23.4027C0 27.3664 0.330314 30.8677 0.814774 33.0038C1.69561 37.2538 5.04279 40.601 9.2708 41.5038C11.4068 41.9883 14.8861 42.3186 18.8499 42.3186C22.8137 42.3186 26.293 41.9883 28.429 41.5038C32.657 40.601 36.0042 37.2538 36.885 33.0038C37.3695 30.8677 37.6998 27.3664 37.6998 23.4027C37.6998 19.4389 37.3695 15.9376 36.885 13.8015C36.0042 9.52948 32.657 6.1823 28.429 5.30147Z" fill="white"/>
</mask>
<g mask="url(#mask0_2558_61204)">
<path d="M23.3862 33.4882C23.0339 32.6293 22.2632 31.9907 21.3383 31.7925C20.7878 31.6604 19.8849 31.5723 18.8499 31.5723C17.8149 31.5723 16.9121 31.6604 16.3616 31.7925C15.4367 31.9907 14.688 32.6293 14.3356 33.4661C14.2035 33.7524 13.9172 33.9286 13.5869 33.9066C13.4988 33.9066 13.4328 33.8845 13.3887 33.8845C11.9133 33.7304 10.7462 33.5322 10.0636 33.29C9.60114 33.1138 9.29285 32.6734 9.29285 32.1669C9.29285 32.1449 9.29285 32.1449 9.29285 32.1229C9.29285 32.1008 9.29285 32.0788 9.29285 32.0568C9.29285 32.0568 9.29285 32.0568 9.29285 32.0348C9.29285 32.0128 9.29285 32.0128 9.29285 31.9907C9.40295 30.4493 10.3498 26.8378 11.7372 22.7199C13.3227 18.0075 14.9963 14.1978 15.745 13.4491C15.8551 13.317 16.0092 13.2289 16.1634 13.1408C16.2294 13.0968 16.2955 13.0748 16.3836 13.0528C16.868 12.8766 17.7929 12.7665 18.8279 12.7665C19.8629 12.7665 20.7878 12.8766 21.2722 13.0528C21.3603 13.0748 21.4484 13.1188 21.4924 13.1408C21.6466 13.2289 21.7787 13.317 21.9108 13.4491C22.6595 14.1978 24.3331 18.0075 25.9186 22.7199C27.306 26.8378 28.2528 30.4493 28.363 31.9907C28.363 32.0128 28.363 32.0128 28.363 32.0348C28.363 32.0348 28.363 32.0348 28.363 32.0568C28.363 32.0788 28.363 32.1008 28.363 32.1229C28.363 32.1449 28.363 32.1449 28.363 32.1669C28.363 32.6734 28.0326 33.1138 27.5922 33.29C26.9096 33.5322 25.7645 33.7304 24.2891 33.8845C24.223 33.8845 24.157 33.9066 24.0469 33.9066C23.7826 33.9506 23.4963 33.7744 23.3862 33.4882Z" fill="white"/>
</g>
<path d="M57.9425 19.3068H61.5539V35.0738H57.9425V32.2992C56.8194 34.259 54.8816 35.3821 52.3712 35.3821C48.1872 35.3821 44.84 31.7046 44.84 27.1683C44.84 22.632 48.1872 18.9985 52.3712 18.9985C54.8816 18.9985 56.8194 20.1216 57.9425 22.0815V19.3068ZM111.872 19.3068H115.483V35.0738H111.872V32.2992C110.749 34.259 108.811 35.3821 106.3 35.3821C102.116 35.3821 98.7692 31.7046 98.7692 27.1683C98.7692 22.632 102.116 18.9985 106.3 18.9985C108.811 18.9985 110.749 20.1216 111.872 22.0815V19.3068ZM53.23 31.9468C55.9606 31.9468 58.0306 29.8769 58.0306 27.1463C58.0306 24.4377 55.9826 22.3897 53.23 22.3897C50.5655 22.3897 48.4294 24.5258 48.4294 27.1463C48.4515 29.8328 50.5655 31.9468 53.23 31.9468ZM106.983 31.9468C109.714 31.9468 111.784 29.8769 111.784 27.1463C111.784 24.4377 109.736 22.3897 106.983 22.3897C104.318 22.3897 102.182 24.5258 102.182 27.1463C102.182 29.8328 104.296 31.9468 106.983 31.9468ZM66.949 11.4233C68.2042 11.4233 69.2612 12.4803 69.2612 13.7135C69.2612 15.0127 68.2042 16.0257 66.949 16.0257C65.6938 16.0257 64.6588 14.9907 64.6588 13.7135C64.6588 12.5024 65.6938 11.4233 66.949 11.4233ZM65.1653 19.2628H68.7327V35.0297H65.1653V19.2628ZM79.9634 18.9545C80.646 18.9545 81.3066 19.0646 81.7911 19.2408C82.0774 19.3509 82.3196 19.461 82.5178 19.5711L81.0644 22.61C80.602 22.4778 80.1175 22.4118 79.611 22.4118C77.8714 22.4118 75.9556 23.8652 75.9556 26.6398V35.0518H72.3882V19.2848H75.9335V21.553C76.6382 20.0115 78.4219 18.9545 79.9634 18.9545ZM97.8884 31.0219C96.6993 33.6204 93.9246 35.338 90.6435 35.338C85.9751 35.338 82.4077 31.8367 82.4077 27.1683C82.4077 22.4999 85.9531 18.9545 90.5995 18.9545C93.6604 18.9545 96.2368 20.4739 97.3819 22.7861L94.365 24.5038C93.7264 23.2486 92.3171 22.4118 90.5995 22.4118C87.8909 22.4118 85.931 24.4817 85.931 27.1683C85.931 29.8328 87.9349 31.9028 90.6215 31.9028C92.4492 31.9028 93.9687 31.044 94.6733 29.5906L97.8884 31.0219ZM122.662 11.4233V35.0077H119.095V11.4233H122.662ZM129.863 11.4233V35.0077H126.295V11.4233H129.863Z" fill="#101820"/>
</g>
<defs>
<clipPath id="clip0_2558_61204">
<rect width="150" height="50" fill="white"/>
</clipPath>
</defs>
</svg>
