<svg width="25" height="25" fill="none" xmlns="http://www.w3.org/2000/svg"><g clip-path="url(#clip0_6055_110013)" stroke="#600DFF" stroke-width="1.5" stroke-linecap="round" stroke-linejoin="round"><path d="M9.138 11.796l-1.016 4.066 4.066-1.017 6.098-6.099-3.049-3.05-6.099 6.1zm12.707-6.607l1.015 1.016a1.437 1.437 0 010 2.033l-3.172 3.172"/><path d="M18.287 8.746l3.558-3.557a1.437 1.437 0 000-2.033L20.828 2.14a1.438 1.438 0 00-2.033 0l-3.558 3.557m3.732 8.959v7.188a1.437 1.437 0 01-1.438 1.437H3.156a1.437 1.437 0 01-1.437-1.437V7.469A1.438 1.438 0 013.156 6.03h7.188"/></g><defs><clipPath id="clip0_6055_110013"><path fill="#fff" transform="translate(1 1)" d="M0 0h23v23H0z"/></clipPath></defs></svg>