<?xml version="1.0" encoding="UTF-8"?>
<svg fill="none" viewBox="0 0 29 23" xmlns="http://www.w3.org/2000/svg">
<rect x=".5" y="3.5" width="19" height="19" rx=".5" stroke="#151417"/>
<path d="m10.394 19.079c-1.1247-1.1467-6.5718-6.1083-6.5718-6.1083-0.81604-0.9225-1.1492-1.339-0.49253-2.0086l1.9701-2.0088c0.88457-0.90197 1.4776 0 1.9701 0.50221l3.9402 4.0176c0.6615 0.6745 1.0085 0.5022 1.4776 0 3.2834-3.5155 10.047-11.25 10.836-12.053 0.6042-0.61598 0.739-0.50176 1.4775 9e-5 0.4925 0.3348 1.6746 1.2053 2.4626 2.0088 0.7881 0.80352 0.1687 1.2827-0.4925 2.0088-4.2685 4.6872-11.652 12.637-12.637 13.641-0.985 1.0044-2.8155 1.1468-3.9401 0z" fill="#0ff"/>
<path d="m3.8226 12.971-0.3745 0.3313 0.01787 0.0202 0.01993 0.0181 0.3367-0.3696zm6.5718 6.1083-0.357 0.3501 0.357-0.3501zm3.9401 0 0.357 0.3501-0.357-0.3501zm12.637-13.641 0.3697 0.33665v-1e-5l-0.3697-0.33664zm0.4925-2.0088-0.3569 0.35009 0.3569-0.35009zm-2.4626-2.0088 0.2811-0.41351-1e-4 -4e-5 -0.281 0.41355zm-1.4775-9e-5 0.3569 0.35014-0.3569-0.35014zm-10.836 12.053-0.3654-0.3413 0.3654 0.3413zm-1.4776 0 0.357-0.3501-0.357 0.3501zm-3.9402-4.0176-0.35697 0.35009 0.35697-0.35009zm-1.9701-0.50221 0.35697 0.35009-0.35697-0.35009zm-1.9701 2.0088 0.35698 0.3501-0.35698-0.3501zm0.49253 2.0086c-0.3367 0.3696-0.33668 0.3696-0.33664 0.3697 4e-5 0 1e-4 1e-4 1.8e-4 1e-4 1.7e-4 2e-4 4.1e-4 4e-4 7.4e-4 7e-4 6.5e-4 6e-4 0.00164 0.0015 0.00294 0.0027 0.00261 0.0024 0.00651 0.0059 0.01167 0.0106 0.01032 0.0094 0.02565 0.0234 0.04571 0.0417 0.04012 0.0366 0.09913 0.0904 0.17464 0.1593 0.15102 0.1378 0.36806 0.3359 0.63202 0.5773 0.52796 0.4828 1.2435 1.1385 1.9942 1.8298 1.5073 1.3883 3.1383 2.9046 3.6894 3.4665l0.7139-0.7002c-0.5735-0.5848-2.2284-2.1227-3.7258-3.5019-0.75175-0.6923-1.4682-1.3488-1.9968-1.8321-0.26428-0.2417-0.48159-0.4401-0.63284-0.5781-0.07563-0.069-0.13475-0.123-0.17498-0.1596-0.02011-0.0184-0.0355-0.0324-0.04586-0.0418-0.00519-0.0047-0.00911-0.0083-0.01175-0.0107-0.00132-0.0012-0.00231-0.0021-0.00298-0.0027-3.3e-4 -3e-4 -5.8e-4 -6e-4 -7.5e-4 -7e-4 -8e-5 -1e-4 -1.5e-4 -2e-4 -1.9e-4 -2e-4s-7e-5 -1e-4 -0.33676 0.3696zm6.2148 6.4584c1.3369 1.3632 3.4897 1.1873 4.6541 0l-0.7139-0.7002c-0.8057 0.8215-2.3139 0.9304-3.2263 0l-0.7139 0.7002zm4.6541 0c0.9927-1.0121 8.382-8.9689 12.649-13.655l-0.7394-0.67331c-4.2697 4.6886-11.646 12.631-12.624 13.628l0.7139 0.7002zm12.649-13.655c0.1451-0.15932 0.3339-0.35417 0.4744-0.51583 0.1476-0.16984 0.3019-0.36779 0.4021-0.5922 0.1062-0.23766 0.1544-0.51074 0.0798-0.80824-0.0714-0.28499-0.2427-0.54094-0.4765-0.77928l-0.7139 0.70019c0.1602 0.16342 0.207 0.26868 0.2204 0.32222 0.0103 0.04102 0.01 0.08377-0.0227 0.15711-0.0387 0.08658-0.1141 0.19479-0.2439 0.34413-0.1369 0.15752-0.2735 0.29487-0.4591 0.49861l0.7394 0.67329zm0.4798-2.6956c-0.8223-0.83844-2.036-1.7306-2.5385-2.0722l-0.5622 0.82702c0.4825 0.32799 1.633 1.1768 2.3868 1.9454l0.7139-0.70019zm-2.5386-2.0723c-0.1755-0.11929-0.3433-0.23527-0.4912-0.31938-0.1482-0.084314-0.3312-0.16999-0.5436-0.18505-0.4599-0.032603-0.797 0.27859-1.0807 0.56776l0.7139 0.70027c0.1455-0.14832 0.2331-0.22111 0.2896-0.25631 0.0434-0.02708 0.0361-0.01213 0.0065-0.01422-0.0108-7.7e-4 0.0161-0.0023 0.1198 0.0567 0.104 0.0592 0.23 0.1457 0.4237 0.27733l0.562-0.8271zm-2.1155 0.06333c-0.4054 0.41333-2.3084 2.5649-4.4986 5.0274-2.201 2.4746-4.7086 5.2822-6.3453 7.0346l0.7308 0.6826c1.6467-1.7631 4.1628-4.5803 6.3617-7.0526 2.2096-2.4844 4.0826-4.6016 4.4653-4.9917l-0.7139-0.70027zm-10.844 12.062c-0.1097 0.1174-0.1913 0.1923-0.2572 0.2385-0.0626 0.0438-0.089 0.0461-0.0911 0.0463-0.0017 1e-4 -0.0065 5e-4 -0.0172-0.0019-0.0117-0.0027-0.0337-0.0096-0.0675-0.0276-0.0711-0.038-0.1762-0.1152-0.3222-0.2641l-0.714 0.7002c0.354 0.3609 0.7497 0.6329 1.215 0.5889 0.4366-0.0412 0.757-0.3537 0.985-0.5977l-0.7308-0.6826zm-0.7552-0.0088-3.9402-4.0176-0.71395 0.70019 3.9402 4.0176 0.714-0.7002zm-3.9402-4.0176c-0.05448-0.05556-0.11148-0.1178-0.17825-0.19061-0.06454-0.07038-0.1371-0.14938-0.21335-0.22696-0.14928-0.15188-0.33812-0.32522-0.56317-0.44851-0.23402-0.12821-0.52319-0.21059-0.85077-0.15049-0.32021 0.05874-0.61105 0.24166-0.8785 0.51436l0.71395 0.70019c0.17484-0.17827 0.28984-0.22085 0.345-0.23097 0.04777-0.00876 0.10349-0.00339 0.18986 0.04392 0.09533 0.05223 0.20238 0.14218 0.33045 0.27248 0.06242 0.06351 0.12391 0.13032 0.18952 0.20186 0.06338 0.06912 0.13266 0.14493 0.20131 0.21492l0.71395-0.70019zm-2.684-0.50221-1.9701 2.0088 0.71395 0.7002 1.9701-2.0089-0.71395-0.70019zm-1.9701 2.0088c-0.19292 0.1967-0.35165 0.4126-0.43302 0.661-0.0861 0.2628-0.07151 0.5184 0.01066 0.7597 0.0771 0.2264 0.21207 0.436 0.35968 0.631 0.1491 0.1969 0.33564 0.4099 0.53768 0.6383l0.749-0.6626c-0.20598-0.2329-0.3671-0.4178-0.48947-0.5794-0.12385-0.1636-0.18414-0.2729-0.21026-0.3496-0.02104-0.0618-0.01761-0.0936-0.00699-0.1261 0.01535-0.0468 0.06124-0.134 0.19667-0.2721l-0.71395-0.7002z" fill="#151417"/>
</svg>
