<svg width="150" height="50" viewBox="0 0 150 50" fill="none" xmlns="http://www.w3.org/2000/svg">
<g clip-path="url(#clip0_5539_177085)">
<path d="M46.1449 24.9943C44.6168 24.5614 43.8324 23.8131 43.8324 22.7743C43.8324 21.4876 45.009 20.5792 46.6241 20.5792C48.2946 20.5792 49.3519 21.4672 49.4139 22.8917H53.4894C53.4228 19.2888 50.6978 16.8708 46.6731 16.8708C42.6484 16.8708 39.7254 19.397 39.7254 22.8833C39.7254 25.6463 41.4829 27.5842 44.9378 28.66L47.4354 29.3557C49.2854 29.8857 50.0513 30.6081 50.0078 31.8236C49.9801 33.2231 48.7553 34.1361 46.8627 34.1361C44.8037 34.1361 43.7751 32.9131 43.6613 31.6598H39.5312C39.6062 35.2627 42.593 37.738 46.8545 37.738C50.301 37.738 54.0593 35.8879 54.1194 31.8457C54.2036 28.9033 52.3416 26.8507 48.5694 25.7694L46.1449 24.9943Z" fill="#0033A1"/>
<path d="M62.1477 23.4529C60.295 23.5047 58.5357 24.277 57.2435 25.6056C55.9514 26.9344 55.2285 28.7147 55.2285 30.568C55.2285 32.4214 55.9514 34.2017 57.2435 35.5303C58.5357 36.859 60.295 37.6314 62.1477 37.6831C63.2901 37.6831 65.2816 37.1281 66.0901 35.8951L66.3471 35.5038V37.4047H70.1914V23.7489H66.3591V25.5989L66.1021 25.2354C64.8857 23.5038 62.4224 23.4529 62.1477 23.4529ZM62.5583 34.0219C62.0915 34.0449 61.6247 33.9727 61.1865 33.8099C60.7484 33.647 60.3478 33.3968 60.0092 33.0745C59.6706 32.7522 59.4011 32.3643 59.2169 31.9347C59.0327 31.505 58.9377 31.0424 58.9377 30.5749C58.9377 30.1074 59.0327 29.6448 59.2169 29.2152C59.4011 28.7855 59.6706 28.3977 60.0092 28.0754C60.3478 27.753 60.7484 27.5029 61.1865 27.34C61.6247 27.1771 62.0915 27.105 62.5583 27.1279C63.0157 27.1204 63.4702 27.204 63.8949 27.374C64.3197 27.5438 64.7064 27.7965 65.0325 28.1173C65.3587 28.4382 65.6177 28.8207 65.7945 29.2426C65.9713 29.6645 66.0623 30.1175 66.0623 30.5749C66.0623 31.0324 65.9713 31.4853 65.7945 31.9073C65.6177 32.3292 65.3587 32.7118 65.0325 33.0326C64.7064 33.3533 64.3197 33.6061 63.8949 33.776C63.4702 33.9458 63.0157 34.0294 62.5583 34.0219Z" fill="#0033A1"/>
<path d="M76.3151 23.752H72.4727V37.4188H76.3151V23.752Z" fill="#0033A1"/>
<path d="M82.4928 17.1401H78.6328V37.4097H82.4928V17.1401Z" fill="#0033A1"/>
<path d="M92.992 17.1196H84.6846V37.4141H88.8036V30.312H93.0003C97.8901 30.312 99.6375 26.7683 99.6375 23.7278C99.6282 19.1648 96.2964 17.1196 92.992 17.1196ZM92.7812 26.7637H88.7953V20.6883H92.9143C94.7165 20.6883 95.5314 22.4615 95.5314 23.7195C95.5527 24.0994 95.499 24.4799 95.3732 24.8391C95.2474 25.1982 95.0513 25.5289 94.7969 25.8119C94.5426 26.0949 94.2345 26.3248 93.8904 26.4881C93.5473 26.6515 93.1742 26.7451 92.794 26.7637H92.7812Z" fill="#0033A1"/>
<path d="M106.438 23.4531C105.033 23.4529 103.659 23.8696 102.491 24.6505C101.323 25.4314 100.412 26.5412 99.8752 27.8397C99.3378 29.1383 99.1972 30.5669 99.4719 31.945C99.7476 33.3231 100.425 34.5887 101.42 35.5815C102.414 36.5743 103.681 37.2499 105.059 37.5225C106.438 37.7952 107.866 37.6527 109.164 37.1131C110.462 36.5737 111.57 35.6614 112.349 34.4917C113.128 33.322 113.542 31.9476 113.539 30.5423C113.573 29.6014 113.412 28.6638 113.066 27.7879C112.721 26.9122 112.199 26.1168 111.532 25.4517C110.866 24.7865 110.07 24.2658 109.194 23.9219C108.317 23.5781 107.379 23.4185 106.438 23.4531ZM106.438 33.8742C105.782 33.8781 105.139 33.6876 104.592 33.3265C104.043 32.9654 103.615 32.4499 103.36 31.8455C103.105 31.2409 103.035 30.5742 103.158 29.9299C103.282 29.2854 103.594 28.6921 104.054 28.2249C104.516 27.7577 105.104 27.4376 105.747 27.3049C106.39 27.1723 107.057 27.2331 107.666 27.4797C108.273 27.7264 108.795 28.1477 109.163 28.6905C109.532 29.2334 109.732 29.8733 109.737 30.5294C109.755 30.9503 109.69 31.3708 109.546 31.7668C109.402 32.1627 109.182 32.5264 108.897 32.8371C108.612 33.1477 108.269 33.3991 107.887 33.5771C107.505 33.755 107.091 33.856 106.67 33.8742H106.438Z" fill="#0033A1"/>
<path d="M118.845 23.752H115.001V37.4188H118.845V23.752Z" fill="#0033A1"/>
<path d="M125.182 25.7063L124.925 26.1956V23.7481H121.04V37.4094H124.9V30.1731C124.9 28.2306 125.842 27.1983 127.605 27.1983C129.193 27.1983 130.16 28.3148 130.16 30.1056V37.4029H134.031V29.2139C134.048 25.4954 132.286 23.4373 129.085 23.4373C128.292 23.4362 127.512 23.6447 126.826 24.0419C126.14 24.4391 125.571 25.0108 125.177 25.6989L125.182 25.7063Z" fill="#0033A1"/>
<path d="M74.394 21.7965C74.8683 21.7976 75.3324 21.658 75.7273 21.3954C76.1224 21.1329 76.4306 20.759 76.6132 20.3212C76.7958 19.8834 76.8445 19.4013 76.7531 18.9358C76.6617 18.4704 76.4343 18.0425 76.0998 17.7062C75.7652 17.37 75.3384 17.1405 74.8734 17.0468C74.4085 16.9531 73.9261 16.9993 73.4874 17.1797C73.0487 17.3601 72.6734 17.6664 72.4088 18.0601C72.1442 18.4539 72.0023 18.9171 72.001 19.3915V19.3998C72.0002 19.7145 72.0631 20.026 72.186 20.3156C72.3673 20.7533 72.6742 21.1274 73.0681 21.3909C73.4618 21.6543 73.9249 21.7951 74.3986 21.7955L74.394 21.7965Z" fill="#0033A1"/>
<path d="M116.915 21.7965C117.389 21.7976 117.853 21.658 118.248 21.3954C118.643 21.1329 118.951 20.759 119.134 20.3212C119.317 19.8834 119.365 19.4013 119.273 18.9358C119.183 18.4704 118.955 18.0425 118.62 17.7062C118.285 17.37 117.859 17.1405 117.394 17.0468C116.929 16.9531 116.446 16.9993 116.008 17.1797C115.57 17.3601 115.194 17.6664 114.929 18.0601C114.665 18.4539 114.523 18.9171 114.522 19.3915V19.3998C114.52 19.7141 114.581 20.0257 114.702 20.3156C114.883 20.7535 115.19 21.128 115.583 21.3916C115.977 21.6551 116.441 21.7961 116.915 21.7965Z" fill="#0033A1"/>
<path d="M144.06 23.7381H141.37V18.4092H137.508V23.7381H134.935V26.9904H137.508V37.4096H141.368V26.9913H144.058L144.06 23.7381Z" fill="#0033A1"/>
<path d="M23.6752 9.54028L27.3807 31.6552H5.93555L23.6752 9.54028Z" fill="#0033A1"/>
<path d="M23.6309 9.54028L36.7659 31.6552H27.3364L23.6309 9.54028Z" fill="#CC27B0"/>
<path d="M5.93555 31.6719H27.3816L28.722 39.6648L5.93555 31.6719Z" fill="#0071CE"/>
<path d="M27.333 31.6719H36.7615L28.6733 39.6648L27.333 31.6719Z" fill="#E17FD2"/>
<path d="M145.085 34.802C145.308 34.9316 145.492 35.1201 145.615 35.3468C145.745 35.5858 145.812 35.8544 145.808 36.1266C145.812 36.3973 145.745 36.6645 145.615 36.9017C145.491 37.1268 145.308 37.3138 145.085 37.4429C144.852 37.5765 144.586 37.6446 144.317 37.6398C144.047 37.6442 143.781 37.5762 143.546 37.4429C143.322 37.3147 143.137 37.1275 143.012 36.9017C142.882 36.6645 142.815 36.3973 142.82 36.1266C142.816 35.8544 142.882 35.5858 143.012 35.3468C143.136 35.1194 143.321 34.9308 143.546 34.802C143.781 34.6686 144.047 34.6006 144.317 34.605C144.586 34.6002 144.852 34.6682 145.085 34.802ZM145.199 37.0339C145.417 36.7818 145.537 36.4595 145.537 36.1261C145.537 35.7927 145.417 35.4704 145.199 35.2182C144.961 34.99 144.644 34.8625 144.313 34.8625C143.983 34.8625 143.667 34.99 143.428 35.2182C143.212 35.471 143.092 35.793 143.092 36.1261C143.092 36.4592 143.212 36.7812 143.428 37.0339C143.666 37.2615 143.983 37.3884 144.312 37.3884C144.641 37.3884 144.958 37.2615 145.196 37.0339H145.199ZM144.87 36.1089C144.794 36.1955 144.689 36.253 144.575 36.2718L145.029 36.9193L144.644 36.9266L144.224 36.2792H144.05V36.9266H143.724V35.2959H144.428C144.572 35.2883 144.714 35.3355 144.825 35.4282C144.874 35.4738 144.913 35.5296 144.939 35.5918C144.965 35.6539 144.976 35.7209 144.973 35.788C144.979 35.9015 144.942 36.0129 144.871 36.1016L144.87 36.1089ZM144.054 36.0165H144.409C144.471 36.0189 144.533 36.0003 144.583 35.9638C144.607 35.9448 144.625 35.9204 144.636 35.8928C144.648 35.865 144.654 35.8348 144.651 35.8047C144.654 35.7751 144.648 35.7455 144.636 35.7183C144.624 35.6912 144.606 35.6675 144.583 35.6493C144.532 35.6149 144.471 35.5977 144.409 35.6003H144.054V36.0165Z" fill="#0033A1"/>
</g>
<defs>
<clipPath id="clip0_5539_177085">
<rect width="150" height="50" fill="white"/>
</clipPath>
</defs>
</svg>
