<svg width="25" height="25" fill="none" xmlns="http://www.w3.org/2000/svg"><rect x="4.75" y="2.301" width="15.5" height="20.399" rx=".75" stroke="#0655FF" stroke-width="1.5"/><mask id="path-2-inside-1_3967_145280" fill="#fff"><rect x="7" y="4.428" width="11" height="6.189" rx="1"/></mask><rect x="7" y="4.428" width="11" height="6.189" rx="1" stroke="#0655FF" stroke-width="3" mask="url(#path-2-inside-1_3967_145280)"/><mask id="path-3-inside-2_3967_145280" fill="#fff"><ellipse cx="8" cy="13.452" rx="1" ry=".952"/></mask><ellipse cx="8" cy="13.452" rx="1" ry=".952" fill="#151417"/><path d="M8 13.452a.09.09 0 01.008-.035.049.049 0 01.01-.016c.002-.002-.002.003-.018.003v2c1.058 0 2-.828 2-1.952H8zm0-.048c-.016 0-.02-.005-.018-.003a.049.049 0 01.01.016.09.09 0 01.008.035H6c0 1.124.942 1.952 2 1.952v-2zm0 .048a.09.09 0 01-.008.036.05.05 0 01-.01.015c-.002.002.002-.003.018-.003v-2c-1.058 0-2 .828-2 1.952h2zm0 .048c.016 0 .02.005.018.003a.05.05 0 01-.01-.015.09.09 0 01-.008-.036h2c0-1.124-.942-1.952-2-1.952v2z" fill="#0655FF" mask="url(#path-3-inside-2_3967_145280)"/><mask id="path-5-inside-3_3967_145280" fill="#fff"><ellipse cx="8" cy="16.599" rx="1" ry=".952"/></mask><ellipse cx="8" cy="16.599" rx="1" ry=".952" fill="#151417"/><path d="M8 16.599a.09.09 0 01.008-.036.049.049 0 01.01-.015c.002-.003-.002.003-.018.003v2c1.058 0 2-.829 2-1.952H8zm0-.048c-.016 0-.02-.006-.018-.003a.049.049 0 01.01.015A.09.09 0 018 16.6H6c0 1.123.942 1.952 2 1.952v-2zm0 .048a.09.09 0 01-.008.035.05.05 0 01-.01.016c-.002.002.002-.003.018-.003v-2c-1.058 0-2 .828-2 1.952h2zm0 .047c.016 0 .02.006.018.004a.05.05 0 01-.01-.016.09.09 0 01-.008-.035h2c0-1.124-.942-1.953-2-1.953v2z" fill="#0655FF" mask="url(#path-5-inside-3_3967_145280)"/><mask id="path-7-inside-4_3967_145280" fill="#fff"><ellipse cx="8" cy="19.745" rx="1" ry=".952"/></mask><ellipse cx="8" cy="19.745" rx="1" ry=".952" fill="#151417"/><path d="M8 19.745a.09.09 0 01.008-.035.049.049 0 01.01-.016c.002-.002-.002.003-.018.003v2c1.058 0 2-.828 2-1.952H8zm0-.048c-.016 0-.02-.005-.018-.003a.049.049 0 01.01.016.09.09 0 01.008.035H6c0 1.124.942 1.952 2 1.952v-2zm0 .048a.09.09 0 01-.008.035.05.05 0 01-.01.016c-.002.002.002-.003.018-.003v-2c-1.058 0-2 .828-2 1.952h2zm0 .048c.016 0 .02.005.018.003a.05.05 0 01-.01-.015.09.09 0 01-.008-.036h2c0-1.124-.942-1.952-2-1.952v2z" fill="#0655FF" mask="url(#path-7-inside-4_3967_145280)"/><mask id="path-9-inside-5_3967_145280" fill="#fff"><ellipse cx="17" cy="13.452" rx="1" ry=".952"/></mask><ellipse cx="17" cy="13.452" rx="1" ry=".952" fill="#151417"/><path d="M17 13.452a.09.09 0 01.008-.035.049.049 0 01.01-.016c.002-.002-.002.003-.018.003v2c1.058 0 2-.828 2-1.952h-2zm0-.048c-.016 0-.02-.005-.017-.003a.049.049 0 01.01.016.09.09 0 01.007.035h-2c0 1.124.942 1.952 2 1.952v-2zm0 .048a.09.09 0 01-.008.036.05.05 0 01-.01.015c-.002.002.002-.003.018-.003v-2c-1.058 0-2 .828-2 1.952h2zm0 .048c.016 0 .02.005.017.003a.05.05 0 01-.01-.015.09.09 0 01-.007-.036h2c0-1.124-.942-1.952-2-1.952v2z" fill="#0655FF" mask="url(#path-9-inside-5_3967_145280)"/><mask id="path-11-inside-6_3967_145280" fill="#fff"><ellipse cx="17" cy="16.599" rx="1" ry=".952"/></mask><ellipse cx="17" cy="16.599" rx="1" ry=".952" fill="#151417"/><path d="M17 16.599a.09.09 0 01.008-.036.049.049 0 01.01-.015c.002-.003-.002.003-.018.003v2c1.058 0 2-.829 2-1.952h-2zm0-.048c-.016 0-.02-.006-.017-.003a.049.049 0 01.01.015.09.09 0 01.007.036h-2c0 1.123.942 1.952 2 1.952v-2zm0 .048a.09.09 0 01-.008.035.05.05 0 01-.01.016c-.002.002.002-.003.018-.003v-2c-1.058 0-2 .828-2 1.952h2zm0 .047c.016 0 .02.006.017.004a.05.05 0 01-.01-.016.09.09 0 01-.007-.035h2c0-1.124-.942-1.953-2-1.953v2z" fill="#0655FF" mask="url(#path-11-inside-6_3967_145280)"/><mask id="path-13-inside-7_3967_145280" fill="#fff"><ellipse cx="17" cy="19.745" rx="1" ry=".952"/></mask><ellipse cx="17" cy="19.745" rx="1" ry=".952" fill="#151417"/><path d="M17 19.745a.09.09 0 01.008-.035.049.049 0 01.01-.016c.002-.002-.002.003-.018.003v2c1.058 0 2-.828 2-1.952h-2zm0-.048c-.016 0-.02-.005-.017-.003a.049.049 0 01.01.016.09.09 0 01.007.035h-2c0 1.124.942 1.952 2 1.952v-2zm0 .048a.09.09 0 01-.008.035.05.05 0 01-.01.016c-.002.002.002-.003.018-.003v-2c-1.058 0-2 .828-2 1.952h2zm0 .048c.016 0 .02.005.017.003a.05.05 0 01-.01-.015.09.09 0 01-.007-.036h2c0-1.124-.942-1.952-2-1.952v2z" fill="#0655FF" mask="url(#path-13-inside-7_3967_145280)"/><mask id="path-15-inside-8_3967_145280" fill="#fff"><ellipse cx="12.5" cy="13.452" rx="1" ry=".952"/></mask><ellipse cx="12.5" cy="13.452" rx="1" ry=".952" fill="#151417"/><path d="M12.5 13.452a.09.09 0 01.008-.035.049.049 0 01.01-.016c.002-.002-.002.003-.018.003v2c1.058 0 2-.828 2-1.952h-2zm0-.048c-.016 0-.02-.005-.018-.003a.049.049 0 01.01.016.09.09 0 01.008.035h-2c0 1.124.942 1.952 2 1.952v-2zm0 .048a.09.09 0 01-.008.036.05.05 0 01-.01.015c-.002.002.002-.003.018-.003v-2c-1.058 0-2 .828-2 1.952h2zm0 .048c.016 0 .02.005.018.003a.05.05 0 01-.01-.015.09.09 0 01-.008-.036h2c0-1.124-.942-1.952-2-1.952v2z" fill="#0655FF" mask="url(#path-15-inside-8_3967_145280)"/><mask id="path-17-inside-9_3967_145280" fill="#fff"><ellipse cx="12.5" cy="16.599" rx="1" ry=".952"/></mask><ellipse cx="12.5" cy="16.599" rx="1" ry=".952" fill="#151417"/><path d="M12.5 16.599a.09.09 0 01.008-.036.049.049 0 01.01-.015c.002-.003-.002.003-.018.003v2c1.058 0 2-.829 2-1.952h-2zm0-.048c-.016 0-.02-.006-.018-.003a.049.049 0 01.01.015.09.09 0 01.008.036h-2c0 1.123.942 1.952 2 1.952v-2zm0 .048a.09.09 0 01-.008.035.05.05 0 01-.01.016c-.002.002.002-.003.018-.003v-2c-1.058 0-2 .828-2 1.952h2zm0 .047c.016 0 .02.006.018.004a.05.05 0 01-.01-.016.09.09 0 01-.008-.035h2c0-1.124-.942-1.953-2-1.953v2z" fill="#0655FF" mask="url(#path-17-inside-9_3967_145280)"/><mask id="path-19-inside-10_3967_145280" fill="#fff"><ellipse cx="12.5" cy="19.745" rx="1" ry=".952"/></mask><ellipse cx="12.5" cy="19.745" rx="1" ry=".952" fill="#151417"/><path d="M12.5 19.745a.09.09 0 01.008-.035.049.049 0 01.01-.016c.002-.002-.002.003-.018.003v2c1.058 0 2-.828 2-1.952h-2zm0-.048c-.016 0-.02-.005-.018-.003a.049.049 0 01.01.016.09.09 0 01.008.035h-2c0 1.124.942 1.952 2 1.952v-2zm0 .048a.09.09 0 01-.008.035.05.05 0 01-.01.016c-.002.002.002-.003.018-.003v-2c-1.058 0-2 .828-2 1.952h2zm0 .048c.016 0 .02.005.018.003a.05.05 0 01-.01-.015.09.09 0 01-.008-.036h2c0-1.124-.942-1.952-2-1.952v2z" fill="#0655FF" mask="url(#path-19-inside-10_3967_145280)"/></svg>