<svg width="124" height="20" viewBox="0 0 124 20" fill="none" xmlns="http://www.w3.org/2000/svg">
<path d="M23.698 15.21C26.778 15.21 28.094 13.11 28.416 11.738L26.302 11.136C26.106 11.85 25.42 12.998 23.698 12.998C22.214 12.998 20.842 11.92 20.842 10.058C20.842 7.972 22.34 7.02 23.67 7.02C25.42 7.02 26.05 8.182 26.204 8.868L28.29 8.21C27.968 6.782 26.652 4.864 23.67 4.864C20.898 4.864 18.546 6.964 18.546 10.058C18.546 13.152 20.842 15.21 23.698 15.21ZM33.9831 15.21C37.0631 15.21 38.3791 13.11 38.7011 11.738L36.5871 11.136C36.3911 11.85 35.7051 12.998 33.9831 12.998C32.4991 12.998 31.1271 11.92 31.1271 10.058C31.1271 7.972 32.6251 7.02 33.9551 7.02C35.7051 7.02 36.3351 8.182 36.4891 8.868L38.5751 8.21C38.2531 6.782 36.9371 4.864 33.9551 4.864C31.1831 4.864 28.8311 6.964 28.8311 10.058C28.8311 13.152 31.1271 15.21 33.9831 15.21ZM41.9162 9.526V6.992H43.2042C44.0442 6.992 44.6182 7.468 44.6182 8.266C44.6182 9.036 44.0442 9.526 43.2042 9.526H41.9162ZM43.4282 11.43C45.4442 11.43 46.8302 10.128 46.8302 8.252C46.8302 6.404 45.4442 5.074 43.4282 5.074H39.6902V15H41.9022V11.43H43.4282ZM53.6428 15H56.0508L52.3548 5.074H49.7928L46.0548 15H48.3788L49.0928 12.984H52.9288L53.6428 15ZM51.0388 7.538L52.2288 10.968H49.8208L51.0388 7.538Z" fill="#151417"/>
<path d="M66.586 15.196C68.854 15.196 70.436 13.866 70.94 12.004L69.904 11.626C69.498 13.054 68.35 14.118 66.586 14.118C64.696 14.118 62.876 12.732 62.876 10.03C62.876 7.342 64.696 5.956 66.586 5.956C68.28 5.956 69.456 6.852 69.834 8.406L70.926 8.028C70.436 6.124 68.84 4.878 66.586 4.878C64.136 4.878 61.7 6.712 61.7 10.03C61.7 13.348 64.066 15.196 66.586 15.196ZM75.0153 8.098C73.0833 8.098 71.6553 9.582 71.6553 11.64C71.6553 13.712 73.0833 15.196 75.0153 15.196C76.9473 15.196 78.3753 13.712 78.3753 11.64C78.3753 9.582 76.9473 8.098 75.0153 8.098ZM75.0153 9.106C76.2193 9.106 77.2553 10.016 77.2553 11.64C77.2553 13.278 76.2193 14.188 75.0153 14.188C73.8113 14.188 72.7753 13.278 72.7753 11.64C72.7753 10.016 73.8113 9.106 75.0153 9.106ZM80.7737 8.294H79.6817V15H80.8017V10.94C80.8017 9.89 81.4597 9.106 82.4677 9.106C83.5317 9.106 84.0217 9.82 84.0217 10.744V15H85.1417V10.926C85.1417 9.918 85.8137 9.106 86.8077 9.106C87.8577 9.106 88.3477 9.82 88.3477 10.744V15H89.4677V10.618C89.4677 8.938 88.3757 8.098 87.1577 8.098C86.2057 8.098 85.3657 8.518 84.8897 9.47C84.5537 8.588 83.7557 8.098 82.8317 8.098C81.9637 8.098 81.1517 8.546 80.7737 9.246V8.294ZM92.2625 17.66V13.964C92.6125 14.594 93.3825 15.196 94.5305 15.196C96.4625 15.196 97.6105 13.642 97.6105 11.64C97.6105 9.638 96.5325 8.098 94.5585 8.098C93.3685 8.098 92.5845 8.728 92.2345 9.414V8.294H91.1425V17.66H92.2625ZM94.3625 14.188C93.0745 14.188 92.2345 13.124 92.2345 11.64C92.2345 10.156 93.0605 9.106 94.3625 9.106C95.6645 9.106 96.4905 10.156 96.4905 11.64C96.4905 13.124 95.6505 14.188 94.3625 14.188ZM100.046 15V4.878H98.9257V15H100.046ZM102.934 15V8.294H101.814V15H102.934ZM101.534 5.648C101.534 6.11 101.912 6.488 102.374 6.488C102.836 6.488 103.214 6.11 103.214 5.648C103.214 5.186 102.836 4.808 102.374 4.808C101.912 4.808 101.534 5.186 101.534 5.648ZM104.227 13.222C104.227 14.244 105.053 15.196 106.439 15.196C107.643 15.196 108.371 14.538 108.665 13.992C108.665 14.51 108.721 14.846 108.749 15H109.841C109.799 14.79 109.757 14.44 109.757 13.88V10.492C109.757 9.19 108.959 8.098 107.055 8.098C105.613 8.098 104.493 8.966 104.353 10.24L105.417 10.492C105.515 9.638 106.103 9.05 107.083 9.05C108.133 9.05 108.637 9.624 108.637 10.38C108.637 10.674 108.525 10.884 108.035 10.954L106.229 11.22C105.053 11.388 104.227 12.046 104.227 13.222ZM106.579 14.244C105.809 14.244 105.347 13.712 105.347 13.166C105.347 12.508 105.809 12.144 106.453 12.046L108.637 11.724V12.172C108.637 13.6 107.741 14.244 106.579 14.244ZM112.567 11.052C112.567 10.002 113.169 9.106 114.247 9.106C115.465 9.106 115.913 9.89 115.913 10.87V15H117.033V10.702C117.033 9.246 116.249 8.098 114.639 8.098C113.757 8.098 112.973 8.518 112.539 9.302V8.294H111.447V15H112.567V11.052ZM120.266 6.166H119.216V7.272C119.216 7.902 118.922 8.294 118.236 8.294H117.802V9.302H119.146V13.166C119.146 14.384 119.86 15.07 120.966 15.07C121.4 15.07 121.722 14.986 121.848 14.944V13.992C121.736 14.02 121.484 14.062 121.288 14.062C120.574 14.062 120.266 13.712 120.266 13.012V9.302H121.848V8.294H120.266V6.166Z" fill="#151417"/>
<circle cx="7" cy="10" r="7" fill="#151417"/>
<path d="M5.49751 12.4362L3.6555 10.5239C3.44817 10.3087 3.44817 9.96144 3.6555 9.74619C3.86108 9.53276 4.19568 9.53145 4.40284 9.74325L4.40518 9.74565L5.93749 11.332L9.59424 7.53572C9.79954 7.32258 10.1337 7.32126 10.3406 7.53278L10.3447 7.53709C10.5523 7.75408 10.5517 8.10274 10.3434 8.31897L6.37747 12.4362C6.13633 12.6866 5.74385 12.6881 5.50086 12.4397L5.49751 12.4362Z" fill="white"/>
</svg>
