<svg width="80" height="80" fill="none" xmlns="http://www.w3.org/2000/svg"><path d="M5.137 69.156c-.247-1.723 13.404-40.763 13.404-40.763 1.014-2.86 9.5-2.378 13.986 0 4.486 2.377 24.476 20.381 21.562 23.293a6.47 6.47 0 01-2.341 1.747c-8.786 5.945-37.631 22.573-40.2 21.546-2.332-.932-6.163-4.1-6.41-5.823z" fill="#fff"/><path d="M18.54 28.393S4.89 67.433 5.138 69.156c.248 1.723 4.08 4.891 6.41 5.823 2.914 1.165 39.628-20.381 42.542-23.293M18.541 28.393c1.014-2.86 9.5-2.378 13.986 0 4.486 2.377 24.476 20.381 21.562 23.293M18.541 28.393c2.061 9.71 27.156 33.076 35.548 23.293" stroke="#151417" stroke-width="2.5"/><path d="M68.933 8.181c.866 1.515 2.078 5.194 0 7.791-2.597 3.246-6.492-2.823-8.44 0-1.948 2.823 4.26 3.896 1.948 7.142-2.312 3.246-6.492-6.493-11.037-3.247-3.636 2.597-1.515 7.142 0 9.09M33.11 37.142c2.719-7.376 5.128-23.526-6.994-29.116M40.687 44.13c7.187-4.077 24.476-10.366 36.13-2.912M7.178 5C5.43 6.165 2.283 8.96 3.682 10.823c1.748 2.33 4.661-1.164 6.41 1.165 1.748 2.33-5.828 1.747-5.245 5.823.583 4.076 6.41-1.165 8.159 1.747 1.398 2.33-1.36 5.63-2.914 6.988" stroke="#151417" stroke-width="2.5" stroke-linecap="round"/><path d="M41.203 59.664c-12.291-4.749-21.532-16.847-25.257-22.55l-2.706 8.118c10.056 11.173 17.924 16.527 21.648 18.04l6.315-3.608zm-30.668-7.216c2.235 5.586 10.533 11.842 16.236 15.334l-6.314 3.608c-6.145-2.235-9.485-7.332-12.628-10.824l2.706-8.118z" stroke="#151417" stroke-width="2.5"/></svg>