<svg width="25" height="25" fill="none" xmlns="http://www.w3.org/2000/svg"><g clip-path="url(#clip0_5807_187778)" stroke="#600DFF" stroke-width="1.5" stroke-linecap="round" stroke-linejoin="round"><path d="M9.138 11.796l-1.016 4.066 4.066-1.017 6.098-6.099-3.049-3.05-6.099 6.1zm12.707-6.607l1.015 1.016a1.437 1.437 0 010 2.033l-3.172 3.172"/><path d="M18.286 8.746l3.559-3.557a1.437 1.437 0 000-2.033L20.828 2.14a1.437 1.437 0 00-2.033 0l-3.558 3.557m3.732 8.959v7.188a1.437 1.437 0 01-1.438 1.437H3.156a1.437 1.437 0 01-1.437-1.437V7.469A1.438 1.438 0 013.156 6.03h7.188"/></g><rect width="25" height="25" rx="1" fill="#fff"/><path d="M9.667 16.167A5.667 5.667 0 014 10.5V7.667A1.417 1.417 0 015.417 6.25h8.5a1.417 1.417 0 011.416 1.417V10.5a5.667 5.667 0 01-5.666 5.667zM6.833 6.25V2M12.5 6.25V2M9.666 16.167V19a2.834 2.834 0 005.667 0 2.833 2.833 0 012.833-2.833v0A2.834 2.834 0 0121 19v4.25" stroke="#600DFF" stroke-width="1.5" stroke-linecap="round" stroke-linejoin="round"/><g clip-path="url(#clip1_5807_187778)"><path fill="#fff" d="M0 0h25v25H0z"/><path d="M14.844 24.219a3.125 3.125 0 003.125-3.125V3.906a3.125 3.125 0 016.25 0v3.125h-6.25" stroke="#F80066" stroke-width="1.563" stroke-linecap="round" stroke-linejoin="round"/><path d="M7.031 17.969V3.906A3.125 3.125 0 0110.156.781h10.938M3.906 17.969a3.125 3.125 0 100 6.25h10.938a3.125 3.125 0 110-6.25H3.906zm6.25-12.5h4.688m-4.688 3.125h4.688m-4.688 3.125h4.688" stroke="#F80066" stroke-width="1.563" stroke-linecap="round" stroke-linejoin="round"/></g><defs><clipPath id="clip0_5807_187778"><path fill="#fff" transform="translate(1 1)" d="M0 0h23v23H0z"/></clipPath><clipPath id="clip1_5807_187778"><path fill="#fff" d="M0 0h25v25H0z"/></clipPath></defs></svg>