<?xml version="1.0" encoding="UTF-8"?> <svg xmlns="http://www.w3.org/2000/svg" width="56" height="56" viewBox="0 0 56 56" fill="none"><path d="M26.6278 9.79988L9.49327 25.8148C8.74828 26.5111 9.49335 27.9028 9.49336 28.2508C9.49337 28.5988 12.6408 33.4697 13.3402 33.8174C14.0396 34.1652 27.6781 41.4681 29.7763 41.4673C31.8745 41.4665 46.9109 27.1924 46.9109 26.8444C46.9109 26.566 46.4446 26.0326 46.2115 25.8007C41.0824 20.9306 30.5445 10.912 29.4254 9.7988C28.3063 8.68561 27.3272 9.1036 26.6278 9.79988Z" fill="white" stroke="#151417" stroke-linecap="round"></path><path d="M42.3499 18.4231L41.6074 44.909C41.5377 46.7677 40.9371 46.0169 38.6151 45.9518C31.5413 45.7536 22.9455 37.4372 20.7129 45.4502C20.5779 45.9344 18.2177 45.4783 18.1482 45.3784C16.9807 44.1042 14.9393 47.0317 14.1164 46.1668C13.2541 45.2605 12.4029 47.3208 12.409 47.1166C12.692 37.5513 13.297 18.9677 13.3495 18.0893C13.4508 16.3905 13.5632 16.3083 15.9336 16.2747C24.516 16.503 39.2022 16.5642 40.2947 16.6241C41.8311 16.7084 42.3829 16.7849 42.3499 18.4231Z" fill="white" stroke="#151417" stroke-linecap="round"></path><path d="M14.3762 12.8023L14.4996 10.1944M12.1037 13.4945L10.0245 10.8573M11.2192 15.3989L8.80677 15.2062" stroke="#151417" stroke-linecap="round"></path><path d="M9.1623 47.2377L9.16155 26.8635C9.16152 26.0056 9.71578 26.4588 10.2101 26.863L10.2101 26.8631C15.4532 31.1504 26.1489 39.8679 26.9878 40.4395L26.9879 40.4395C27.8267 41.0111 28.0364 41.154 29.085 40.4387C34.3277 36.3856 45.0229 28.065 45.8617 27.2068C46.7005 26.3486 46.9102 26.6107 46.9102 26.849L46.911 47.2232C46.9111 48.653 45.746 49.0109 45.1634 49.0111L10.91 49.0243C9.5119 49.0248 9.16233 47.8334 9.1623 47.2377Z" fill="white" stroke="#151417" stroke-linecap="round"></path><path d="M9.16167 25.8697L13.4757 22.0599L13.2701 28.5312L9.16167 25.8697Z" fill="#151417"></path><path d="M46.9104 26.5898L42.5961 23.1401L42.5963 29.6113L46.9104 26.5898Z" fill="#151417"></path><path d="M28.8911 25.206L38.6941 25.5961" stroke="#151417" stroke-linecap="round"></path><path d="M28.8911 20.8919L38.6941 21.2819" stroke="#151417" stroke-linecap="round"></path><path d="M29.1453 28.472L36.6851 29.1247" stroke="#151417" stroke-linecap="round"></path><path d="M16.471 28.4813L16.683 20.9118C16.7107 19.924 16.8389 19.9275 18.0539 19.9616C19.5324 20.0217 23.2663 20.0882 24.1991 20.1143C25.3361 20.1462 25.2965 20.4451 25.2827 20.9391C25.2277 22.9013 25.1347 27.3337 25.1021 28.4998C25.0694 29.666 25.0885 29.8183 23.9114 29.7853C22.4606 29.726 18.898 29.6277 17.7431 29.6403C16.4381 29.6544 16.451 29.1888 16.471 28.4813Z" fill="#600DFF"></path></svg> 