<?xml version="1.0" encoding="UTF-8"?> <svg xmlns="http://www.w3.org/2000/svg" width="56" height="56" viewBox="0 0 56 56" fill="none"><path d="M13.5518 39.4515C11.7028 38.1275 6.5326 35.3833 6.52434 25.7151C6.60947 24.1789 7.27433 21.2547 9.09658 18.4297C10.0506 16.9507 11.3218 15.499 12.9932 14.2878C15.5675 12.4222 18.0917 11.6108 20.4898 11.4273C23.7551 11.1773 26.7599 12.1475 28.9125 13.1152C33.9054 15.3599 39.8154 23.277 36.3149 32.2143C35.8858 33.3099 35.4144 34.4843 34.5903 35.5143C28.3387 43.3274 20.6554 42.1778 16.1661 40.6434C14.8917 40.2078 13.9606 39.7442 13.5518 39.4515Z" fill="white"></path><path d="M28.9132 13.1151C26.7606 12.1474 23.7559 11.1772 20.4905 11.4272C20.0565 12.5297 19.5279 14.9313 20.8857 15.7174C22.8959 16.8813 24.0809 15.6254 26.249 16.3647C28.4171 17.104 28.8832 20.3968 29.0434 21.7308C29.5937 26.3101 28.9937 28.9745 31.2189 30.9147C32.999 32.4669 35.3585 32.4278 36.3157 32.2142C39.8162 23.2769 33.9061 15.3598 28.9132 13.1151Z" fill="white" stroke="#151417" stroke-linecap="round"></path><path d="M6.52434 25.6344C6.5326 35.3027 11.7028 38.0468 13.5518 39.3708C13.9606 39.6635 14.8917 40.1271 16.1661 40.5627C15.8215 39.6128 15.3277 37.4014 16.1088 36.1549C17.0852 34.5967 18.0965 34.4196 20.1664 33.329C22.2364 32.2384 24.3253 31.3437 22.9944 28.4268C21.9297 26.0933 18.931 26.5658 17.5647 27.0938C16.0857 27.7513 13.0543 28.5949 12.7608 26.7088C12.3939 24.3511 13.3513 22.597 12.6653 20.8241C12.1165 19.4057 10.0575 18.5831 9.09658 18.349C7.27433 21.174 6.60947 24.0982 6.52434 25.6344Z" fill="#600DFF" stroke="#600DFF" stroke-linecap="round"></path><path d="M6.52434 25.7151C6.5326 35.3833 11.7028 38.1275 13.5518 39.4515C13.9606 39.7442 14.8917 40.2078 16.1661 40.6434C20.6554 42.1778 28.3387 43.3274 34.5903 35.5143C35.4144 34.4843 35.8858 33.3099 36.3149 32.2143C39.8154 23.277 33.9054 15.3599 28.9125 13.1152C26.7599 12.1475 23.7551 11.1773 20.4898 11.4273C18.0917 11.6108 15.5675 12.4222 12.9932 14.2878C11.3218 15.499 10.0506 16.9507 9.09658 18.4297C7.27433 21.2547 6.60947 24.1789 6.52434 25.7151Z" stroke="#151417" stroke-linecap="round"></path><path d="M41.3281 38.701C40.6521 38.6846 39.2431 38.2358 39.0682 38.1793C39.0562 38.1754 39.0441 38.1712 39.0323 38.1667C38.3603 37.9089 38.359 37.3935 38.4082 37.0613C38.6884 36.0261 39.3701 33.8583 39.5989 33.2412C39.8414 32.5873 40.2601 32.5385 40.8112 32.6624C41.3623 32.7863 42.4259 32.9999 42.8051 33.0398C43.2791 33.0895 43.6838 33.075 44.0896 32.2982C44.5218 31.4707 46.2831 26.1148 46.2158 25.1835C46.145 24.2033 45.5124 24.1233 45.282 24.0407C44.8539 23.932 43.8445 23.6867 43.2318 23.5747C42.6191 23.4626 42.7291 22.7436 42.8607 22.398C43.078 21.6472 43.5916 19.9059 43.9074 18.9472C44.2232 17.9886 44.6192 17.8299 45.0029 17.8619C46.2265 17.9641 47.7732 17.938 49.159 19.9585C50.5448 21.979 49.9326 26.5301 49.4533 28.553C47.684 35.2282 45.566 36.9765 44.0935 37.9144C42.9155 38.6648 42.0496 38.7186 41.3281 38.701Z" fill="#151417"></path><path d="M40.535 38.2822C40.0928 48.3223 25.4991 52.251 21.9612 42.2109" stroke="#151417" stroke-linecap="round" stroke-dasharray="2 3"></path></svg> 