<svg width="25" height="25" fill="none" xmlns="http://www.w3.org/2000/svg"><g clip-path="url(#clip0_5807_184773)" stroke="#600DFF" stroke-width="1.5" stroke-linecap="round" stroke-linejoin="round"><path d="M9.138 11.796l-1.016 4.066 4.066-1.017 6.098-6.099-3.049-3.05-6.099 6.1zm12.707-6.607l1.015 1.016a1.437 1.437 0 010 2.033l-3.172 3.172"/><path d="M18.287 8.746l3.558-3.557a1.437 1.437 0 000-2.033L20.828 2.14a1.438 1.438 0 00-2.033 0l-3.558 3.557m3.732 8.959v7.188a1.437 1.437 0 01-1.438 1.437H3.156a1.437 1.437 0 01-1.437-1.437V7.469A1.438 1.438 0 013.156 6.03h7.188"/></g><rect width="25" height="25" rx="1" fill="#fff"/><g clip-path="url(#clip1_5807_184773)" stroke="#F80066" stroke-width="1.5" stroke-linecap="round" stroke-linejoin="round"><path d="M20.9 9.511v-5.17c0-.342-.134-.67-.373-.913a1.266 1.266 0 00-.902-.378h-15.3c-.338 0-.662.136-.901.378-.24.242-.373.571-.373.914v14.215c0 .343.134.672.373.914.24.242.563.378.902.378h5.1M3.05 7.25H20.9"/><path d="M11.45 15.65a4.201 4.201 0 007.17 2.97 4.199 4.199 0 00-2.97-7.17 4.2 4.2 0 00-4.2 4.2v0zm10.5 6.3L18.8 18.8"/></g><path fill="#fff" d="M0 0h25v25H0z"/><path d="M22.833 17.583L24.208 7.22a.781.781 0 00-1.125-.813l-4.458 3.396a.781.781 0 01-1.135-.156l-4.407-6.438a.76.76 0 00-1.166 0L7.51 9.646a.781.781 0 01-1.135.156L1.917 6.406a.781.781 0 00-1.125.813l1.375 10.416" stroke="#600DFF" stroke-width="1.5" stroke-linecap="round" stroke-linejoin="round"/><path d="M21.875 17.375H3.125a2.344 2.344 0 100 4.688h18.75a2.344 2.344 0 100-4.688z" stroke="#600DFF" stroke-width="1.5" stroke-linecap="round" stroke-linejoin="round"/><defs><clipPath id="clip0_5807_184773"><path fill="#fff" transform="translate(1 1)" d="M0 0h23v23H0z"/></clipPath><clipPath id="clip1_5807_184773"><path fill="#fff" transform="translate(2 2)" d="M0 0h21v21H0z"/></clipPath></defs></svg>