<svg width="25" height="25" fill="none" xmlns="http://www.w3.org/2000/svg"><path d="M3.76 18.321l.691.291.157-.371-.224-.336-.624.416zm-1.675 3.98l.691.29-.691-.29zm.633.663l-.259-.704.26.703zm4.221-1.556l.398-.635-.312-.195-.345.127.26.703zM22.25 12.5a9.75 9.75 0 01-9.75 9.75v1.5c6.213 0 11.25-5.037 11.25-11.25h-1.5zM12.5 2.75a9.75 9.75 0 019.75 9.75h1.5c0-6.213-5.037-11.25-11.25-11.25v1.5zM2.75 12.5a9.75 9.75 0 019.75-9.75v-1.5C6.287 1.25 1.25 6.287 1.25 12.5h1.5zm1.634 5.405A9.701 9.701 0 012.75 12.5h-1.5a11.2 11.2 0 001.886 6.238l1.248-.833zm-1.608 4.686l1.675-3.979-1.382-.582-1.675 3.98 1.382.581zm-.317-.331a.25.25 0 01.317.331l-1.382-.582c-.425 1.008.558 2.036 1.584 1.658l-.519-1.407zm4.221-1.555L2.46 22.26l.518 1.407 4.22-1.555-.518-1.407zm5.82 1.545a9.7 9.7 0 01-5.163-1.477l-.795 1.271A11.201 11.201 0 0012.5 23.75v-1.5z" fill="#F80066"/><path d="M7.168 10.5h10m-10 4h10.277" stroke="#F80066" stroke-width="1.5" stroke-linecap="round"/></svg>