<?xml version="1.0" encoding="UTF-8"?> <svg xmlns="http://www.w3.org/2000/svg" width="56" height="56" viewBox="0 0 56 56" fill="none"><path d="M15.4893 25.4326C11.8611 27.4704 11.0608 31.8158 11.1142 33.7337L31.0504 33.7014C31.3092 31.9264 30.6262 29.2799 29.3026 27.6171C25.834 23.2598 20.0245 22.8852 15.4893 25.4326Z" fill="#600DFF"></path><path d="M23.2738 13.5011C20.8251 12.4058 18.9345 13.3566 18.083 13.9825C17.5154 14.3997 16.1379 15.7362 15.9929 17.834C15.7933 20.7227 18.0516 22.3596 18.8996 22.6485C20.5014 23.194 23.0482 23.3225 24.848 21.3967C26.7426 19.3695 26.2878 14.8491 23.2738 13.5011Z" fill="#600DFF"></path><path d="M27.3868 25.7183C23.7938 27.7368 22.5112 31.6405 22.2084 34.2368C22.115 35.0382 22.7766 35.6793 23.583 35.6779L44.767 35.6404C45.5084 35.6391 46.1468 35.0901 46.1169 34.3494C46.0366 32.3628 45.2538 29.9597 43.9624 28.3373C39.8009 23.109 32.8295 22.6606 27.3868 25.7183Z" fill="white"></path><path d="M22.2084 34.2368L22.705 34.293L22.2084 34.2368ZM27.3868 25.7183L27.6305 26.154L27.3868 25.7183ZM43.9624 28.3373L44.354 28.025L43.9624 28.3373ZM46.1169 34.3494L46.6164 34.3274L46.6164 34.3274L46.1169 34.3494ZM44.767 35.6404L44.7661 36.1404L44.767 35.6404ZM23.583 35.6779L23.5821 36.1779L23.5821 36.1779L23.583 35.6779ZM22.705 34.293C22.9996 31.7671 24.241 28.0582 27.6305 26.154L27.1431 25.2825C23.3466 27.4154 22.0228 31.5139 21.7118 34.1806L22.705 34.293ZM27.6305 26.154C32.9086 23.1888 39.5942 23.6537 43.5708 28.6496L44.354 28.025C40.0075 22.5644 32.7505 22.1324 27.1431 25.2825L27.6305 26.154ZM43.5708 28.6496C44.7877 30.1785 45.5407 32.476 45.6173 34.3714L46.6164 34.3274C46.5325 32.2495 45.7198 29.7409 44.354 28.025L43.5708 28.6496ZM44.768 35.1404L23.5839 35.1779L23.5821 36.1779L44.7661 36.1404L44.768 35.1404ZM45.6173 34.3714C45.6335 34.7719 45.2843 35.1395 44.768 35.1404L44.7661 36.1404C45.7325 36.1387 46.6601 35.4082 46.6164 34.3274L45.6173 34.3714ZM21.7118 34.1806C21.5785 35.3238 22.5241 36.1798 23.5821 36.1779L23.5839 35.1779C23.0291 35.1788 22.6514 34.7525 22.705 34.293L21.7118 34.1806Z" fill="#151417"></path><path d="M36.7286 10.6013C33.7901 9.28698 31.5214 10.4279 30.4996 11.179C29.8185 11.6797 28.1655 13.2834 27.9915 15.8008C27.7519 19.2672 30.4619 21.2316 31.4795 21.5782C33.4017 22.2328 36.4578 22.387 38.6176 20.0761C40.8912 17.6434 40.3454 12.2189 36.7286 10.6013Z" fill="white"></path><path d="M30.4996 11.179L30.2045 10.7765L30.2045 10.7765L30.4996 11.179ZM36.7286 10.6013L36.9342 10.1447L36.9342 10.1447L36.7286 10.6013ZM38.6176 20.0761L38.2529 19.7354L38.6176 20.0761ZM31.4795 21.5782L31.6423 21.1048L31.4795 21.5782ZM27.9915 15.8008L27.4927 15.7682L27.9915 15.8008ZM30.7948 11.5815C31.733 10.8918 33.8082 9.84358 36.523 11.0578L36.9342 10.1447C33.772 8.73038 31.3098 9.96407 30.2045 10.7765L30.7948 11.5815ZM36.523 11.0578C38.1394 11.7807 39.1034 13.3708 39.3885 15.1155C39.6752 16.8697 39.2557 18.6624 38.2529 19.7354L38.9823 20.4167C40.253 19.057 40.6975 16.9211 40.3754 14.9506C40.0519 12.9704 38.9346 11.0394 36.9342 10.1447L36.523 11.0578ZM38.2529 19.7354C36.2847 21.8413 33.4722 21.728 31.6423 21.1048L31.3167 22.0515C33.3312 22.7376 36.6309 22.9327 38.9823 20.4167L38.2529 19.7354ZM31.6423 21.1048C31.2349 20.966 30.3786 20.4501 29.6549 19.546C28.9428 18.6567 28.3807 17.4191 28.4903 15.8334L27.4927 15.7682C27.3627 17.649 28.0358 19.1267 28.8733 20.1728C29.699 21.2042 30.7065 21.8437 31.3167 22.0515L31.6423 21.1048ZM28.4903 15.8334C28.6502 13.5204 30.1768 12.0357 30.7948 11.5815L30.2045 10.7765C29.4601 11.3237 27.6808 13.0464 27.4927 15.7682L28.4903 15.8334Z" fill="#151417"></path><path d="M47.5704 45.9651C47.5513 46.2406 47.3127 46.4472 47.0373 46.4266L27.1168 44.9375L7.19624 43.4484C6.92086 43.4278 6.71307 43.1878 6.73212 42.9124L7.42204 32.9362C7.44109 32.6607 7.67977 32.4541 7.95514 32.4746L27.8757 33.9637L47.7962 35.4529C48.0716 35.4734 48.2793 35.7135 48.2603 35.9889L47.5704 45.9651Z" fill="#151417" stroke="#151417"></path><path d="M6.68724 42.8342L7.37715 32.8581C7.3962 32.5826 7.63488 32.3759 7.91025 32.3965L27.356 33.8502C27.6314 33.8707 27.8392 34.1107 27.8201 34.3862L27.0957 44.8612L7.15135 43.3703C6.87598 43.3497 6.66819 43.1097 6.68724 42.8342Z" fill="white" stroke="#151417"></path><path d="M38 43L38.345 38.0119" stroke="white" stroke-linecap="round"></path><path d="M35 40L39.9861 40.3727" stroke="white" stroke-linecap="round"></path><path d="M13.8365 38.6141L19 39.0001" stroke="#151417" stroke-linecap="round"></path></svg> 