<svg width="25" height="25" fill="none" xmlns="http://www.w3.org/2000/svg"><g clip-path="url(#clip0_13331_13993)"><rect width="25" height="25" rx="1" fill="#fff"/><g clip-path="url(#clip1_13331_13993)" stroke="#F80066" stroke-width="1.5" stroke-linecap="round" stroke-linejoin="round"><path d="M11.719 17.969a6.25 6.25 0 1012.5 0 6.25 6.25 0 00-12.5 0z"/><path d="M20.731 17.969H17.97v-2.763m-9.376 1.2h-6.25A1.563 1.563 0 01.78 14.844v-12.5A1.562 1.562 0 012.344.78h18.75a1.562 1.562 0 011.562 1.563v7.031"/><path d="M22.303 1.354L13.82 7.88a3.446 3.446 0 01-4.202 0L1.134 1.354"/></g></g><defs><clipPath id="clip0_13331_13993"><path fill="#fff" d="M0 0h25v25H0z"/></clipPath><clipPath id="clip1_13331_13993"><path fill="#fff" d="M0 0h25v25H0z"/></clipPath></defs></svg>