<svg width="25" height="25" fill="none" xmlns="http://www.w3.org/2000/svg"><rect width="25" height="25" rx="1" fill="#fff"/><path d="M16.81 16.94h2.405s4.31-.56 4.31-4.775a4.766 4.766 0 00-1.4-3.372 4.8 4.8 0 00-3.381-1.402h-.185a6.687 6.687 0 00-3.029-3.107A6.72 6.72 0 007.458 5.84 6.665 6.665 0 005.81 9.848a3.605 3.605 0 00-3.708 1.481 3.575 3.575 0 00-.626 2.025c0 3.64 3.833 3.586 3.833 3.586h2.872m4.319-5.489V22.44" stroke="#F80066" stroke-width="1.5" stroke-linecap="round" stroke-linejoin="round"/><path d="M15.507 14.448L12.5 11.45l-3.007 2.997" stroke="#F80066" stroke-width="1.5" stroke-linecap="round" stroke-linejoin="round"/></svg>