<svg width="25" height="25" fill="none" xmlns="http://www.w3.org/2000/svg"><rect width="25" height="25" rx="1" fill="#fff"/><path d="M18.833 15.667l2.796-2.796a1.266 1.266 0 000-1.791L19.847 9.3a3.168 3.168 0 11-4.148-4.148L13.92 3.371a1.266 1.266 0 00-1.79 0L9.332 6.167a3.167 3.167 0 10-3.166 3.166L3.37 12.13a1.266 1.266 0 000 1.791L5.153 15.7a3.167 3.167 0 114.148 4.147l1.779 1.78a1.267 1.267 0 001.79 0l2.797-2.793a3.166 3.166 0 103.166-3.166z" stroke="#0655FF" stroke-width="1.5" stroke-linecap="round" stroke-linejoin="round"/></svg>