<svg xmlns="http://www.w3.org/2000/svg" viewBox="0 0 94 122"><path fill="#fff" d="M8.1 89.9 47.6 110l38-20.1V11.3H8.1z"/><path fill="#f2f3f2" d="M86.4 11.6 7.3 91.3l41 20.3 38.1-19.5z"/><path fill="#dcdedc" d="M5.5 37.5v54.1l1.4.7 39.5 20.1 1.2.6 1.2-.6 38.1-20.1 1.4-.7V8.7H5.5v28.8zm2.6 52.6V11.3h77.6v78.8l-38.1 20.1L8.1 90.1z"/><path fill="#ff492c" d="M46.9 12.6c.4 0 .8 0 1.2.1L46.9 15c-1.8-.1-3.4 1.3-3.5 3.1-.1 1.8 1.3 3.4 3.1 3.5h.4c.8 0 1.6-.3 2.2-.8l1.3 2.2c-1 .7-2.2 1.1-3.5 1.1-3.2.1-5.9-2.3-6-5.5-.1-3.2 2.3-5.9 5.5-6h.5zm4.1 4.9 1.5 2.5-1.5 2.4-1.4-2.4h-2.9l1.5-2.5H51zm-2.4-.9c0-.4.1-.8.3-1.1.2-.3.6-.6.9-.8l.2-.1c.4-.2.5-.3.5-.5s-.3-.4-.5-.4c-.4 0-.7.2-.9.6l-.5-.5c.1-.2.3-.4.5-.6.3-.2.6-.2.9-.2.3 0 .7.1.9.3.2.2.4.5.4.8 0 .5-.3.9-.9 1.1l-.3.2c-.3.2-.5.3-.6.6h1.8v.7l-2.7-.1zm-1.7 12.5 9.5-5.4v-15H37.3v14.9l9.6 5.5z"/><path fill="#2690ce" d="M90.2 64.5H3.6l-3.2 7 3.2 7h86.6l3.1-7z"/><path fill="#252530" d="M12.28 60q-.05 0-.08-.04-.04-.03-.04-.08v-6.76q0-.05.04-.08.03-.04.08-.04h1.17q.05 0 .09.04.03.03.03.08v6.76q0 .05-.03.08-.04.04-.09.04h-1.17Zm8.12-5.22q.78 0 1.22.47.44.47.44 1.32v3.31q0 .05-.04.08-.03.04-.08.04h-1.17q-.05 0-.09-.04-.03-.03-.03-.08v-3q0-.41-.21-.65-.21-.24-.56-.24-.35 0-.57.24-.22.24-.22.64v3.01q0 .05-.04.08-.03.04-.08.04h-1.16q-.05 0-.09-.04-.03-.03-.03-.08v-3q0-.4-.22-.65-.22-.24-.57-.24-.32 0-.54.19-.21.19-.25.53v3.17q0 .05-.03.08-.04.04-.09.04h-1.17q-.05 0-.08-.04-.04-.03-.04-.08v-4.9q0-.05.04-.09.03-.03.08-.03h1.17q.05 0 .09.03.03.04.03.09v.39q0 .03.02.04.02.01.04-.02.41-.61 1.27-.61.5 0 .87.21.38.21.58.6.03.06.07 0 .22-.41.59-.61.38-.2.85-.2Zm7.24 1.46q.18.51.18 1.2t-.19 1.25q-.23.64-.72 1.02-.5.37-1.23.37-.72 0-1.12-.5-.02-.03-.04-.02-.02.01-.02.04v2.14q0 .05-.03.08-.04.04-.09.04h-1.17q-.05 0-.08-.04-.04-.03-.04-.08v-6.76q0-.05.04-.09.03-.03.08-.03h1.17q.05 0 .09.03.03.04.03.09v.33q0 .03.02.03.02.01.04-.01.42-.55 1.16-.55.69 0 1.2.39.5.38.72 1.07Zm-1.53 2.24q.25-.39.25-1.06 0-.63-.21-1-.23-.43-.74-.43-.46 0-.69.43-.21.36-.21 1.01 0 .67.22 1.04.23.4.68.4.45 0 .7-.39ZM28.85 60q-.05 0-.09-.04-.03-.03-.03-.08v-6.76q0-.05.03-.08.04-.04.09-.04h1.17q.05 0 .08.04.04.03.04.08v6.76q0 .05-.04.08-.03.04-.08.04h-1.17Zm6.87-3.1q.06.38.04.85-.01.12-.13.12h-3.09q-.06 0-.04.05.03.2.11.4.26.56 1.06.56.64-.01 1.01-.52.04-.06.09-.06.03 0 .07.04l.72.71q.05.05.05.09 0 .02-.04.08-.33.41-.85.64-.52.22-1.14.22-.86 0-1.45-.39-.6-.39-.86-1.09-.21-.5-.21-1.31 0-.55.15-.97.23-.71.8-1.13.58-.42 1.37-.42 1 0 1.61.58.6.58.73 1.55Zm-2.33-.91q-.63 0-.83.59-.04.13-.07.32 0 .05.05.05h1.73q.06 0 .04-.05-.05-.29-.05-.28-.09-.3-.31-.47-.23-.16-.56-.16Zm8.94-1.21q.78 0 1.22.47.44.47.44 1.32v3.31q0 .05-.03.08-.04.04-.09.04H42.7q-.05 0-.08-.04-.04-.03-.04-.08v-3q0-.41-.21-.65-.21-.24-.56-.24-.35 0-.57.24-.22.24-.22.64v3.01q0 .05-.03.08-.04.04-.09.04h-1.16q-.05 0-.08-.04-.04-.03-.04-.08v-3q0-.4-.22-.65-.22-.24-.57-.24-.32 0-.53.19-.22.19-.26.53v3.17q0 .05-.03.08-.04.04-.09.04h-1.17q-.05 0-.08-.04-.04-.03-.04-.08v-4.9q0-.05.04-.09.03-.03.08-.03h1.17q.05 0 .09.03.03.04.03.09v.39q0 .03.02.04.02.01.04-.02.41-.61 1.27-.61.5 0 .88.21.37.21.57.6.03.06.07 0 .22-.41.6-.61.37-.2.84-.2Zm7.17 2.12q.06.38.04.85-.01.12-.13.12h-3.09q-.06 0-.04.05.03.2.11.4.26.56 1.06.56.64-.01 1.01-.52.04-.06.09-.06.03 0 .07.04l.72.71q.05.05.05.09 0 .02-.04.08-.33.41-.85.64-.52.22-1.14.22-.86 0-1.45-.39-.6-.39-.86-1.09-.21-.5-.21-1.31 0-.55.15-.97.23-.71.81-1.13.57-.42 1.36-.42 1 0 1.61.58.6.58.73 1.55Zm-2.33-.91q-.63 0-.83.59-.04.13-.07.32 0 .05.05.05h1.73q.06 0 .04-.05-.05-.29-.05-.28-.09-.3-.31-.47-.23-.16-.56-.16Zm5.92-1.21q.8 0 1.29.49t.49 1.33v3.28q0 .05-.03.08-.04.04-.09.04h-1.17q-.05 0-.08-.04-.04-.03-.04-.08v-2.99q0-.4-.22-.65-.23-.25-.6-.25t-.59.25q-.23.25-.23.65v2.99q0 .05-.03.08-.04.04-.09.04h-1.17q-.05 0-.08-.04-.04-.03-.04-.08v-4.9q0-.05.04-.09.03-.03.08-.03h1.17q.05 0 .09.03.03.04.03.09v.35q0 .03.02.04.02.01.03-.01.41-.58 1.22-.58Zm5.74 1.09q0 .05-.03.09-.04.03-.09.03h-.96q-.05 0-.05.05v2.12q0 .33.14.49.13.16.43.16h.33q.05 0 .09.03.03.04.03.09v.95q0 .11-.12.13-.42.02-.6.02-.83 0-1.24-.27-.41-.28-.42-1.04v-2.68q0-.05-.05-.05h-.57q-.05 0-.08-.03-.04-.04-.04-.09v-.89q0-.05.04-.09.03-.03.08-.03h.57q.05 0 .05-.05v-1.19q0-.05.04-.08.03-.04.08-.04h1.12q.05 0 .09.04.03.03.03.08v1.19q0 .05.05.05h.96q.05 0 .09.03.03.04.03.09v.89Zm2.9-1.09q.65 0 1.16.22.51.23.79.62.29.39.29.87v3.39q0 .05-.04.08-.03.04-.08.04h-1.17q-.05 0-.08-.04-.04-.03-.04-.08v-.33q0-.03-.02-.04-.02-.01-.04.02-.42.55-1.35.55-.78 0-1.26-.38t-.48-1.12q0-.77.54-1.2.54-.42 1.54-.42h1.02q.05 0 .05-.05v-.22q0-.33-.2-.52-.2-.18-.6-.18-.31 0-.51.11-.21.11-.27.31-.03.11-.13.1l-1.21-.16q-.12-.02-.11-.09.04-.42.33-.76.3-.34.78-.53.49-.19 1.09-.19Zm-.2 4.25q.43 0 .73-.23t.3-.59v-.36q0-.05-.05-.05h-.72q-.45 0-.71.17-.25.17-.25.48 0 .27.19.42.19.16.51.16Zm6.27-3.16q0 .05-.03.09-.04.03-.09.03h-.96q-.05 0-.05.05v2.12q0 .33.14.49.13.16.43.16h.33q.05 0 .09.03.03.04.03.09v.95q0 .11-.12.13-.42.02-.6.02-.83 0-1.24-.27-.41-.28-.42-1.04v-2.68q0-.05-.05-.05h-.57q-.05 0-.09-.03-.03-.04-.03-.09v-.89q0-.05.03-.09.04-.03.09-.03h.57q.05 0 .05-.05v-1.19q0-.05.04-.08.03-.04.08-.04h1.12q.05 0 .09.04.03.03.03.08v1.19q0 .05.05.05h.96q.05 0 .09.03.03.04.03.09v.89Zm1.61-1.59q-.34 0-.56-.23-.23-.22-.23-.56 0-.35.22-.57.22-.22.57-.22t.57.22q.22.22.22.57 0 .34-.23.56-.22.23-.56.23Zm-.6 5.72q-.05 0-.09-.04-.03-.03-.03-.08v-4.91q0-.05.03-.09.04-.03.09-.03h1.17q.05 0 .09.03.03.04.03.09v4.91q0 .05-.03.08-.04.04-.09.04h-1.17Zm4.66.08q-.84 0-1.44-.44t-.82-1.2q-.14-.47-.14-1.02 0-.59.14-1.06.23-.74.83-1.16.6-.42 1.44-.42.82 0 1.4.42.58.41.82 1.15.16.5.16 1.05 0 .54-.14 1.01-.22.78-.82 1.23-.59.44-1.43.44Zm0-1.21q.33 0 .56-.2.23-.2.33-.55.08-.32.08-.7 0-.42-.08-.71-.11-.34-.34-.53-.23-.19-.56-.19-.34 0-.57.19-.22.19-.32.53-.08.24-.08.71 0 .45.07.7.1.35.33.55.24.2.58.2Zm5.98-4.09q.8 0 1.29.49t.49 1.33v3.28q0 .05-.04.08-.03.04-.08.04h-1.17q-.05 0-.09-.04-.03-.03-.03-.08v-2.99q0-.4-.23-.65-.22-.25-.59-.25t-.6.25q-.22.25-.22.65v2.99q0 .05-.04.08-.03.04-.08.04h-1.17q-.05 0-.09-.04-.03-.03-.03-.08v-4.9q0-.05.03-.09.04-.03.09-.03h1.17q.05 0 .08.03.04.04.04.09v.35q0 .03.02.04.02.01.03-.01.41-.58 1.22-.58ZM35.35 44.09q0 .05-.04.08-.03.04-.08.04h-3.27q-.05 0-.05.05v1.55q0 .05.05.05h2.15q.05 0 .08.03.04.04.04.09v.97q0 .05-.04.09-.03.03-.08.03h-2.15q-.05 0-.05.05v2.76q0 .05-.03.08-.04.04-.09.04h-1.17q-.05 0-.08-.04-.04-.03-.04-.08v-6.76q0-.05.04-.08.03-.04.08-.04h4.61q.05 0 .08.04.04.03.04.08v.97Zm2.22.69q.65 0 1.16.22.51.23.8.62.28.39.28.87v3.39q0 .05-.03.08-.04.04-.09.04h-1.17q-.05 0-.09-.04-.03-.03-.03-.08v-.33q0-.03-.02-.04-.02-.01-.04.02-.42.55-1.35.55-.78 0-1.26-.38t-.48-1.12q0-.77.54-1.2.54-.42 1.54-.42h1.02q.05 0 .05-.05v-.22q0-.33-.2-.52-.2-.18-.6-.18-.31 0-.51.11-.21.11-.27.31-.03.11-.13.1l-1.21-.16q-.12-.02-.11-.09.04-.42.34-.76.29-.34.78-.53.48-.19 1.08-.19Zm-.2 4.25q.43 0 .73-.23t.3-.59v-.36q0-.05-.05-.05h-.72q-.45 0-.7.17-.26.17-.26.48 0 .27.19.42.19.16.51.16Zm5.48 1.04q-.67 0-1.17-.19-.5-.19-.77-.53-.28-.34-.28-.77v-.1q0-.05.04-.08.03-.04.08-.04h1.11q.05 0 .08.04.04.03.04.08v.01q0 .22.25.37.24.16.61.16.34 0 .55-.13.21-.14.21-.34 0-.18-.18-.27-.18-.09-.59-.19-.47-.12-.74-.23-.64-.22-1.02-.54-.38-.32-.38-.92 0-.74.58-1.18.57-.43 1.52-.43.64 0 1.12.21.48.2.75.57.26.37.26.84 0 .05-.03.09-.04.03-.09.03h-1.07q-.05 0-.08-.03-.04-.04-.04-.09 0-.22-.22-.37-.23-.15-.6-.15-.33 0-.54.12-.21.12-.21.33 0 .2.21.3.2.1.68.21l.25.07q.14.03.3.08.71.21 1.12.54.41.33.41.96 0 .74-.58 1.15-.59.42-1.58.42Zm5.91-4.2q0 .05-.03.09-.04.03-.09.03h-.96q-.05 0-.05.05v2.12q0 .33.14.49.13.16.43.16h.33q.05 0 .09.03.03.04.03.09v.95q0 .11-.12.13-.42.02-.6.02-.83 0-1.24-.27-.41-.28-.42-1.04v-2.68q0-.05-.05-.05h-.57q-.05 0-.08-.03-.04-.04-.04-.09v-.89q0-.05.04-.09.03-.03.08-.03h.57q.05 0 .05-.05v-1.19q0-.05.03-.08.04-.04.09-.04h1.12q.05 0 .09.04.03.03.03.08v1.19q0 .05.05.05h.96q.05 0 .09.03.03.04.03.09v.89Zm5.33 1.03q.06.38.04.85-.01.12-.13.12h-3.09q-.06 0-.04.05.03.2.11.4.26.56 1.06.56.64-.01 1.01-.52.04-.06.09-.06.03 0 .07.04l.72.71q.05.05.05.09 0 .02-.04.08-.33.41-.85.64-.52.22-1.14.22-.86 0-1.45-.39-.6-.39-.86-1.09-.21-.5-.21-1.31 0-.55.15-.97.23-.71.8-1.13.58-.42 1.37-.42 1 0 1.6.58.61.58.74 1.55Zm-2.33-.91q-.63 0-.83.59-.04.13-.07.32 0 .05.05.05h1.73q.06 0 .04-.05-.05-.29-.05-.28-.09-.3-.32-.47-.22-.16-.55-.16Zm5.22 4.08q-.67 0-1.17-.19-.5-.19-.78-.53-.27-.34-.27-.77v-.1q0-.05.04-.08.03-.04.08-.04h1.11q.05 0 .08.04.04.03.04.08v.01q0 .22.24.37.25.16.62.16.34 0 .55-.13.21-.14.21-.34 0-.18-.18-.27-.18-.09-.59-.19-.47-.12-.74-.23-.64-.22-1.02-.54-.38-.32-.38-.92 0-.74.57-1.18.58-.43 1.53-.43.64 0 1.12.21.48.2.74.57.27.37.27.84 0 .05-.03.09-.04.03-.09.03h-1.07q-.05 0-.09-.03-.03-.04-.03-.09 0-.22-.22-.37-.23-.15-.6-.15-.33 0-.54.12-.21.12-.21.33 0 .2.2.3.21.1.69.21l.25.07q.14.03.3.08.71.21 1.12.54.41.33.41.96 0 .74-.59 1.15-.58.42-1.57.42Zm5.91-4.2q0 .05-.04.09-.03.03-.08.03h-.96q-.05 0-.05.05v2.12q0 .33.13.49.14.16.44.16h.33q.05 0 .08.03.04.04.04.09v.95q0 .11-.12.13-.42.02-.6.02-.83 0-1.24-.27-.41-.28-.42-1.04v-2.68q0-.05-.05-.05h-.57q-.05 0-.09-.03-.03-.04-.03-.09v-.89q0-.05.03-.09.04-.03.09-.03h.57q.05 0 .05-.05v-1.19q0-.05.03-.08.04-.04.09-.04h1.12q.05 0 .08.04.04.03.04.08v1.19q0 .05.05.05h.96q.05 0 .08.03.04.04.04.09v.89Z"/><path fill="#fff" d="M28.74 69.28q0 .05-.03.08-.04.04-.09.04h-3.41q-.05 0-.05.05v1.87q0 .05.05.05h2.29q.05 0 .09.03.03.04.03.09v.76q0 .05-.03.09-.04.03-.09.03h-2.29q-.05 0-.05.05v1.93q0 .05.05.05h3.41q.05 0 .09.04.03.03.03.08v.76q0 .05-.03.08-.04.04-.09.04h-4.5q-.05 0-.08-.04-.04-.03-.04-.08v-6.76q0-.05.04-.08.03-.04.08-.04h4.5q.05 0 .09.04.03.03.03.08v.76Zm3.52.93q.81 0 1.3.48.48.48.48 1.31v3.28q0 .05-.04.08-.03.04-.08.04H33q-.05 0-.09-.04-.03-.03-.03-.08v-3.04q0-.46-.26-.75-.26-.28-.69-.28-.43 0-.7.28-.26.28-.26.74v3.05q0 .05-.03.08-.04.04-.09.04h-.92q-.05 0-.08-.04-.04-.03-.04-.08v-4.87q0-.05.04-.09.03-.03.08-.03h.92q.05 0 .09.03.03.04.03.09v.32q0 .03.02.04.02.01.03-.02.41-.54 1.24-.54Zm5.7.9q0 .05-.04.08-.03.04-.08.04h-1.02q-.05 0-.05.05v2.41q0 .38.16.55.17.17.53.17h.3q.05 0 .08.03.04.04.04.09v.75q0 .11-.12.13l-.52.01q-.79 0-1.18-.27-.39-.27-.4-1.02v-2.85q0-.05-.05-.05h-.57q-.05 0-.09-.04-.03-.03-.03-.08v-.7q0-.05.03-.09.04-.03.09-.03h.57q.05 0 .05-.05v-1.17q0-.05.03-.09.04-.03.09-.03h.87q.05 0 .08.03.04.04.04.09v1.17q0 .05.05.05h1.02q.05 0 .08.03.04.04.04.09v.7Zm5.24 1.16q.04.25.04.56l-.01.31q0 .12-.12.12h-3.13q-.05 0-.05.05.03.33.09.45.24.72 1.17.73.68 0 1.08-.56.04-.06.1-.06.04 0 .07.03l.62.51q.09.07.03.16-.31.44-.82.68-.52.24-1.15.24-.78 0-1.33-.35-.54-.35-.79-.98-.23-.54-.23-1.5 0-.58.12-.94.2-.7.76-1.11.55-.4 1.33-.4 1.97 0 2.22 2.06Zm-2.22-1.06q-.37 0-.62.19-.24.18-.34.51-.06.17-.08.44-.02.05.04.05h2.03q.05 0 .05-.05-.02-.25-.06-.38-.09-.36-.35-.56-.27-.2-.67-.2Zm5.7-.98q.32 0 .56.13.08.04.06.15l-.17.9q-.01.12-.14.07-.15-.05-.35-.05-.13 0-.2.01-.42.02-.7.29-.28.28-.28.72v2.83q0 .05-.03.08-.04.04-.09.04h-.92q-.05 0-.08-.04-.04-.03-.04-.08v-4.87q0-.05.04-.09.03-.03.08-.03h.92q.05 0 .09.03.03.04.03.09v.45q0 .04.01.04.02.01.04-.02.42-.65 1.17-.65Zm5.71 1.38q.18.51.18 1.25 0 .71-.17 1.22-.22.66-.7 1.03-.49.37-1.23.37-.71 0-1.14-.51-.02-.02-.04-.01t-.02.04v2.17q0 .05-.03.08-.04.04-.09.04h-.92q-.05 0-.08-.04-.04-.03-.04-.08v-6.76q0-.05.04-.09.03-.03.08-.03h.92q.05 0 .09.03.03.04.03.09v.3q0 .03.02.04.02.01.04-.02.44-.52 1.15-.52t1.2.37q.49.37.71 1.03Zm-1.3 2.45q.3-.46.3-1.22 0-.73-.24-1.15-.28-.49-.85-.49-.52 0-.78.48-.23.39-.23 1.16 0 .79.25 1.2.26.44.75.44.53 0 .8-.42Zm4.98-3.83q.32 0 .56.13.08.04.06.15l-.17.9q-.01.12-.14.07-.15-.05-.35-.05-.13 0-.2.01-.42.02-.7.29-.28.28-.28.72v2.83q0 .05-.03.08-.04.04-.09.04h-.92q-.05 0-.08-.04-.04-.03-.04-.08v-4.87q0-.05.04-.09.03-.03.08-.03h.92q.05 0 .09.03.03.04.03.09v.45q0 .04.01.04.02.01.04-.02.42-.65 1.17-.65Zm2.04-.64q-.31 0-.51-.2t-.2-.51q0-.31.2-.51t.51-.2q.31 0 .51.2t.2.51q0 .31-.2.51t-.51.2Zm-.48 5.81q-.05 0-.08-.04-.04-.03-.04-.08V70.4q0-.05.04-.08.03-.04.08-.04h.92q.05 0 .09.04.03.03.03.08v4.88q0 .05-.03.08-.04.04-.09.04h-.92Zm4.27.06q-.63 0-1.11-.19-.47-.18-.73-.51-.26-.32-.26-.72v-.09q0-.05.03-.09.04-.03.09-.03h.88q.05 0 .09.03.03.04.03.09v.02q0 .25.27.44.28.18.7.18.4 0 .65-.16.25-.17.25-.42 0-.23-.21-.35-.2-.11-.66-.24l-.38-.12q-.51-.15-.86-.32t-.59-.47q-.24-.29-.24-.75 0-.7.55-1.11.55-.42 1.45-.42.61 0 1.07.19.46.2.71.54.25.35.25.79 0 .05-.03.09-.04.03-.09.03h-.85q-.05 0-.09-.03-.03-.04-.03-.09 0-.26-.25-.43-.26-.18-.7-.18-.39 0-.63.14-.25.15-.25.41 0 .24.23.36.24.13.79.28l.22.06q.53.16.89.32.36.17.61.46.25.3.25.77 0 .71-.56 1.11-.56.41-1.49.41Zm7.34-3.19q.04.25.04.56l-.01.31q0 .12-.12.12h-3.13q-.05 0-.05.05.03.33.09.45.24.72 1.17.73.68 0 1.08-.56.04-.06.1-.06.04 0 .07.03l.62.51q.09.07.03.16-.31.44-.83.68-.51.24-1.14.24-.78 0-1.33-.35-.54-.35-.79-.98-.23-.54-.23-1.5 0-.58.12-.94.2-.7.75-1.11.56-.4 1.34-.4 1.97 0 2.22 2.06Zm-2.22-1.06q-.37 0-.62.19-.24.18-.34.51-.06.17-.08.44-.02.05.04.05h2.03q.05 0 .05-.05-.02-.25-.06-.38-.09-.36-.36-.56-.26-.2-.66-.2Z"/><path fill="#252530" d="M33.15 89.58q-.8 0-1.4-.26-.6-.25-.92-.73-.33-.47-.33-1.1v-.22q0-.05.04-.08.03-.04.08-.04h1.14q.05 0 .09.04.03.03.03.08v.15q0 .4.37.67.37.28 1 .28.53 0 .79-.22.26-.23.26-.56 0-.24-.16-.4-.16-.17-.44-.29-.27-.13-.87-.35-.67-.23-1.14-.47-.46-.24-.77-.66-.32-.41-.32-1.02 0-.6.31-1.05.31-.45.86-.69.55-.24 1.27-.24.76 0 1.35.27.6.27.94.76.33.48.33 1.12v.15q0 .05-.03.08-.04.04-.09.04h-1.15q-.05 0-.08-.04-.04-.03-.04-.08v-.08q0-.42-.34-.72-.35-.29-.95-.29-.47 0-.74.2-.26.2-.26.55 0 .25.16.42.15.17.46.3.3.14.94.37.71.26 1.11.46.41.2.74.59.32.4.32 1.03 0 .94-.69 1.48-.69.55-1.87.55Zm6.44-7.09q.66 0 1.16.27.5.27.78.76.27.5.27 1.14 0 .63-.28 1.11-.29.48-.81.75-.51.26-1.18.26h-1.42q-.05 0-.05.05v2.55q0 .05-.04.08-.03.04-.08.04h-1.17q-.05 0-.09-.04-.03-.03-.03-.08v-6.77q0-.05.03-.09.04-.03.09-.03h2.82Zm-.21 3.16q.46 0 .74-.27.28-.26.28-.69 0-.44-.28-.71-.28-.27-.74-.27h-1.27q-.05 0-.05.05v1.84q0 .05.05.05h1.27Zm7.13 3.85q-.1 0-.14-.09l-1.25-2.77q-.02-.04-.06-.04h-.93q-.05 0-.05.05v2.73q0 .05-.04.08-.03.04-.08.04h-1.17q-.05 0-.09-.04-.03-.03-.03-.08v-6.76q0-.05.03-.08.04-.04.09-.04h2.86q.64 0 1.12.26.49.26.75.74.27.48.27 1.11 0 .68-.34 1.16-.34.49-.95.69-.05.02-.03.07l1.36 2.83q.02.04.02.06 0 .08-.11.08h-1.23Zm-2.38-5.79q-.05 0-.05.05v1.71q0 .05.05.05h1.31q.42 0 .68-.25.27-.25.27-.65t-.27-.66q-.26-.25-.68-.25h-1.31Zm4.8 5.79q-.05 0-.08-.04-.04-.03-.04-.08v-6.76q0-.05.04-.08.03-.04.08-.04h1.17q.05 0 .09.04.03.03.03.08v6.76q0 .05-.03.08-.04.04-.09.04h-1.17Zm6.53-6.88q0-.05.04-.08.03-.04.08-.04h1.17q.05 0 .09.04.03.03.03.08v6.76q0 .05-.03.08-.04.04-.09.04h-1.13q-.1 0-.14-.08l-2.59-4.28q-.02-.03-.04-.02-.02 0-.02.04l.02 4.22q0 .05-.03.08-.04.04-.09.04h-1.17q-.05 0-.08-.04-.04-.03-.04-.08v-6.76q0-.05.04-.08.03-.04.08-.04h1.13q.1 0 .14.08l2.58 4.26q.02.03.04.02.02 0 .02-.04l-.01-4.2Zm5.09 6.96q-.77 0-1.36-.31-.59-.31-.91-.86-.33-.56-.33-1.29v-2.24q0-.73.33-1.29.32-.56.91-.87.59-.3 1.36-.3.76 0 1.35.3.58.3.91.82.32.51.32 1.14v.07q0 .05-.03.08-.04.04-.09.04h-1.17q-.05 0-.08-.04-.04-.03-.04-.08v-.03q0-.46-.32-.77-.32-.32-.85-.32-.54 0-.86.33-.33.34-.33.88v2.32q0 .54.35.87.35.34.89.34.52 0 .83-.28.31-.27.31-.76v-.45q0-.05-.05-.05h-1.12q-.05 0-.08-.04-.04-.03-.04-.08v-.92q0-.05.04-.08.03-.04.08-.04h2.44q.05 0 .09.04.03.03.03.08v1.32q0 .76-.32 1.32t-.9.86q-.59.29-1.36.29ZM37.68 97.63q-.02.02-.01.04t.04.02h2.71q.05 0 .09.03.03.04.03.09v.97q0 .05-.03.08-.04.04-.09.04h-4.5q-.05 0-.09-.04-.03-.03-.03-.08v-.92q0-.09.06-.15.49-.48 1-1.04.51-.57.64-.71.28-.33.57-.63.91-1.01.91-1.5 0-.35-.25-.58-.25-.22-.65-.22t-.65.22q-.25.23-.25.6v.25q0 .05-.04.09-.03.03-.08.03h-1.18q-.05 0-.08-.03-.04-.04-.04-.09v-.47q.03-.54.34-.96.31-.41.82-.63.52-.22 1.16-.22.71 0 1.24.26.52.27.81.72.28.45.28 1 0 .42-.21.86t-.63.95q-.31.39-.67.77-.36.38-1.07 1.1l-.15.15Zm6.11 1.38q-1.1 0-1.74-.62-.64-.61-.64-1.67v-2.64q0-1.04.64-1.65.64-.61 1.74-.61t1.75.61q.64.61.64 1.65v2.64q0 1.06-.64 1.67-.65.62-1.75.62Zm0-1.21q.45 0 .72-.28.26-.27.26-.73v-2.75q0-.46-.26-.73-.27-.28-.72-.28-.44 0-.7.28-.27.27-.27.73v2.75q0 .46.27.73.26.28.7.28Zm5.19-.17q-.02.02-.01.04t.04.02h2.71q.05 0 .09.03.03.04.03.09v.97q0 .05-.03.08-.04.04-.09.04h-4.5q-.05 0-.08-.04-.04-.03-.04-.08v-.92q0-.09.06-.15.49-.48 1-1.04.51-.57.64-.71.28-.33.57-.63.91-1.01.91-1.5 0-.35-.25-.58-.25-.22-.65-.22t-.65.22q-.25.23-.25.6v.25q0 .05-.03.09-.04.03-.09.03h-1.18q-.05 0-.08-.03-.04-.04-.04-.09v-.47q.03-.54.34-.96.31-.41.83-.63.51-.22 1.15-.22.71 0 1.24.26.52.27.81.72.28.45.28 1 0 .42-.21.86t-.63.95q-.31.39-.67.77-.36.38-1.07 1.1l-.15.15Zm8.73-1.78q.05 0 .09.03.03.04.03.09v1.01q0 .05-.03.09-.04.03-.09.03h-.43q-.05 0-.05.05v1.63q0 .05-.03.08-.04.04-.09.04h-1.17q-.05 0-.08-.04-.04-.03-.04-.08v-1.63q0-.05-.05-.05H52.7q-.05 0-.08-.03-.04-.04-.04-.09v-.8q0-.06.03-.15l1.8-4.04q.04-.09.14-.09h1.25q.07 0 .1.04.02.03-.01.1l-1.67 3.75q-.01.02 0 .04t.03.02h1.52q.05 0 .05-.05v-1.24q0-.05.04-.08.03-.04.08-.04h1.17q.05 0 .09.04.03.03.03.08v1.24q0 .05.05.05h.43Z"/></svg>