<?xml version="1.0" encoding="UTF-8"?> <svg xmlns="http://www.w3.org/2000/svg" width="56" height="56" viewBox="0 0 56 56" fill="none"><rect x="4.76953" y="10.1387" width="40.9522" height="28.7026" rx="1.5" fill="white"></rect><rect x="4.76953" y="10.6799" width="40.3326" height="3.73685" fill="#600DFF"></rect><rect x="5.26953" y="10.6387" width="39.9522" height="27.7026" rx="1" stroke="#151417"></rect><circle cx="27.3125" cy="34.3411" r="11.3082" fill="white"></circle><circle cx="27.3127" cy="34.341" r="11.4177" stroke="#151417"></circle><rect x="35.1616" y="43.4227" width="3.42385" height="13.1058" rx="1.71193" transform="rotate(-49.9589 35.1616 43.4227)" fill="#151417"></rect><path d="M22.3766 39.8317C23.6424 41.8426 25.4667 42.3899 27.1099 42.4615C32.9493 42.7161 33.7581 36.8302 32.8057 34.2638C32.2238 32.6957 31.2994 31.4545 31.2473 31.641C31.1952 31.8275 31.1517 32.6412 30.6827 33.099C30.2136 33.5567 30.2463 33.3955 30.2378 33.1849C30.1996 32.2353 30.047 30.6709 29.1119 29.0322C28.1769 27.3936 25.9362 25.8796 26.0015 26.2765C26.0814 26.7629 26.0015 27.408 25.9061 27.878C25.2593 30.6374 23.5252 32.3191 22.8147 33.1849C22.1907 33.9452 20.4179 36.72 22.3766 39.8317Z" fill="#600DFF"></path><path d="M24.2778 39.2417C24.6009 40.1023 25.2771 40.4228 25.4699 40.5364C27.1127 41.3686 28.4359 40.9989 28.7265 40.8976L28.7351 40.8946C29.0394 40.7887 30.1927 40.3873 30.4395 38.9322C30.6887 37.4633 30.3876 36.511 29.1107 35.2649C27.8337 34.0188 27.8856 32.8233 27.9271 32.5498C27.9604 32.3309 27.8164 32.4113 27.7403 32.4788C25.7366 34.1909 26.1131 36.8185 26.131 37.1162C26.1454 37.3543 26.131 37.4237 26.0294 37.373C25.2338 36.9761 25.0544 36.2582 25.0484 35.8088C25.0436 35.4493 24.9724 35.5343 24.9213 35.5964C24.2118 36.6935 23.8739 38.1659 24.2778 39.2417Z" fill="white"></path><path d="M8.12939 18.246H21.8058" stroke="#151417" stroke-linecap="round"></path><path d="M8.12939 21.7528H16.8964" stroke="#151417" stroke-linecap="round"></path><path d="M43.1074 4.14587L42.7778 7.11058" stroke="#151417" stroke-linecap="round"></path><path d="M49.2354 4.97824L47.5864 7.46393" stroke="#151417" stroke-linecap="round"></path><path d="M51.2303 10.8669L48.3034 11.4426" stroke="#151417" stroke-linecap="round"></path></svg> 