<?xml version="1.0" encoding="UTF-8"?> <svg xmlns="http://www.w3.org/2000/svg" width="56" height="56" viewBox="0 0 56 56" fill="none"><mask id="path-1-inside-1_7786_142379" fill="white"><rect x="18.3264" y="6.40869" width="15.8772" height="9.67769" rx="1"></rect></mask><rect x="18.3264" y="6.40869" width="15.8772" height="9.67769" rx="1" stroke="#151417" stroke-width="5" mask="url(#path-1-inside-1_7786_142379)"></rect><rect x="6.1272" y="13.2622" width="40.2551" height="25.8361" rx="1" fill="white" stroke="#151417"></rect><path d="M6.66528 13.9828C8.38644 17.6007 10.9381 25.0262 12.1183 25.7849C13.5936 26.7332 38.5312 25.7849 40.2803 25.7849C40.6092 25.7849 44.4602 17.9168 45.8652 13.9828" stroke="#151417" stroke-linecap="round"></path><rect x="22.6497" y="23.5425" width="7.23022" height="5.32772" rx="0.7" fill="#151417"></rect><circle cx="43.8652" cy="40.658" r="8.93328" fill="#600DFF"></circle><path d="M48.9632 40.1707C48.6782 37.8943 47.7563 36.0935 45.5639 35.3232C42.8233 34.3603 40.1491 36.023 39.2603 37.6525" stroke="white" stroke-linecap="round"></path><path d="M49.3503 39.543L49.0971 40.3901L48.4542 39.7831L49.3503 39.543Z" fill="white" stroke="white"></path><path d="M38.7663 41.1453C39.0513 43.4217 39.9732 45.2225 42.1656 45.9928C44.9062 46.9557 47.5804 45.293 48.4692 43.6635" stroke="white" stroke-linecap="round"></path><path d="M38.3794 41.7729L38.6327 40.9258L39.2755 41.5328L38.3794 41.7729Z" fill="white" stroke="white"></path></svg> 