<?xml version="1.0" encoding="UTF-8"?> <svg xmlns="http://www.w3.org/2000/svg" width="56" height="56" viewBox="0 0 56 56" fill="none"><path d="M13.8963 30.0782C15.6493 29.1005 20.3858 27.5449 27.4831 27.4613C36.3547 27.3568 42.8356 29.6612 42.6232 30.4988C42.4532 31.1689 34.9735 39.6797 31.2549 43.8513C30.883 44.2685 30.883 44.5111 30.883 45.0557V48.7915C30.883 49.7746 30.9043 49.8406 30.417 50.0153C29.9297 50.1899 27.4361 50.8396 25.752 51.1554C24.7478 51.3436 24.911 50.7786 24.911 49.5132C24.911 49.0961 24.9295 47.9466 24.911 44.8354C24.9079 44.3026 24.8944 44.0221 24.385 43.4981C23.8755 42.9741 17.2792 35.6618 13.6795 31.2653C13.5152 31.0646 13.4232 30.9032 13.3882 30.7682C13.305 30.4473 13.5432 30.275 13.8963 30.0782Z" fill="white"></path><path d="M42.6232 30.4988C42.8356 29.6612 36.3547 27.3568 27.4831 27.4613C20.3858 27.5449 15.6493 29.1005 13.8963 30.0782C13.5432 30.275 13.305 30.4473 13.3882 30.7682M42.6232 30.4988C42.4532 31.1689 34.9735 39.6797 31.2549 43.8513C30.883 44.2685 30.883 44.5111 30.883 45.0557C30.883 45.6003 30.883 46.47 30.883 48.7915C30.883 49.7746 30.9043 49.8406 30.417 50.0153C29.9297 50.1899 27.4361 50.8396 25.752 51.1554C24.7478 51.3436 24.911 50.7786 24.911 49.5132C24.911 49.0961 24.9295 47.9466 24.911 44.8354C24.9079 44.3026 24.8944 44.0221 24.385 43.4981C23.8755 42.9741 17.2792 35.6618 13.6795 31.2653C13.5152 31.0646 13.4232 30.9032 13.3882 30.7682M42.6232 30.4988C30.883 34.6653 14.2683 32.1426 13.3882 30.7682" stroke="#151417" stroke-linecap="round"></path><path d="M27.4831 27.4613C20.3858 27.5447 15.6493 29.0965 13.8963 30.0717C13.5432 30.2681 13.305 30.4399 13.3882 30.76C14.2683 32.1311 30.883 34.6475 42.6232 30.4913C42.8356 29.6558 36.3547 27.3571 27.4831 27.4613Z" fill="#151417" stroke="#151417" stroke-linecap="round"></path><mask id="path-4-inside-1_7786_142406" fill="white"><path fill-rule="evenodd" clip-rule="evenodd" d="M20.5805 10.8458L19.4545 9.71971C19.3399 9.60514 19.337 9.42028 19.448 9.30218L21.9603 6.62773C22.0738 6.50689 22.2638 6.50104 22.3846 6.61468L23.6225 7.77973C23.7094 7.86154 23.8364 7.88377 23.9469 7.83862C24.4573 7.63003 25.0391 7.43076 25.422 7.31796C25.5541 7.27906 25.6475 7.15918 25.6475 7.02152V5.1092C25.6475 4.94352 25.7819 4.8092 25.9475 4.8092H29.7701C29.9358 4.8092 30.0701 4.94352 30.0701 5.1092V6.76556C30.0701 6.89061 30.1478 7.0021 30.2637 7.04919C30.8021 7.26805 31.3633 7.56038 31.7504 7.762C31.8664 7.82244 31.9668 7.87472 32.0462 7.91444C32.1298 7.95625 32.9133 7.17465 33.4428 6.6225C33.5561 6.50437 33.7429 6.49712 33.8641 6.60721L36.5249 9.02614C36.6491 9.13909 36.6565 9.33203 36.5412 9.4541L35.3042 10.7639C35.2135 10.8599 35.1966 11.0038 35.2595 11.1199C35.546 11.6491 35.8166 12.2623 35.9441 12.7477C35.9814 12.8896 36.1058 12.9957 36.2525 12.9957H37.8626C38.0283 12.9957 38.1626 13.13 38.1626 13.2957V16.8361C38.1626 17.0017 38.0283 17.136 37.8626 17.136H36.2246C36.0907 17.136 35.9738 17.225 35.9295 17.3514C35.7579 17.8411 35.4745 18.3851 35.2808 18.7149C35.2084 18.8382 35.2242 18.9967 35.3253 19.0978L36.724 20.4965C36.8424 20.6148 36.8409 20.8072 36.7208 20.9239L33.9521 23.6112C33.8344 23.7253 33.6469 23.7239 33.531 23.608L32.286 22.363C32.1982 22.2753 32.0654 22.2507 31.9518 22.3009C31.3119 22.5835 30.7825 22.8043 30.3188 22.9184C30.1764 22.9534 30.0701 23.0776 30.0701 23.2243V24.9285C30.0701 25.0942 29.9358 25.2285 29.7701 25.2285H26.1357C25.9701 25.2285 25.8357 25.0942 25.8357 24.9285V23.2704C25.8357 23.1462 25.7594 23.0349 25.6436 22.9899C25.4202 22.903 25.0609 22.7616 24.8948 22.6878C24.7194 22.6099 24.3733 22.438 24.1501 22.3226C24.0325 22.2619 23.8862 22.2778 23.7876 22.366L22.3841 23.6218C22.2628 23.7304 22.0769 23.7223 21.9654 23.6036L19.442 20.9174C19.3335 20.8018 19.3336 20.6218 19.4422 20.5064L20.6119 19.2636C20.6976 19.1725 20.7179 19.0379 20.6645 18.9247C20.5802 18.7459 20.4557 18.4737 20.378 18.2652C20.2953 18.0431 20.2123 17.7673 20.1577 17.5697C20.1187 17.4287 19.9887 17.3242 19.8424 17.3242H18.1374C17.9717 17.3242 17.8374 17.1899 17.8374 17.0242V13.2957C17.8374 13.1301 17.9717 12.9957 18.1374 12.9957H19.6947C19.8222 12.9957 19.9355 12.9152 19.9795 12.7956C20.167 12.2863 20.4451 11.6105 20.6348 11.2339C20.6991 11.1062 20.6817 10.9469 20.5805 10.8458ZM28 19.8526C30.6696 19.8526 32.8338 17.6884 32.8338 15.0188C32.8338 12.3492 30.6696 10.185 28 10.185C25.3304 10.185 23.1662 12.3492 23.1662 15.0188C23.1662 17.6884 25.3304 19.8526 28 19.8526Z"></path></mask><path fill-rule="evenodd" clip-rule="evenodd" d="M20.5805 10.8458L19.4545 9.71971C19.3399 9.60514 19.337 9.42028 19.448 9.30218L21.9603 6.62773C22.0738 6.50689 22.2638 6.50104 22.3846 6.61468L23.6225 7.77973C23.7094 7.86154 23.8364 7.88377 23.9469 7.83862C24.4573 7.63003 25.0391 7.43076 25.422 7.31796C25.5541 7.27906 25.6475 7.15918 25.6475 7.02152V5.1092C25.6475 4.94352 25.7819 4.8092 25.9475 4.8092H29.7701C29.9358 4.8092 30.0701 4.94352 30.0701 5.1092V6.76556C30.0701 6.89061 30.1478 7.0021 30.2637 7.04919C30.8021 7.26805 31.3633 7.56038 31.7504 7.762C31.8664 7.82244 31.9668 7.87472 32.0462 7.91444C32.1298 7.95625 32.9133 7.17465 33.4428 6.6225C33.5561 6.50437 33.7429 6.49712 33.8641 6.60721L36.5249 9.02614C36.6491 9.13909 36.6565 9.33203 36.5412 9.4541L35.3042 10.7639C35.2135 10.8599 35.1966 11.0038 35.2595 11.1199C35.546 11.6491 35.8166 12.2623 35.9441 12.7477C35.9814 12.8896 36.1058 12.9957 36.2525 12.9957H37.8626C38.0283 12.9957 38.1626 13.13 38.1626 13.2957V16.8361C38.1626 17.0017 38.0283 17.136 37.8626 17.136H36.2246C36.0907 17.136 35.9738 17.225 35.9295 17.3514C35.7579 17.8411 35.4745 18.3851 35.2808 18.7149C35.2084 18.8382 35.2242 18.9967 35.3253 19.0978L36.724 20.4965C36.8424 20.6148 36.8409 20.8072 36.7208 20.9239L33.9521 23.6112C33.8344 23.7253 33.6469 23.7239 33.531 23.608L32.286 22.363C32.1982 22.2753 32.0654 22.2507 31.9518 22.3009C31.3119 22.5835 30.7825 22.8043 30.3188 22.9184C30.1764 22.9534 30.0701 23.0776 30.0701 23.2243V24.9285C30.0701 25.0942 29.9358 25.2285 29.7701 25.2285H26.1357C25.9701 25.2285 25.8357 25.0942 25.8357 24.9285V23.2704C25.8357 23.1462 25.7594 23.0349 25.6436 22.9899C25.4202 22.903 25.0609 22.7616 24.8948 22.6878C24.7194 22.6099 24.3733 22.438 24.1501 22.3226C24.0325 22.2619 23.8862 22.2778 23.7876 22.366L22.3841 23.6218C22.2628 23.7304 22.0769 23.7223 21.9654 23.6036L19.442 20.9174C19.3335 20.8018 19.3336 20.6218 19.4422 20.5064L20.6119 19.2636C20.6976 19.1725 20.7179 19.0379 20.6645 18.9247C20.5802 18.7459 20.4557 18.4737 20.378 18.2652C20.2953 18.0431 20.2123 17.7673 20.1577 17.5697C20.1187 17.4287 19.9887 17.3242 19.8424 17.3242H18.1374C17.9717 17.3242 17.8374 17.1899 17.8374 17.0242V13.2957C17.8374 13.1301 17.9717 12.9957 18.1374 12.9957H19.6947C19.8222 12.9957 19.9355 12.9152 19.9795 12.7956C20.167 12.2863 20.4451 11.6105 20.6348 11.2339C20.6991 11.1062 20.6817 10.9469 20.5805 10.8458ZM28 19.8526C30.6696 19.8526 32.8338 17.6884 32.8338 15.0188C32.8338 12.3492 30.6696 10.185 28 10.185C25.3304 10.185 23.1662 12.3492 23.1662 15.0188C23.1662 17.6884 25.3304 19.8526 28 19.8526Z" fill="#600DFF"></path><path d="M19.4545 9.71971L18.7474 10.4268L18.7474 10.4268L19.4545 9.71971ZM20.5805 10.8458L21.2876 10.1387L21.2876 10.1387L20.5805 10.8458ZM19.448 9.30218L18.7191 8.6175L18.7191 8.6175L19.448 9.30218ZM21.9603 6.62773L22.6892 7.31241L22.6892 7.31241L21.9603 6.62773ZM22.3846 6.61468L21.6992 7.34288L21.6992 7.34288L22.3846 6.61468ZM23.6225 7.77973L24.3078 7.05153L24.3078 7.05153L23.6225 7.77973ZM23.9469 7.83862L23.5686 6.91292V6.91292L23.9469 7.83862ZM25.422 7.31796L25.7046 8.27721L25.7046 8.27721L25.422 7.31796ZM30.2637 7.04919L30.6403 6.12282L30.6403 6.12282L30.2637 7.04919ZM31.7504 7.762L32.2123 6.8751L32.2123 6.8751L31.7504 7.762ZM32.0462 7.91444L32.4934 7.02001L32.4934 7.02001L32.0462 7.91444ZM33.4428 6.6225L34.1646 7.31465V7.31464L33.4428 6.6225ZM33.8641 6.60721L34.5367 5.86727L34.5367 5.86727L33.8641 6.60721ZM36.5249 9.02614L37.1975 8.2862L37.1975 8.2862L36.5249 9.02614ZM36.5412 9.4541L37.2682 10.1407L37.2682 10.1407L36.5412 9.4541ZM35.3042 10.7639L34.5772 10.0772L34.5772 10.0772L35.3042 10.7639ZM35.2595 11.1199L36.1389 10.6439L36.1389 10.6439L35.2595 11.1199ZM35.9441 12.7477L34.977 13.0019L34.977 13.0019L35.9441 12.7477ZM35.9295 17.3514L34.9857 17.0208V17.0208L35.9295 17.3514ZM35.2808 18.7149L36.143 19.2214L35.2808 18.7149ZM35.3253 19.0978L34.6182 19.8049L34.6182 19.8049L35.3253 19.0978ZM36.724 20.4965L36.0169 21.2036L36.0169 21.2036L36.724 20.4965ZM36.7208 20.9239L37.4173 21.6414V21.6414L36.7208 20.9239ZM33.9521 23.6112L34.6485 24.3287L34.6485 24.3287L33.9521 23.6112ZM33.531 23.608L34.2381 22.9009L33.531 23.608ZM32.286 22.363L31.5789 23.0701H31.5789L32.286 22.363ZM31.9518 22.3009L32.3557 23.2157L31.9518 22.3009ZM30.3188 22.9184L30.5578 23.8894L30.5578 23.8894L30.3188 22.9184ZM25.6436 22.9899L25.281 23.9218H25.281L25.6436 22.9899ZM24.8948 22.6878L25.3007 21.7739L25.3007 21.7739L24.8948 22.6878ZM24.1501 22.3226L24.6092 21.4342L24.6092 21.4342L24.1501 22.3226ZM23.7876 22.366L23.1208 21.6208L23.7876 22.366ZM22.3841 23.6218L23.0509 24.367L23.0509 24.367L22.3841 23.6218ZM21.9654 23.6036L21.2366 24.2883L21.2366 24.2883L21.9654 23.6036ZM19.442 20.9174L18.7132 21.602L18.7132 21.602L19.442 20.9174ZM19.4422 20.5064L18.714 19.821L18.714 19.821L19.4422 20.5064ZM20.6119 19.2636L21.3401 19.949L21.3401 19.949L20.6119 19.2636ZM20.6645 18.9247L21.5689 18.4981L21.5689 18.4981L20.6645 18.9247ZM20.378 18.2652L19.441 18.6144L19.441 18.6144L20.378 18.2652ZM20.1577 17.5697L21.1216 17.3034L20.1577 17.5697ZM19.9795 12.7956L19.0411 12.4501L19.0411 12.4501L19.9795 12.7956ZM20.6348 11.2339L19.7417 10.7841L19.7417 10.7841L20.6348 11.2339ZM18.7474 10.4268L19.8734 11.5529L21.2876 10.1387L20.1616 9.01261L18.7474 10.4268ZM18.7191 8.6175C18.2384 9.12927 18.2509 9.93032 18.7474 10.4268L20.1616 9.01261C20.4289 9.27995 20.4357 9.71129 20.1768 9.98685L18.7191 8.6175ZM21.2315 5.94306L18.7191 8.6175L20.1768 9.98685L22.6892 7.31241L21.2315 5.94306ZM23.0699 5.88648C22.5468 5.39407 21.7234 5.41942 21.2315 5.94306L22.6892 7.31241C22.4243 7.59437 21.9809 7.60801 21.6992 7.34288L23.0699 5.88648ZM24.3078 7.05153L23.0699 5.88647L21.6992 7.34288L22.9371 8.50793L24.3078 7.05153ZM23.5686 6.91292C23.8122 6.81339 24.1028 6.8586 24.3078 7.05153L22.9371 8.50793C23.3159 8.86448 23.8605 8.95416 24.3251 8.76432L23.5686 6.91292ZM25.1394 6.35871C24.7247 6.48088 24.111 6.69129 23.5686 6.91292L24.3251 8.76432C24.8037 8.56878 25.3534 8.38064 25.7046 8.27721L25.1394 6.35871ZM24.6475 7.02152C24.6475 6.69645 24.8649 6.43959 25.1394 6.35871L25.7046 8.27721C26.2432 8.11854 26.6475 7.62191 26.6475 7.02152H24.6475ZM24.6475 5.1092V7.02152H26.6475V5.1092H24.6475ZM25.9475 3.8092C25.2296 3.8092 24.6475 4.39124 24.6475 5.1092H26.6475C26.6475 5.4958 26.3341 5.8092 25.9475 5.8092V3.8092ZM29.7701 3.8092H25.9475V5.8092H29.7701V3.8092ZM31.0701 5.1092C31.0701 4.39123 30.4881 3.8092 29.7701 3.8092V5.8092C29.3835 5.8092 29.0701 5.4958 29.0701 5.1092H31.0701ZM31.0701 6.76556V5.1092H29.0701V6.76556H31.0701ZM30.6403 6.12282C30.8875 6.22329 31.0701 6.46896 31.0701 6.76556H29.0701C29.0701 7.31226 29.4082 7.7809 29.8871 7.97557L30.6403 6.12282ZM32.2123 6.8751C31.8315 6.67673 31.2293 6.36225 30.6403 6.12282L29.8871 7.97557C30.3748 8.17385 30.8951 8.44402 31.2884 8.6489L32.2123 6.8751ZM32.4934 7.02001C32.4231 6.98484 32.3311 6.93698 32.2123 6.8751L31.2884 8.6489C31.4017 8.70789 31.5105 8.76461 31.599 8.80887L32.4934 7.02001ZM32.7211 5.93035C32.4612 6.20136 32.1448 6.52247 31.8881 6.76661C31.7571 6.89128 31.6571 6.98093 31.5943 7.03202C31.5587 7.06099 31.5614 7.05582 31.5905 7.03823C31.6013 7.03167 31.659 6.99639 31.7475 6.96627C31.7927 6.95086 31.8773 6.92585 31.988 6.9183C32.0968 6.91088 32.2868 6.9167 32.4934 7.02001L31.599 8.80887C31.99 9.00435 32.3439 8.87596 32.3922 8.8595C32.5016 8.82226 32.5853 8.77394 32.6266 8.74893C32.7165 8.69444 32.7983 8.63076 32.8562 8.58371C32.9803 8.48274 33.125 8.35033 33.2665 8.2158C33.5548 7.94155 33.895 7.59579 34.1646 7.31465L32.7211 5.93035ZM34.5367 5.86727C34.0108 5.38919 33.2058 5.42483 32.7211 5.93035L34.1646 7.31464C33.9064 7.58391 33.4751 7.60506 33.1914 7.34716L34.5367 5.86727ZM37.1975 8.2862L34.5367 5.86727L33.1914 7.34715L35.8522 9.76608L37.1975 8.2862ZM37.2682 10.1407C37.7678 9.61172 37.736 8.77567 37.1975 8.2862L35.8522 9.76607C35.5623 9.50251 35.5451 9.05233 35.8142 8.76748L37.2682 10.1407ZM36.0312 11.4505L37.2682 10.1407L35.8142 8.76748L34.5772 10.0772L36.0312 11.4505ZM36.1389 10.6439C36.2753 10.8959 36.246 11.223 36.0312 11.4505L34.5772 10.0772C34.1809 10.4968 34.1179 11.1117 34.3801 11.596L36.1389 10.6439ZM36.9113 12.4935C36.7554 11.9005 36.4447 11.2088 36.1389 10.6439L34.3801 11.596C34.6473 12.0895 34.8777 12.6241 34.977 13.0019L36.9113 12.4935ZM36.2525 11.9957C36.6082 11.9957 36.8457 12.2441 36.9113 12.4935L34.977 13.0019C35.1171 13.535 35.6034 13.9957 36.2525 13.9957V11.9957ZM37.8626 11.9957H36.2525V13.9957H37.8626V11.9957ZM39.1626 13.2957C39.1626 12.5778 38.5805 11.9957 37.8626 11.9957V13.9957C37.476 13.9957 37.1626 13.6823 37.1626 13.2957H39.1626ZM39.1626 16.8361V13.2957H37.1626V16.8361H39.1626ZM37.8626 18.136C38.5805 18.136 39.1626 17.554 39.1626 16.8361H37.1626C37.1626 16.4494 37.476 16.136 37.8626 16.136V18.136ZM36.2246 18.136H37.8626V16.136H36.2246V18.136ZM36.8732 17.6821C36.7876 17.9264 36.5466 18.136 36.2246 18.136V16.136C35.6347 16.136 35.1599 16.5237 34.9857 17.0208L36.8732 17.6821ZM36.143 19.2214C36.3542 18.8619 36.6722 18.256 36.8732 17.6821L34.9857 17.0208C34.8437 17.4261 34.5948 17.9083 34.4186 18.2084L36.143 19.2214ZM36.0325 18.3907C36.2722 18.6304 36.2875 18.9755 36.143 19.2214L34.4186 18.2084C34.1292 18.7009 34.1763 19.363 34.6182 19.8049L36.0325 18.3907ZM37.4311 19.7893L36.0325 18.3907L34.6182 19.8049L36.0169 21.2036L37.4311 19.7893ZM37.4173 21.6414C37.9379 21.1361 37.9441 20.3024 37.4311 19.7893L36.0169 21.2036C35.7406 20.9273 35.744 20.4784 36.0243 20.2063L37.4173 21.6414ZM34.6485 24.3287L37.4173 21.6414L36.0243 20.2063L33.2556 22.8936L34.6485 24.3287ZM32.8239 24.3151C33.3262 24.8175 34.1388 24.8235 34.6485 24.3287L33.2556 22.8936C33.5301 22.6272 33.9676 22.6304 34.2381 22.9009L32.8239 24.3151ZM31.5789 23.0701L32.8239 24.3151L34.2381 22.9009L32.9931 21.6559L31.5789 23.0701ZM32.3557 23.2157C32.0935 23.3315 31.7846 23.2758 31.5789 23.0701L32.9931 21.6559C32.6119 21.2747 32.0372 21.17 31.5479 21.3861L32.3557 23.2157ZM30.5578 23.8894C31.119 23.7513 31.725 23.4942 32.3557 23.2157L31.5479 21.3861C30.8988 21.6727 30.446 21.8572 30.0798 21.9474L30.5578 23.8894ZM31.0701 23.2243C31.0701 23.5799 30.8201 23.8248 30.5578 23.8894L30.0798 21.9474C29.5327 22.082 29.0701 22.5754 29.0701 23.2243H31.0701ZM31.0701 24.9285V23.2243H29.0701V24.9285H31.0701ZM29.7701 26.2285C30.4881 26.2285 31.0701 25.6465 31.0701 24.9285H29.0701C29.0701 24.5419 29.3836 24.2285 29.7701 24.2285V26.2285ZM26.1357 26.2285H29.7701V24.2285H26.1357V26.2285ZM24.8357 24.9285C24.8357 25.6465 25.4178 26.2285 26.1357 26.2285V24.2285C26.5223 24.2285 26.8357 24.5419 26.8357 24.9285H24.8357ZM24.8357 23.2704V24.9285H26.8357V23.2704H24.8357ZM25.281 23.9218C25.0138 23.8179 24.8357 23.56 24.8357 23.2704H26.8357C26.8357 22.7324 26.5049 22.252 26.0062 22.0579L25.281 23.9218ZM24.4889 23.6018C24.6812 23.6872 25.0655 23.838 25.281 23.9218L26.0062 22.0579C25.775 21.968 25.4405 21.8361 25.3007 21.7739L24.4889 23.6018ZM23.6911 23.211C23.9176 23.3281 24.2852 23.5113 24.4889 23.6018L25.3007 21.7739C25.1535 21.7086 24.8291 21.5479 24.6092 21.4342L23.6911 23.211ZM24.4544 23.1113C24.2313 23.3109 23.9269 23.3329 23.6911 23.211L24.6092 21.4342C24.1381 21.1908 23.5412 21.2446 23.1208 21.6208L24.4544 23.1113ZM23.0509 24.367L24.4544 23.1113L23.1208 21.6208L21.7173 22.8765L23.0509 24.367ZM21.2366 24.2883C21.7198 24.8026 22.525 24.8376 23.0509 24.367L21.7173 22.8765C22.0005 22.6232 22.4341 22.642 22.6943 22.9189L21.2366 24.2883ZM18.7132 21.602L21.2366 24.2883L22.6943 22.9189L20.1709 20.2327L18.7132 21.602ZM18.714 19.821C18.2432 20.3212 18.2428 21.1014 18.7132 21.602L20.1709 20.2327C20.4241 20.5023 20.4239 20.9224 20.1704 21.1917L18.714 19.821ZM19.8837 18.5782L18.714 19.821L20.1704 21.1917L21.3401 19.949L19.8837 18.5782ZM19.7601 19.3513C19.6412 19.0993 19.6829 18.7916 19.8837 18.5782L21.3401 19.949C21.7124 19.5534 21.7945 18.9764 21.5689 18.4981L19.7601 19.3513ZM19.441 18.6144C19.5347 18.8658 19.6751 19.1712 19.7601 19.3513L21.5689 18.4981C21.4852 18.3206 21.3768 18.0816 21.3151 17.916L19.441 18.6144ZM19.1938 17.8361C19.252 18.0466 19.3438 18.3536 19.441 18.6144L21.3151 17.9161C21.2468 17.7326 21.1726 17.488 21.1216 17.3034L19.1938 17.8361ZM19.8424 18.3242C19.5133 18.3242 19.2677 18.1033 19.1938 17.8361L21.1216 17.3034C20.9698 16.7542 20.4641 16.3242 19.8424 16.3242V18.3242ZM18.1374 18.3242H19.8424V16.3242H18.1374V18.3242ZM16.8374 17.0242C16.8374 17.7422 17.4194 18.3242 18.1374 18.3242V16.3242C18.524 16.3242 18.8374 16.6376 18.8374 17.0242H16.8374ZM16.8374 13.2957V17.0242H18.8374V13.2957H16.8374ZM18.1374 11.9957C17.4194 11.9957 16.8374 12.5778 16.8374 13.2957H18.8374C18.8374 13.6823 18.524 13.9957 18.1374 13.9957V11.9957ZM19.6947 11.9957H18.1374V13.9957H19.6947V11.9957ZM19.0411 12.4501C19.139 12.1841 19.3951 11.9957 19.6947 11.9957V13.9957C20.2493 13.9957 20.732 13.6464 20.918 13.1411L19.0411 12.4501ZM19.7417 10.7841C19.5274 11.2097 19.2342 11.9255 19.0411 12.4501L20.918 13.1411C21.0999 12.647 21.3629 12.0114 21.5279 11.6838L19.7417 10.7841ZM19.8734 11.5529C19.6363 11.3157 19.6339 10.9982 19.7417 10.7841L21.5279 11.6838C21.7644 11.2143 21.727 10.5781 21.2876 10.1387L19.8734 11.5529ZM31.8338 15.0188C31.8338 17.1361 30.1173 18.8526 28 18.8526V20.8526C31.2219 20.8526 33.8338 18.2407 33.8338 15.0188H31.8338ZM28 11.185C30.1173 11.185 31.8338 12.9015 31.8338 15.0188H33.8338C33.8338 11.7969 31.2219 9.18501 28 9.18501V11.185ZM24.1662 15.0188C24.1662 12.9015 25.8827 11.185 28 11.185V9.18501C24.7781 9.18501 22.1662 11.7969 22.1662 15.0188H24.1662ZM28 18.8526C25.8827 18.8526 24.1662 17.1361 24.1662 15.0188H22.1662C22.1662 18.2407 24.7781 20.8526 28 20.8526V18.8526Z" fill="#600DFF" mask="url(#path-4-inside-1_7786_142406)"></path><path d="M16.7002 6.67712C15.5723 7.52313 13.3165 10.4457 13.3164 15.3678" stroke="#151417" stroke-linecap="round"></path><path d="M38.876 23.2943C39.7434 22.3138 41.5914 19.7644 42.0439 17.4113" stroke="#151417" stroke-linecap="round"></path></svg> 