<svg width="150" height="50" viewBox="0 0 150 50" fill="none" xmlns="http://www.w3.org/2000/svg">
<g clip-path="url(#clip0_6145_11293)">
<path d="M40.7899 39.0761H39.7187C36.4314 39.0761 33.1441 39.0761 29.8569 39.0761C25.7069 39.0761 22.8975 36.99 21.5793 32.9304C21.5409 32.8145 21.5088 32.6953 21.4286 32.4172C21.3035 32.7251 21.2201 32.9039 21.1592 33.0927C19.8603 36.99 17.0413 39.0761 13.0709 39.0761C9.68742 39.0761 6.30072 39.0761 2.91723 39.0761H2V35.7847H15.0112C15.0272 35.7185 15.0465 35.6556 15.0625 35.5893C11.2974 33.3576 7.52904 31.1258 3.74146 28.8807C4.29949 27.8907 4.82225 26.9668 5.35783 26.0198C9.1839 28.2814 12.949 30.5066 16.7142 32.7317C16.7495 32.6953 16.7847 32.6589 16.8232 32.6258C14.6488 28.7615 12.4712 24.8973 10.2679 20.9801C11.198 20.4304 12.0959 19.9006 13.0677 19.3244C15.2742 23.2417 17.4582 27.1125 19.7417 31.1655V17.5132H22.9905V30.8774C23.0482 30.8973 23.1027 30.9138 23.1604 30.9337C25.3349 27.0794 27.5125 23.2218 29.719 19.3145C30.6875 19.8874 31.5823 20.4172 32.5188 20.9701C30.3219 24.8708 28.1507 28.7284 25.9795 32.5827C26.0083 32.6291 26.0404 32.6754 26.0693 32.7218C29.8344 30.4999 33.5996 28.2748 37.4288 26.0132C37.9644 26.9569 38.4872 27.884 39.0452 28.8741C35.2737 31.1092 31.5214 33.3311 27.7658 35.5562C27.7819 35.6158 27.7979 35.6721 27.8107 35.7317H40.7867V39.0827L40.7899 39.0761Z" fill="black"/>
<path d="M113.607 39.0729C109.063 39.0663 105.685 35.6093 105.698 30.9703C105.711 26.4438 109.165 23.01 113.69 23.0299C118.145 23.0497 121.58 26.5299 121.577 31.0199C121.573 35.6259 118.155 39.0795 113.607 39.0729ZM113.629 26.2948C110.99 26.2948 109.04 28.318 109.043 31.063C109.043 33.7815 111.038 35.8444 113.649 35.8378C116.227 35.8279 118.18 33.7848 118.184 31.0795C118.19 28.308 116.272 26.2948 113.626 26.2948H113.629Z" fill="black"/>
<path d="M140.646 34.6293C141.553 31.9671 142.394 29.4969 143.237 27.0234C143.574 26.0333 143.891 25.03 144.267 24.0532C144.35 23.8346 144.623 23.5532 144.821 23.5433C145.838 23.4903 146.858 23.5201 148.003 23.5201C147.891 23.8711 147.814 24.1459 147.714 24.4108C145.691 29.6956 143.625 34.9605 141.656 40.2651C140.604 43.0995 138.462 44.8048 134.665 44.679V41.5399C134.924 41.5135 135.162 41.4737 135.402 41.4671C137.096 41.4174 138.032 40.3313 138.667 38.8843C138.766 38.6591 138.673 38.2982 138.574 38.0399C136.913 33.6029 135.235 29.1757 133.565 24.7419C133.427 24.3744 133.292 24.0068 133.112 23.5234C134.331 23.5234 135.441 23.5002 136.544 23.5499C136.704 23.5565 136.919 23.8843 136.996 24.1062C138.16 27.4505 139.305 30.8015 140.457 34.1525C140.489 34.2419 140.527 34.328 140.652 34.6293H140.646Z" fill="black"/>
<path d="M71.5489 39.0267H68.3482V37.2452C68.0243 37.5631 67.8447 37.7386 67.6651 37.9141C65.2117 40.285 60.6608 39.8777 58.9161 37.0234C58.3838 36.1525 58.0149 35.0267 57.9765 34.0002C57.8578 30.6923 57.9316 27.3744 57.9348 24.0631C57.9348 23.9936 57.9668 23.924 57.9925 23.8247H61.1707C61.1707 24.136 61.1707 24.4075 61.1707 24.6757C61.1707 27.285 61.1547 29.8976 61.1771 32.5068C61.1932 34.2916 62.0078 35.5134 63.4317 35.9969C64.9519 36.5134 66.7703 36.0697 67.5721 34.8048C67.9762 34.1724 68.2584 33.338 68.2809 32.583C68.3643 29.9505 68.3129 27.3115 68.3129 24.679C68.3129 24.4075 68.3129 24.1393 68.3129 23.8247H71.5489V39.0234V39.0267Z" fill="black"/>
<path d="M49.6865 26.884H47.5986V23.7714H49.7314C49.6929 21.5727 49.555 19.3641 51.5722 17.9601C53.025 16.9502 54.6799 16.9502 56.3925 17.0264V20.1257C55.3374 20.1919 54.0417 19.9204 53.4291 21.1224C53.0603 21.8475 53.0571 22.7747 52.8647 23.7316H56.3957V26.8277C55.5522 26.8277 54.712 26.8707 53.8749 26.8144C53.2143 26.7714 53.0026 26.9734 53.0058 27.682C53.0379 31.5727 53.0507 35.4667 52.9994 39.3575C52.9866 40.3674 52.8775 41.4369 52.5279 42.3674C51.7294 44.4899 49.8949 44.9038 47.8809 44.9999V41.9237C49.3593 41.5429 49.7089 41.1257 49.7153 39.5263C49.7346 35.4601 49.7249 31.3906 49.7249 27.3244C49.7249 27.2052 49.7025 27.0826 49.6865 26.8873V26.884Z" fill="black"/>
<path d="M83.9956 34.4999H87.1707C87.7447 36.3045 90.2719 37.0562 91.728 35.8707C92.5586 35.1952 92.5201 34.1025 91.5516 33.5959C90.7594 33.182 89.871 32.9701 89.0276 32.6555C88.0943 32.3078 87.1354 32.0164 86.2438 31.5727C83.3157 30.1224 83.7615 26.0131 85.8525 24.4635C88.0238 22.8575 91.7055 22.8906 93.803 24.5827C94.8292 25.4105 95.3808 26.6058 95.291 27.9403C94.3161 27.9403 93.3315 27.9535 92.3437 27.9204C92.2251 27.9171 92.0423 27.6754 92.0134 27.5197C91.7215 25.9436 88.601 25.7317 87.7287 26.9005C87.2605 27.5297 87.3214 28.2913 88.0366 28.7019C88.7454 29.1092 89.5471 29.3575 90.32 29.639C91.1635 29.9502 92.0423 30.1688 92.8697 30.5164C94.4636 31.1886 95.5604 32.2913 95.6021 34.2085C95.647 36.288 94.749 37.8111 92.9338 38.639C90.8588 39.586 88.7197 39.5462 86.6351 38.6224C84.9193 37.8608 83.8609 36.1654 83.9924 34.4866L83.9956 34.4999Z" fill="black"/>
<path d="M98.6778 26.8212H96.4648V23.7715C96.8561 23.7715 97.2153 23.7782 97.5745 23.7715C98.4436 23.755 98.8189 23.3808 98.8317 22.4901C98.8445 21.5662 98.8317 20.6424 98.8317 19.6821H101.917V23.7517H105.23V26.7881H101.936C101.92 27.1424 101.901 27.4073 101.901 27.6722C101.901 29.6291 101.901 31.5861 101.901 33.5431C101.901 35.4305 102.453 35.9901 104.306 35.9901C104.595 35.9901 104.883 35.9901 105.233 35.9901V39.0431C103.857 39.1027 102.501 39.1656 101.199 38.649C99.6238 38.0265 98.7002 36.5828 98.6842 34.6987C98.6649 32.3642 98.6778 30.0298 98.6778 27.6987C98.6778 27.4305 98.6778 27.1623 98.6778 26.8212Z" fill="black"/>
<path d="M79.3291 17.4868H82.5298C82.5426 17.7583 82.5651 18.0001 82.5651 18.2418C82.5651 24.9173 82.5554 31.5928 82.5843 38.2683C82.5843 38.9636 82.3662 39.1259 81.7505 39.0862C80.9583 39.0365 80.1597 39.0729 79.3291 39.0729V17.4868Z" fill="black"/>
<path d="M126.301 39.0297H123.106V23.8277H126.301V26.0363C126.657 25.725 126.993 25.4535 127.301 25.1522C128.356 24.129 129.62 23.6124 131.05 23.5396C131.246 23.5297 131.57 23.6621 131.634 23.8144C132.054 24.8177 132.417 25.8475 132.811 26.8972C131.855 26.9634 130.98 26.9701 130.117 27.0893C127.782 27.4104 126.333 29.1058 126.307 31.5429C126.281 33.7515 126.301 35.9601 126.301 38.1687C126.301 38.4436 126.301 38.7151 126.301 39.0297Z" fill="black"/>
<path d="M76.9917 39.0298H73.8584V17.5H76.9917V39.0298Z" fill="black"/>
</g>
<defs>
<clipPath id="clip0_6145_11293">
<rect width="146" height="28" fill="white" transform="translate(2 17)"/>
</clipPath>
</defs>
</svg>
