<svg width="20" height="20" fill="none" xmlns="http://www.w3.org/2000/svg"><mask id="mask0_12678_2976" style="mask-type:alpha" maskUnits="userSpaceOnUse" x="10" y="4" width="1" height="1"><path d="M10.75 4.014h.134v.063h-.134v-.063z" fill="#fff"/></mask><g mask="url(#mask0_12678_2976)"><path fill-rule="evenodd" clip-rule="evenodd" d="M10.884 4.06l-.102.003c-.011 0-.024.008-.032-.041h.134v.039z" fill="#151417"/></g><mask id="mask1_12678_2976" style="mask-type:alpha" maskUnits="userSpaceOnUse" x="3" y="10" width="1" height="1"><path d="M3.44 10.459h.067v.134h-.068v-.134z" fill="#fff"/></mask><g mask="url(#mask1_12678_2976)"><path fill-rule="evenodd" clip-rule="evenodd" d="M3.445 10.459l.049.002v.096c0 .013.01.027-.049.036v-.134z" fill="#151417"/></g><mask id="mask2_12678_2976" style="mask-type:alpha" maskUnits="userSpaceOnUse" x="10" y="18" width="1" height="1"><path d="M10.75 18.21h.138v.066h-.138v-.066z" fill="#fff"/></mask><g mask="url(#mask2_12678_2976)"><path fill-rule="evenodd" clip-rule="evenodd" d="M10.75 18.268c.017-.07.039-.036.058-.04.026-.005.051 0 .077.001.002.01.003.019.002.027l-.003.012h-.134z" fill="#151417"/></g><mask id="mask3_12678_2976" style="mask-type:alpha" maskUnits="userSpaceOnUse" x="10" y="4" width="1" height="1"><path d="M10.32 4.012h.125v.066h-.125v-.066z" fill="#fff"/></mask><g mask="url(#mask3_12678_2976)"><path fill-rule="evenodd" clip-rule="evenodd" d="M10.32 4.054l.001-.034h.124c-.01.068-.027.037-.04.04-.028.002-.056-.004-.085-.006z" fill="#151417"/></g><mask id="mask4_12678_2976" style="mask-type:alpha" maskUnits="userSpaceOnUse" x="3" y="11" width="1" height="1"><path d="M3.44 11.323h.066v.123H3.44v-.123z" fill="#fff"/></mask><g mask="url(#mask4_12678_2976)"><path fill-rule="evenodd" clip-rule="evenodd" d="M3.488 11.446h-.043v-.123c.052.003.048.014.048.024 0 .033-.003.066-.005.099z" fill="#151417"/></g><mask id="mask5_12678_2976" style="mask-type:alpha" maskUnits="userSpaceOnUse" x="10" y="18" width="1" height="1"><path d="M10.318 18.212h.127v.063h-.127v-.063z" fill="#fff"/></mask><g mask="url(#mask5_12678_2976)"><path fill-rule="evenodd" clip-rule="evenodd" d="M10.32 18.232l.094-.006c.011 0 .024-.005.031.04h-.123a.047.047 0 01-.004-.02c0-.01.001-.014.002-.014z" fill="#151417"/></g><mask id="mask6_12678_2976" style="mask-type:alpha" maskUnits="userSpaceOnUse" x="10" y="18" width="1" height="1"><path d="M10.305 18.213h.103v.062h-.103v-.062z" fill="#fff"/></mask><g mask="url(#mask6_12678_2976)"><path fill-rule="evenodd" clip-rule="evenodd" d="M10.406 18.231c0 .012 0 .023.002.035h-.103v-.038l.1.003z" fill="#151417"/></g><mask id="mask7_12678_2976" style="mask-type:alpha" maskUnits="userSpaceOnUse" x="10" y="18" width="1" height="1"><path d="M10.732 18.212h.094v.063h-.094v-.063z" fill="#fff"/></mask><g mask="url(#mask7_12678_2976)"><path fill-rule="evenodd" clip-rule="evenodd" d="M10.733 18.266v-.04l.093.005v.035h-.093z" fill="#151417"/></g><mask id="mask8_12678_2976" style="mask-type:alpha" maskUnits="userSpaceOnUse" x="3" y="4" width="12" height="15"><path d="M3 4h11.425v14.154H3V4z" fill="#fff"/></mask><g mask="url(#mask8_12678_2976)"><path fill-rule="evenodd" clip-rule="evenodd" d="M10.539 4.007c.356.017.71.059 1.064.129l-.048.103-.242.495-.35.721-.254.524-.348.718-.15.311c-.01.023-.024.03-.049.03a4.136 4.136 0 00-2.653.987 4.082 4.082 0 00-1.231 1.843 3.788 3.788 0 00-.181.975 3.973 3.973 0 00.7 2.5 4.126 4.126 0 004.338 1.67 4.151 4.151 0 001.715-.86c.014-.012.023-.012.033.006.032.057.066.114.1.17l.583.995.422.72.426.726c.014.024.02.027-.01.049a7.203 7.203 0 01-3.706 1.322c-.029.002-.058.002-.087.006-.024.006-.048.001-.071.003-.035.002-.07-.005-.105.004h-.487c-.032-.01-.064-.002-.096-.004h-.074a4.82 4.82 0 01-.662-.06 7.168 7.168 0 01-2.343-.771 7.036 7.036 0 01-1.464-1.03 7.097 7.097 0 01-1.64-2.206 7.086 7.086 0 01-.649-2.387c-.009-.096-.008-.191-.016-.286-.002-.03.005-.06-.004-.09v-.48c.01-.03.002-.063.004-.095.01-.057.004-.115.008-.173a6.84 6.84 0 01.66-2.503A7.05 7.05 0 014.79 6.393a6.4 6.4 0 01.387-.402 7.447 7.447 0 011.535-1.12A7.28 7.28 0 019.53 4.02a5.08 5.08 0 01.326-.016c.03-.002.062.005.092-.004h.487c.034.01.07-.002.104.007z" fill="#151417"/></g><mask id="mask9_12678_2976" style="mask-type:alpha" maskUnits="userSpaceOnUse" x="9" y="10" width="9" height="7"><path d="M9.89 10.063H17v6.07H9.89v-6.07z" fill="#fff"/></mask><g mask="url(#mask9_12678_2976)"><path fill-rule="evenodd" clip-rule="evenodd" d="M17 13.114c-.032.038-.054.084-.078.128-.22.38-.444.758-.666 1.138l-.519.886-.498.848c-.004.007-.006.015-.015.019-.014-.009-.02-.024-.027-.037l-.53-.907-.775-1.32c-.09-.156-.182-.31-.273-.466a13.59 13.59 0 01-.155-.27c-.015-.025-.031-.034-.062-.034H9.893c-.006-.012.002-.02.007-.029l.848-1.441.64-1.094.263-.448c.01-.019.023-.027.044-.024h3.486c.034 0 .05.01.067.039l.491.839.612 1.042c.158.269.315.539.474.807l.172.291.003.001v.031z" fill="#151417"/></g><mask id="mask10_12678_2976" style="mask-type:alpha" maskUnits="userSpaceOnUse" x="10" y="4" width="1" height="1"><path d="M10.435 4.006h.105v.05h-.104v-.05z" fill="#fff"/></mask><g mask="url(#mask10_12678_2976)"><path fill-rule="evenodd" clip-rule="evenodd" d="M10.54 4.042l-.08.001c-.008 0-.018.006-.025-.031h.105v.03z" fill="#151417"/></g><mask id="mask11_12678_2976" style="mask-type:alpha" maskUnits="userSpaceOnUse" x="3" y="10" width="1" height="1"><path d="M3.006 10.739h.052v.103h-.052v-.103z" fill="#fff"/></mask><g mask="url(#mask11_12678_2976)"><path fill-rule="evenodd" clip-rule="evenodd" d="M3.012 10.739l.038.001v.074c0 .01.007.021-.038.028v-.103z" fill="#151417"/></g><mask id="mask12_12678_2976" style="mask-type:alpha" maskUnits="userSpaceOnUse" x="10" y="18" width="1" height="1"><path d="M10.435 18.147h.108v.05h-.107v-.05z" fill="#fff"/></mask><g mask="url(#mask12_12678_2976)"><path fill-rule="evenodd" clip-rule="evenodd" d="M10.435 18.191c.014-.054.03-.027.046-.03.02-.004.04 0 .06 0a.049.049 0 01.002.02c-.001.007-.002.01-.003.01h-.104z" fill="#151417"/></g><mask id="mask13_12678_2976" style="mask-type:alpha" maskUnits="userSpaceOnUse" x="9" y="4" width="1" height="1"><path d="M9.852 4.005h.097v.05h-.097v-.05z" fill="#fff"/></mask><g mask="url(#mask13_12678_2976)"><path fill-rule="evenodd" clip-rule="evenodd" d="M9.852 4.038v-.026h.097c-.008.052-.02.029-.031.03-.022.003-.044-.002-.066-.004z" fill="#151417"/></g><mask id="mask14_12678_2976" style="mask-type:alpha" maskUnits="userSpaceOnUse" x="3" y="11" width="1" height="1"><path d="M3.004 11.32h.052v.096h-.052v-.095z" fill="#fff"/></mask><g mask="url(#mask14_12678_2976)"><path fill-rule="evenodd" clip-rule="evenodd" d="M3.043 11.415H3.01v-.094c.04.002.037.01.037.018 0 .026-.003.051-.004.076z" fill="#151417"/></g><mask id="mask15_12678_2976" style="mask-type:alpha" maskUnits="userSpaceOnUse" x="9" y="18" width="1" height="1"><path d="M9.848 18.148h.099v.049h-.1v-.05z" fill="#fff"/></mask><g mask="url(#mask15_12678_2976)"><path fill-rule="evenodd" clip-rule="evenodd" d="M9.849 18.163l.073-.005c.01 0 .019-.003.025.032H9.85a.035.035 0 01-.002-.016v-.01z" fill="#151417"/></g><mask id="mask16_12678_2976" style="mask-type:alpha" maskUnits="userSpaceOnUse" x="9" y="18" width="1" height="1"><path d="M9.771 18.149h.081v.047h-.08v-.047z" fill="#fff"/></mask><g mask="url(#mask16_12678_2976)"><path fill-rule="evenodd" clip-rule="evenodd" d="M9.85 18.162l.002.027h-.08v-.03l.078.003z" fill="#151417"/></g><mask id="mask17_12678_2976" style="mask-type:alpha" maskUnits="userSpaceOnUse" x="10" y="18" width="1" height="1"><path d="M10.537 18.148h.073v.048h-.073v-.048z" fill="#fff"/></mask><g mask="url(#mask17_12678_2976)"><path fill-rule="evenodd" clip-rule="evenodd" d="M10.537 18.19l.001-.03.072.002a.6.6 0 010 .027h-.073z" fill="#151417"/></g><path fill-rule="evenodd" clip-rule="evenodd" d="M13.364 8.182h2.1c.055 0 .047-.005.047.045v.806c.004.021-.007.027-.027.026h-3.178c-.06 0-.05.006-.051-.05 0-.065-.002-.13 0-.196a3.41 3.41 0 01.044-.463c.028-.163.069-.322.129-.476a1.81 1.81 0 01.324-.54A2.72 2.72 0 0113.4 6.8c.164-.1.335-.186.509-.268a2.64 2.64 0 00.283-.151c.09-.057.175-.12.243-.2a.503.503 0 00.12-.286.431.431 0 00-.246-.433.807.807 0 00-.305-.08 1.108 1.108 0 00-.442.056 1 1 0 00-.35.206 1.43 1.43 0 00-.315.42c-.004.01-.007.02-.016.027-.013 0-.018-.01-.025-.017l-.582-.572c-.027-.027-.024-.022-.008-.053.076-.15.173-.284.294-.403.192-.188.414-.33.666-.426a1.95 1.95 0 01.726-.116 2 2 0 01.81.183c.2.096.378.22.517.392.125.153.2.329.232.522.02.118.023.237.015.356-.021.29-.127.545-.323.763-.107.119-.231.22-.364.309a3.85 3.85 0 01-.409.235c-.18.092-.364.177-.54.276a1.38 1.38 0 00-.328.241.738.738 0 00-.2.4z" fill="#151417"/></svg>