<svg width="150" height="50" viewBox="0 0 150 50" fill="none" xmlns="http://www.w3.org/2000/svg">
<path d="M47.2922 24.5424H34.8205V28.1933H43.6656C43.2287 33.3126 38.9109 35.496 34.8354 35.496C29.6212 35.496 25.0711 31.449 25.0711 25.7764C25.0711 20.2504 29.4084 15.9948 34.847 15.9948C39.0427 15.9948 41.515 18.6332 41.515 18.6332L44.1065 15.9861C44.1065 15.9861 40.7805 12.3335 34.7146 12.3335C26.9902 12.3335 21.0146 18.7646 21.0146 25.711C21.0146 32.5178 26.6356 39.155 34.9114 39.155C42.19 39.155 47.518 34.2363 47.518 26.9626C47.518 25.4283 47.2922 24.5413 47.2922 24.5413V24.5424Z" fill="#4885EF"/>
<path d="M57.5096 21.8989C52.3921 21.8989 48.7246 25.8458 48.7246 30.4488C48.7246 35.1199 52.282 39.1401 57.5697 39.1401C62.3566 39.1401 66.2783 35.5309 66.2783 30.5493C66.2783 24.8394 61.7165 21.8989 57.5096 21.8989ZM57.5605 25.285C60.0769 25.285 62.4618 27.2922 62.4618 30.5262C62.4618 33.6918 60.0871 35.7561 57.549 35.7561C54.7599 35.7561 52.5596 33.5525 52.5596 30.5011C52.5596 27.5151 54.7326 25.285 57.5605 25.285Z" fill="#E12F35"/>
<path d="M76.6151 21.8989C71.4976 21.8989 67.8301 25.8458 67.8301 30.4488C67.8301 35.1199 71.3875 39.1401 76.6752 39.1401C81.4621 39.1401 85.3836 35.5309 85.3836 30.5493C85.3838 24.8394 80.822 21.8989 76.6151 21.8989ZM76.666 25.285C79.1828 25.285 81.5674 27.2922 81.5674 30.5262C81.5674 33.6918 79.1928 35.7561 76.6544 35.7561C73.8655 35.7561 71.6653 33.5525 71.6653 30.5011C71.6653 27.5151 73.8381 25.285 76.666 25.285Z" fill="#F6C111"/>
<path d="M95.3544 21.9077C90.6571 21.9077 86.9648 25.9661 86.9648 30.5214C86.9648 35.7102 91.2454 39.151 95.2734 39.151C97.764 39.151 99.0883 38.1758 100.066 37.0564V38.7561C100.066 41.7301 98.2356 43.5115 95.4726 43.5115C92.8032 43.5115 91.4645 41.5535 90.9992 40.4425L87.6408 41.8276C88.8322 44.3129 91.2306 46.9046 95.5006 46.9046C100.171 46.9046 103.73 44.0027 103.73 37.9165V22.4262H100.066V23.8865C98.9398 22.6889 97.399 21.9079 95.3544 21.9077ZM95.6944 25.2872C97.9973 25.2872 100.362 27.2271 100.362 30.5398C100.362 33.9071 98.0025 35.7628 95.6436 35.7628C93.1392 35.7628 90.8093 33.757 90.8093 30.5717C90.8093 27.2621 93.2292 25.2872 95.6944 25.2872Z" fill="#4885EF"/>
<path d="M120.021 21.8872C115.59 21.8872 111.87 25.3649 111.87 30.4963C111.87 35.9263 116.017 39.1466 120.447 39.1466C124.144 39.1466 126.414 37.1511 127.768 35.3634L124.747 33.3804C123.963 34.5805 122.652 35.7535 120.465 35.7535C118.008 35.7535 116.879 34.4264 116.179 33.1408L127.897 28.3446L127.288 26.939C126.156 24.1864 123.516 21.8876 120.022 21.8876L120.021 21.8872ZM120.174 25.2027C121.771 25.2027 122.919 26.0401 123.408 27.044L115.583 30.2705C115.245 27.7726 117.644 25.2027 120.174 25.2027Z" fill="#DB3237"/>
<path d="M106.284 38.6346H110.133V13.2251H106.284V38.6346Z" fill="#3CBB54"/>
</svg>
