<svg width="25" height="25" fill="none" xmlns="http://www.w3.org/2000/svg"><g clip-path="url(#clip0_14059_28573)"><g clip-path="url(#clip1_14059_28573)" stroke="#F80066" stroke-width="1.5"><path d="M17.628 23.488a5.86 5.86 0 100-11.72 5.86 5.86 0 000 11.72zm-1.832-6.959a1.831 1.831 0 111.832 1.831" stroke-linecap="round" stroke-linejoin="round"/><path d="M17.628 21.29a.366.366 0 010-.732m0 .732a.366.366 0 000-.732"/><path d="M11.02 23.389a10.99 10.99 0 1112.374-12.333M9.852 23.166c-1.485-2.18-2.48-6.141-2.48-10.666s.995-8.485 2.48-10.666m-8.315 9.934h9.498M3.709 5.907H21.29M2.78 17.628h5.046m7.322-15.794A16.602 16.602 0 0117.4 8.828" stroke-linecap="round" stroke-linejoin="round"/></g></g><defs><clipPath id="clip0_14059_28573"><path fill="#fff" d="M0 0h25v25H0z"/></clipPath><clipPath id="clip1_14059_28573"><path fill="#fff" d="M0 0h25v25H0z"/></clipPath></defs></svg>