<?xml version="1.0" encoding="UTF-8"?> <svg xmlns="http://www.w3.org/2000/svg" width="112" height="63" viewBox="0 0 112 63" fill="none"><rect y="0.855469" width="112" height="62" rx="2" fill="#7AFFD2"></rect><path d="M40.5508 36.7009C42.4783 36.202 47.3401 34.3607 51.3675 30.9864C55.3948 27.6122 55.1771 22.6415 54.5648 20.5779C57.15 20.1244 62.1497 19.0059 66.2031 15.8172C69.2174 13.446 72.083 8.83874 71.8109 8.33984" stroke="#151417" stroke-width="0.5" stroke-linecap="round"></path><path d="M71.35 7.90541C71.3785 7.89833 71.412 7.88976 71.4464 7.88095C71.4959 7.8683 71.5472 7.85517 71.5885 7.84527C71.6253 7.83644 71.6634 7.82788 71.6963 7.82226C71.7123 7.81951 71.7324 7.81652 71.7532 7.81517L71.7544 7.81508C71.7656 7.81428 71.8184 7.81049 71.8748 7.8315C71.9071 7.84356 71.9875 7.88172 72.0247 7.9803C72.0624 8.08016 72.0261 8.16297 72.0083 8.19482C71.9781 8.24892 71.9334 8.28103 71.923 8.2885L71.9219 8.28932C71.8884 8.31364 71.8434 8.33844 71.7964 8.36259C71.6965 8.41399 71.5318 8.4905 71.2815 8.60084C71.2129 8.6311 71.0996 8.67083 70.9604 8.7196L70.9405 8.72656C70.7866 8.78053 70.5887 8.85 70.3476 8.9403C69.8656 9.12078 69.2096 9.38497 68.3956 9.77208C66.7677 10.5463 64.5046 11.8138 61.7379 13.8895C56.2046 18.0409 48.6526 25.4285 40.139 38.5766C39.4995 39.5642 38.8015 40.484 38.1865 41.1882C37.8792 41.5402 37.5902 41.8412 37.3375 42.071C37.092 42.2941 36.8586 42.4708 36.6649 42.5472C36.5726 42.5836 36.4341 42.6197 36.2982 42.5622C36.1397 42.4951 36.0824 42.3474 36.068 42.2299C36.0539 42.1154 36.0717 41.9833 36.1049 41.8449C36.1392 41.7024 36.195 41.5336 36.2719 41.3383C36.5781 40.5612 37.2533 39.2804 38.4292 37.3567C41.0067 33.1031 45.6143 26.6435 51.3817 20.7983C57.1449 14.9575 64.0918 9.70391 71.35 7.90541ZM71.35 7.90541C71.35 7.90542 71.3499 7.90542 71.3499 7.90542L71.3759 8.0102L71.35 7.90541Z" fill="white" stroke="#151417" stroke-width="0.5"></path><path fill-rule="evenodd" clip-rule="evenodd" d="M38.2989 35.6601C39.1259 35.9414 40.819 36.6635 41.9501 37.6765C41.9815 37.7047 42.0129 37.7494 42.0131 37.8161C42.0144 38.1647 41.6252 38.9407 41.4442 39.0202C41.3273 39.0716 40.9559 38.9388 40.4856 38.7222C39.5408 40.5526 37.5678 44.4921 34.8105 50.7643C34.2755 51.9813 32.968 51.9506 32.1581 51.5091C31.4966 51.1485 30.6133 50.3035 31.2333 49.1207C31.2931 49.0065 31.3714 48.8501 31.4719 48.6492C32.1656 47.2627 33.9192 43.7574 38.0019 37.3897C37.766 37.2503 37.6009 37.148 37.5506 37.1113C37.2942 36.924 37.4426 36.5847 37.5858 36.3667C37.6117 36.3271 37.6416 36.2749 37.6749 36.2167C37.8252 35.9541 38.046 35.5684 38.2989 35.6601Z" fill="#600DFF"></path><path d="M41.9501 37.6765L42.1169 37.4903L42.1169 37.4903L41.9501 37.6765ZM38.2989 35.6601L38.2135 35.8952L38.2184 35.8968L38.2989 35.6601ZM42.0131 37.8161L41.7631 37.817L41.7631 37.817L42.0131 37.8161ZM41.4442 39.0202L41.3437 38.7913L41.3437 38.7913L41.4442 39.0202ZM40.4856 38.7222L40.5902 38.4951L40.3731 38.3951L40.2635 38.6075L40.4856 38.7222ZM34.8105 50.7643L34.5816 50.6637L34.5816 50.6637L34.8105 50.7643ZM32.1581 51.5091L32.2778 51.2896L32.2778 51.2896L32.1581 51.5091ZM31.2333 49.1207L31.0119 49.0047L31.0119 49.0047L31.2333 49.1207ZM31.4719 48.6492L31.2483 48.5374L31.2483 48.5374L31.4719 48.6492ZM38.0019 37.3897L38.2123 37.5246L38.3523 37.3063L38.1291 37.1744L38.0019 37.3897ZM37.5506 37.1113L37.6981 36.9094L37.6981 36.9094L37.5506 37.1113ZM37.5858 36.3667L37.3768 36.2295L37.3768 36.2295L37.5858 36.3667ZM37.6749 36.2167L37.8919 36.3409L37.8919 36.3409L37.6749 36.2167ZM42.1169 37.4903C40.9486 36.4439 39.2179 35.7086 38.3794 35.4235L38.2184 35.8968C39.0339 36.1742 40.6895 36.8831 41.7833 37.8627L42.1169 37.4903ZM42.2631 37.8152C42.2625 37.6602 42.1863 37.5525 42.1169 37.4903L41.7833 37.8627C41.781 37.8607 41.7756 37.8553 41.7708 37.8458C41.7653 37.8351 41.7631 37.8243 41.7631 37.817L42.2631 37.8152ZM41.5448 39.2491C41.6132 39.2191 41.6665 39.1696 41.7022 39.1319C41.7417 39.0902 41.7797 39.0411 41.8152 38.9899C41.8863 38.8873 41.9581 38.7601 42.0221 38.628C42.0862 38.4954 42.1451 38.3522 42.1884 38.2159C42.2304 38.0842 42.2636 37.9411 42.2631 37.8152L41.7631 37.817C41.7633 37.8654 41.7483 37.95 41.712 38.0644C41.677 38.1742 41.6276 38.2952 41.572 38.4102C41.5161 38.5256 41.4569 38.6291 41.4041 38.7052C41.3777 38.7434 41.3556 38.7707 41.3392 38.788C41.319 38.8094 41.3206 38.8015 41.3437 38.7913L41.5448 39.2491ZM40.3811 38.9493C40.6195 39.0591 40.8403 39.1512 41.0204 39.2095C41.11 39.2385 41.1969 39.2617 41.2749 39.2731C41.3419 39.283 41.4474 39.2919 41.5448 39.2491L41.3437 38.7913C41.3827 38.7742 41.3979 38.7858 41.3476 38.7784C41.3085 38.7727 41.2512 38.7587 41.1745 38.7339C41.0221 38.6845 40.8221 38.6019 40.5902 38.4951L40.3811 38.9493ZM35.0393 50.8649C37.7944 44.5977 39.7652 40.6629 40.7078 38.8369L40.2635 38.6075C39.3164 40.4422 37.3412 44.3864 34.5816 50.6637L35.0393 50.8649ZM32.0385 51.7286C32.4854 51.9722 33.0722 52.1056 33.6318 52.0047C34.2036 51.9015 34.7364 51.5541 35.0393 50.8649L34.5816 50.6637C34.3496 51.1915 33.9612 51.4372 33.543 51.5126C33.1126 51.5902 32.6408 51.4875 32.2778 51.2896L32.0385 51.7286ZM31.0119 49.0047C30.6609 49.6742 30.7316 50.2707 30.9969 50.7452C31.2538 51.2046 31.6832 51.535 32.0385 51.7286L32.2778 51.2896C31.9715 51.1227 31.6285 50.8502 31.4334 50.5012C31.2467 50.1673 31.1857 49.75 31.4547 49.2368L31.0119 49.0047ZM31.2483 48.5374C31.1473 48.7392 31.0704 48.8931 31.0119 49.0047L31.4547 49.2368C31.5159 49.12 31.5954 48.961 31.6955 48.7611L31.2483 48.5374ZM37.7914 37.2547C33.7029 43.6315 31.945 47.1447 31.2483 48.5374L31.6955 48.7611C32.3861 47.3806 34.1354 43.8834 38.2123 37.5246L37.7914 37.2547ZM37.4032 37.3132C37.4655 37.3587 37.6426 37.4678 37.8747 37.6049L38.1291 37.1744C37.8893 37.0328 37.7363 36.9373 37.6981 36.9094L37.4032 37.3132ZM37.3768 36.2295C37.2982 36.3492 37.2033 36.5229 37.1719 36.7088C37.1382 36.9077 37.1766 37.1478 37.4032 37.3132L37.6981 36.9094C37.6751 36.8926 37.6688 36.8794 37.6657 36.8697C37.6614 36.8564 37.6581 36.8322 37.6648 36.7923C37.6792 36.7072 37.7302 36.6021 37.7948 36.5038L37.3768 36.2295ZM37.4579 36.0926C37.4232 36.1532 37.3976 36.1977 37.3768 36.2295L37.7948 36.5038C37.8259 36.4565 37.8599 36.3967 37.8919 36.3409L37.4579 36.0926ZM38.3842 35.4251C38.1002 35.3221 37.8778 35.5098 37.7623 35.6387C37.6356 35.7799 37.5298 35.9669 37.4579 36.0926L37.8919 36.3409C37.9703 36.204 38.05 36.0667 38.1346 35.9724C38.2302 35.8657 38.2446 35.9064 38.2136 35.8951L38.3842 35.4251Z" fill="#600DFF"></path><circle cx="40.5177" cy="44.3789" r="3.13222" transform="rotate(-3.39297 40.5177 44.3789)" fill="white"></circle><path d="M68.1179 44.2006C69.0229 43.3851 70.0586 43.2095 69.8977 43.1069C67.9169 41.8448 67.5817 40.8695 67.5648 40.994C67.3982 42.2235 68.0274 44.2822 68.1179 44.2006Z" fill="#151417" stroke="#151417" stroke-width="0.5"></path><path d="M74.5811 40.7646C74.228 40.0833 72.6367 37.2601 71.1849 35.1612C70.8641 35.1477 70.3322 35.1836 70.533 35.4959C70.784 35.8862 74.3679 40.8067 74.3333 42.5957C74.2981 44.4215 72.5899 45.5317 70.9122 44.8937C69.7983 44.4701 69.0209 43.5632 68.7532 43.0551L68.3298 43.5957C68.8464 44.5471 70.4882 46.2766 72.6238 45.7184C75.1772 45.051 75.5125 42.5616 74.5811 40.7646Z" fill="#151417" stroke="#151417" stroke-width="0.5"></path><path fill-rule="evenodd" clip-rule="evenodd" d="M70.7427 33.0196C71.1605 33.1676 71.7494 33.6538 71.6031 34.4783C71.4202 35.509 70.4239 35.6229 69.8896 35.4334C69.4468 35.2764 68.8177 34.744 69.0987 33.8642C69.3798 32.9843 70.2526 32.8461 70.7427 33.0196ZM70.6469 33.452C70.9214 33.5492 71.3084 33.8687 71.2122 34.4104C71.0921 35.0876 70.4375 35.1624 70.0864 35.0379C69.7955 34.9347 69.3822 34.585 69.5668 34.0069C69.7515 33.4288 70.3249 33.338 70.6469 33.452Z" fill="#151417"></path><path d="M71.6031 34.4783L71.357 34.4347L71.357 34.4347L71.6031 34.4783ZM70.7427 33.0196L70.8261 32.7839L70.8261 32.7839L70.7427 33.0196ZM69.8896 35.4334L69.9731 35.1977L69.9731 35.1977L69.8896 35.4334ZM69.0987 33.8642L68.8606 33.7881L69.0987 33.8642ZM71.2122 34.4104L71.4584 34.4541L71.4584 34.4541L71.2122 34.4104ZM70.6469 33.452L70.7304 33.2164L70.7304 33.2164L70.6469 33.452ZM70.0864 35.0379L70.0029 35.2735L70.0029 35.2735L70.0864 35.0379ZM69.5668 34.0069L69.3287 33.9308L69.3287 33.9308L69.5668 34.0069ZM71.8493 34.522C72.025 33.5319 71.3096 32.9552 70.8261 32.7839L70.6592 33.2553C71.0113 33.38 71.4739 33.7758 71.357 34.4347L71.8493 34.522ZM69.806 35.669C70.1244 35.7819 70.5696 35.8039 70.9699 35.646C71.3857 35.482 71.742 35.1267 71.8493 34.522L71.357 34.4347C71.2814 34.8606 71.0481 35.0776 70.7864 35.1808C70.5092 35.2902 70.1892 35.2744 69.9731 35.1977L69.806 35.669ZM68.8606 33.7881C68.696 34.3031 68.7965 34.7355 69.0156 35.0598C69.2278 35.3739 69.5431 35.5758 69.806 35.669L69.9731 35.1977C69.7933 35.134 69.5726 34.9911 69.4299 34.7799C69.294 34.5787 69.2203 34.305 69.3369 33.9402L68.8606 33.7881ZM70.8261 32.7839C70.5249 32.6773 70.1223 32.6691 69.7514 32.814C69.371 32.9625 69.0254 33.272 68.8606 33.7881L69.3369 33.9402C69.4531 33.5765 69.6844 33.3769 69.9332 33.2797C70.1916 33.1789 70.4704 33.1884 70.6592 33.2553L70.8261 32.7839ZM71.4584 34.4541C71.5839 33.7467 71.0706 33.3368 70.7304 33.2164L70.5635 33.6877C70.7723 33.7616 71.0328 33.9907 70.9661 34.3668L71.4584 34.4541ZM70.0029 35.2735C70.2296 35.3539 70.5436 35.3694 70.8277 35.2573C71.1273 35.1392 71.3824 34.8821 71.4584 34.4541L70.9661 34.3668C70.9219 34.6159 70.7897 34.7348 70.6442 34.7922C70.4832 34.8557 70.2943 34.8464 70.17 34.8023L70.0029 35.2735ZM69.3287 33.9308C69.2123 34.295 69.2829 34.6063 69.4411 34.8405C69.5925 35.0645 69.8159 35.2072 70.0029 35.2735L70.17 34.8023C70.066 34.7654 69.9373 34.6817 69.8554 34.5605C69.7804 34.4495 69.7366 34.2969 69.8049 34.083L69.3287 33.9308ZM70.7304 33.2164C70.5132 33.1394 70.2274 33.1344 69.9644 33.237C69.6919 33.3434 69.4453 33.5656 69.3287 33.9308L69.8049 34.083C69.8729 33.8701 70.0054 33.7578 70.1463 33.7028C70.2967 33.6441 70.4587 33.6506 70.5635 33.6877L70.7304 33.2164Z" fill="#151417"></path><path d="M41.3174 44.7433C41.6223 44.2344 41.3551 43.7639 41.1158 43.5605C40.8352 43.322 40.2225 43.1933 39.8145 43.7049C39.4065 44.2164 39.7064 44.7551 39.9599 44.9707C40.2134 45.1864 40.9363 45.3794 41.3174 44.7433Z" fill="#151417" stroke="#151417" stroke-width="0.5"></path><path fill-rule="evenodd" clip-rule="evenodd" d="M41.8877 40.321C43.2868 40.8164 45.259 42.4447 44.769 45.2057C44.1566 48.657 40.8204 49.0383 39.031 48.4038C37.5483 47.878 35.4416 46.0953 36.3827 43.149C37.3238 40.2027 40.2466 39.7398 41.8877 40.321ZM41.453 41.5959C42.4204 41.9385 43.7842 43.0645 43.4454 44.9737C43.0219 47.3603 40.7149 47.624 39.4775 47.1852C38.4522 46.8216 36.9954 45.5889 37.6462 43.5515C38.297 41.5141 40.3181 41.194 41.453 41.5959Z" fill="white"></path><path d="M44.769 45.2057L45.0152 45.2494L44.769 45.2057ZM41.8877 40.321L41.9712 40.0853L41.9712 40.0853L41.8877 40.321ZM39.031 48.4038L38.9475 48.6394L38.9475 48.6394L39.031 48.4038ZM36.3827 43.149L36.6208 43.2251L36.3827 43.149ZM43.4454 44.9737L43.1992 44.9301L43.1992 44.9301L43.4454 44.9737ZM41.453 41.5959L41.5364 41.3602L41.5364 41.3602L41.453 41.5959ZM39.4775 47.1852L39.394 47.4208L39.394 47.4208L39.4775 47.1852ZM37.6462 43.5515L37.4081 43.4754L37.4081 43.4754L37.6462 43.5515ZM45.0152 45.2494C45.5345 42.3228 43.4359 40.604 41.9712 40.0853L41.8043 40.5566C43.1376 41.0288 44.9834 42.5667 44.5229 45.1621L45.0152 45.2494ZM38.9475 48.6394C39.8933 48.9748 41.2373 49.0412 42.4331 48.5695C43.6444 48.0917 44.6931 47.0644 45.0152 45.2494L44.5229 45.1621C44.2325 46.7983 43.3069 47.6874 42.2496 48.1044C41.1769 48.5275 39.9581 48.4673 39.1146 48.1682L38.9475 48.6394ZM36.1445 43.073C35.65 44.6212 35.9548 45.8828 36.5908 46.8241C37.2199 47.7552 38.1646 48.3618 38.9475 48.6394L39.1146 48.1682C38.4147 47.92 37.5647 47.3724 37.0051 46.5442C36.4523 45.726 36.1743 44.6231 36.6208 43.2251L36.1445 43.073ZM41.9712 40.0853C41.0944 39.7748 39.8915 39.746 38.7818 40.1793C37.6625 40.6164 36.6394 41.5236 36.1445 43.073L36.6208 43.2251C37.0671 41.8281 37.976 41.0308 38.9636 40.6451C39.9608 40.2557 41.0399 40.2859 41.8043 40.5566L41.9712 40.0853ZM43.6915 45.0174C44.0597 42.9425 42.5695 41.7261 41.5364 41.3602L41.3695 41.8316C42.2712 42.1509 43.5086 43.1864 43.1992 44.9301L43.6915 45.0174ZM39.394 47.4208C40.0638 47.6583 41.0125 47.7052 41.8584 47.3715C42.7198 47.0317 43.4639 46.3001 43.6915 45.0174L43.1992 44.9301C43.0033 46.0339 42.3822 46.6274 41.6749 46.9064C40.9521 47.1915 40.1286 47.1508 39.5611 46.9496L39.394 47.4208ZM37.4081 43.4754C37.0587 44.5693 37.2736 45.4661 37.7262 46.136C38.172 46.7957 38.8398 47.2243 39.394 47.4208L39.5611 46.9496C39.09 46.7825 38.5167 46.4129 38.1405 45.8561C37.7711 45.3093 37.583 44.5712 37.8844 43.6276L37.4081 43.4754ZM41.5364 41.3602C40.9128 41.1394 40.0619 41.1197 39.2771 41.4261C38.4829 41.7363 37.7578 42.3806 37.4081 43.4754L37.8844 43.6276C38.1854 42.6851 38.7963 42.1506 39.459 41.8919C40.1312 41.6294 40.8583 41.6505 41.3695 41.8316L41.5364 41.3602Z" fill="#151417"></path><path d="M77.3469 42.9654L61.7479 39.7526C60.4526 39.463 60.5759 39.7376 60.3679 40.641C59.9804 43.3046 58.8172 48.4362 58.7145 49.2166C58.622 49.9207 58.5195 50.1489 59.2423 50.3254C64.1493 51.5242 73.0442 53.3258 74.9532 53.7662C75.9837 54.0039 76.0368 53.9814 76.182 53.2474C76.7414 50.4199 77.6335 45.0696 77.7868 44.1805C77.9411 43.2849 77.9062 43.0754 77.3469 42.9654Z" fill="white" stroke="#151417" stroke-width="0.5"></path><path d="M60.572 39.8559L67.2331 47.9526C67.8511 48.5834 67.7603 48.8238 69.0249 48.1752C69.7061 47.8258 75.2401 44.8572 77.7345 43.2116" stroke="#151417" stroke-width="0.5"></path><path d="M66.7158 43.0859C67.7283 42.2357 68.8465 42.0896 68.6797 41.9706C66.6258 40.5056 66.3187 39.4262 66.294 39.5614C66.0503 40.8961 66.6146 43.171 66.7158 43.0859Z" fill="#151417" stroke="#151417" stroke-width="0.5"></path><path fill-rule="evenodd" clip-rule="evenodd" d="M68.2875 44.1548C68.4735 43.9537 68.6701 43.7584 68.8563 43.5805C68.2397 43.0787 67.8205 42.4889 67.6425 42.1072L67.1563 42.677C67.3591 43.098 67.7471 43.6605 68.2875 44.1548Z" fill="#151417"></path><path d="M68.2875 44.1548L68.1187 44.3393L68.3022 44.5071L68.471 44.3246L68.2875 44.1548ZM68.8563 43.5805L69.029 43.7612L69.2339 43.5654L69.0141 43.3866L68.8563 43.5805ZM67.6425 42.1072L67.869 42.0016L67.7047 41.6492L67.4523 41.945L67.6425 42.1072ZM67.1563 42.677L66.9662 42.5147L66.8604 42.6387L66.9311 42.7855L67.1563 42.677ZM68.471 44.3246C68.6524 44.1285 68.8451 43.9369 69.029 43.7612L68.6836 43.3997C68.4951 43.5798 68.2945 43.779 68.1039 43.9851L68.471 44.3246ZM69.0141 43.3866C68.4247 42.9069 68.03 42.3467 67.869 42.0016L67.4159 42.2129C67.611 42.6311 68.0546 43.2504 68.6985 43.7744L69.0141 43.3866ZM67.4523 41.945L66.9662 42.5147L67.3465 42.8393L67.8327 42.2695L67.4523 41.945ZM66.9311 42.7855C67.1478 43.2353 67.5551 43.8236 68.1187 44.3393L68.4562 43.9704C67.9392 43.4974 67.5704 42.9606 67.3816 42.5685L66.9311 42.7855Z" fill="#151417"></path><path d="M69.6875 43.4222C69.1125 43.6195 68.1117 44.5118 67.966 45.1394" stroke="#151417" stroke-width="0.5" stroke-linecap="round"></path><path d="M71.9664 8.0332C73.179 9.36746 75.0067 12.9243 74.53 16.8221C73.7194 23.4501 66.1782 27.5848 69.7083 33.5258" stroke="#151417" stroke-width="0.5" stroke-linecap="round"></path></svg> 