<?xml version="1.0" encoding="UTF-8"?> <svg xmlns="http://www.w3.org/2000/svg" width="56" height="56" viewBox="0 0 56 56" fill="none"><rect x="36.4355" y="17.9409" width="4.26637" height="4.93723" rx="0.2" fill="#600DFF"></rect><path d="M23.6172 10.2513V7.4134" stroke="#151417" stroke-linecap="round"></path><path d="M17 48.5001L23.255 48.5616H30.7455C31.0214 48.5616 31.2451 48.3457 31.2454 48.0698C31.2575 36.6731 31.1941 15.0642 31.1941 14.3997C31.1941 13.2578 30.2751 13.1155 29.8119 13.1154C25.7591 13.1014 17.4971 13.0817 16.8719 13.1154C16.2466 13.1491 15.9551 13.6384 15.9551 14.3997C15.9696 25.3731 16.1386 47.675 16.1386 48.2821C16.1386 48.5421 16.4751 48.5001 17 48.5001Z" fill="white"></path><path d="M23.255 48.5616L23.2501 49.0616H23.255V48.5616ZM17 48.5001L17.0049 48.0001H17V48.5001ZM15.9551 14.3997H15.4551L15.4551 14.4003L15.9551 14.3997ZM29.8119 13.1154L29.8101 13.6154L29.8118 13.6154L29.8119 13.1154ZM31.2454 48.0698L31.7454 48.0704V48.0704L31.2454 48.0698ZM23.2599 48.0616L17.0049 48.0002L16.9951 49.0001L23.2501 49.0615L23.2599 48.0616ZM17 48.0001C16.9314 48.0001 16.8662 48.0008 16.8069 48.0015C16.7466 48.0021 16.6937 48.0027 16.6446 48.0026C16.5419 48.0025 16.4816 47.9993 16.4452 47.9939C16.4004 47.9873 16.4509 47.9854 16.5166 48.0394C16.5554 48.0712 16.5904 48.1151 16.6133 48.1683C16.6351 48.2189 16.6386 48.2608 16.6386 48.2821H15.6386C15.6386 48.4701 15.7076 48.669 15.8822 48.8123C16.0274 48.9315 16.1948 48.9679 16.2998 48.9833C16.4977 49.0124 16.7847 49.0001 17 49.0001V48.0001ZM16.6386 48.2821C16.6386 47.6869 16.4695 25.353 16.4551 14.399L15.4551 14.4003C15.4696 25.3932 15.6386 47.663 15.6386 48.2821H16.6386ZM16.4551 14.3997C16.4551 14.0721 16.5195 13.8729 16.5922 13.7662C16.6487 13.6833 16.7294 13.6238 16.8987 13.6147L16.845 12.6161C16.389 12.6407 16.0113 12.8428 15.7658 13.2032C15.5364 13.5399 15.4551 13.966 15.4551 14.3997H16.4551ZM16.8987 13.6147C17.505 13.582 25.7415 13.6013 29.8101 13.6154L29.8136 12.6154C25.7766 12.6014 17.4892 12.5814 16.845 12.6161L16.8987 13.6147ZM29.8118 13.6154C30.0084 13.6154 30.2427 13.6486 30.4132 13.7543C30.5442 13.8355 30.6941 13.9901 30.6941 14.3997H31.6941C31.6941 13.6674 31.3845 13.1799 30.9401 12.9044C30.5354 12.6535 30.0785 12.6155 29.812 12.6154L29.8118 13.6154ZM30.6941 14.3997C30.6941 15.0701 30.7575 36.6702 30.7454 48.0693L31.7454 48.0704C31.7575 36.676 31.6941 15.0584 31.6941 14.3997H30.6941ZM30.7455 48.0616H23.255V49.0616H30.7455V48.0616ZM30.7454 48.0693C30.7454 48.0701 30.7454 48.0685 30.7465 48.0659C30.7474 48.0637 30.7486 48.0623 30.7493 48.0616C30.7499 48.061 30.7502 48.0609 30.75 48.061C30.75 48.061 30.7496 48.0612 30.749 48.0613C30.7485 48.0614 30.7473 48.0616 30.7455 48.0616V49.0616C31.2872 49.0616 31.7448 48.6322 31.7454 48.0704L30.7454 48.0693Z" fill="#151417"></path><path d="M42.4778 22.8783H24.2563C23.3969 22.8783 22.9961 23.383 22.9961 24.1315V48.0866C22.9961 48.3627 23.22 48.5866 23.4961 48.5866H43.8601C44.1368 48.5866 44.3609 48.3668 44.3602 48.0901C44.3423 40.2755 44.3614 25.3346 44.3614 24.334C44.3614 23.1735 43.4617 22.8783 42.4778 22.8783Z" fill="white"></path><path d="M44.3602 48.0901L44.8602 48.089L44.3602 48.0901ZM24.2563 23.3783H42.4778V22.3783H24.2563V23.3783ZM42.4778 23.3783C42.9368 23.3783 43.2937 23.4503 43.5224 23.5942C43.7102 23.7123 43.8614 23.9076 43.8614 24.334H44.8614C44.8614 23.5999 44.5629 23.0673 44.0548 22.7477C43.5876 22.4538 43.0027 22.3783 42.4778 22.3783V23.3783ZM43.8614 24.334C43.8614 25.333 43.8423 40.276 43.8602 48.0913L44.8602 48.089C44.8423 40.2751 44.8614 25.3361 44.8614 24.334H43.8614ZM43.8601 48.0866H23.4961V49.0866H43.8601V48.0866ZM23.4961 48.0866V24.1315H22.4961V48.0866H23.4961ZM23.4961 24.1315C23.4961 23.8421 23.573 23.6674 23.6674 23.5676C23.7569 23.4728 23.9255 23.3783 24.2563 23.3783V22.3783C23.7277 22.3783 23.2662 22.5361 22.9405 22.8808C22.6196 23.2205 22.4961 23.6725 22.4961 24.1315H23.4961ZM23.4961 48.0866H23.4961H22.4961C22.4961 48.6389 22.9438 49.0866 23.4961 49.0866V48.0866ZM43.8602 48.0913C43.8602 48.0921 43.8602 48.091 43.861 48.0892C43.8616 48.0877 43.8623 48.0869 43.8625 48.0866C43.8628 48.0864 43.8629 48.0863 43.863 48.0863C43.8632 48.0862 43.8626 48.0866 43.8601 48.0866V49.0866C44.4071 49.0866 44.8615 48.6484 44.8602 48.089L43.8602 48.0913Z" fill="#151417"></path><rect x="26.8027" y="26.7967" width="13.898" height="2.8483" rx="0.2" fill="#600DFF"></rect><rect x="29.582" y="42.7579" width="8.19278" height="5.80342" rx="0.2" fill="#151417"></rect><rect x="26.8027" y="32.6451" width="13.898" height="2.8483" rx="0.2" fill="#600DFF"></rect><path d="M20.2342 10.827V12.5778C20.2342 12.854 20.458 13.0778 20.7342 13.0778H26.4767C26.7606 13.0778 26.9876 12.8418 26.9817 12.558C26.9717 12.0846 26.9689 11.4799 26.9969 11.0719C27.0373 10.4848 26.542 10.3166 26.3738 10.3002C24.6914 10.2839 21.3645 10.2497 20.8396 10.2888C20.3147 10.3279 20.2173 10.6639 20.2342 10.827Z" fill="#151417"></path><path d="M20.2342 10.827H20.7342V10.8012L20.7315 10.7755L20.2342 10.827ZM20.8396 10.2888L20.8024 9.79018L20.8396 10.2888ZM26.3738 10.3002L26.4223 9.80255L26.4005 9.80043L26.3786 9.80021L26.3738 10.3002ZM26.9969 11.0719L26.4981 11.0376V11.0376L26.9969 11.0719ZM26.9817 12.558L27.4815 12.5474V12.5474L26.9817 12.558ZM20.7342 12.5778V10.827H19.7342V12.5778H20.7342ZM20.7315 10.7755C20.7338 10.7974 20.7312 10.8077 20.7303 10.8107C20.7289 10.8159 20.7265 10.8209 20.7234 10.8247C20.7194 10.8297 20.7203 10.8255 20.737 10.8175C20.7549 10.8089 20.7972 10.7933 20.8768 10.7874L20.8024 9.79018C20.4305 9.81791 20.1351 9.96044 19.944 10.1981C19.7641 10.4219 19.7165 10.6819 19.7368 10.8786L20.7315 10.7755ZM20.8768 10.7874C21.3738 10.7503 24.6644 10.7836 26.3689 10.8002L26.3786 9.80021C24.7185 9.78412 21.3551 9.74896 20.8024 9.79018L20.8768 10.7874ZM26.3253 10.7978C26.3168 10.797 26.3342 10.7984 26.3652 10.8106C26.394 10.8219 26.421 10.8372 26.4419 10.8548C26.4613 10.8711 26.474 10.8878 26.4826 10.9073C26.4907 10.9258 26.5031 10.9647 26.4981 11.0376L27.4958 11.1062C27.5275 10.6438 27.3399 10.3032 27.0853 10.0892C26.8557 9.8963 26.5895 9.81885 26.4223 9.80255L26.3253 10.7978ZM26.4981 11.0376C26.4684 11.47 26.4718 12.0945 26.4818 12.5685L27.4815 12.5474C27.4716 12.0748 27.4694 11.4897 27.4958 11.1062L26.4981 11.0376ZM26.4767 12.5778H20.7342V13.5778H26.4767V12.5778ZM26.4818 12.5685C26.4818 12.5709 26.4814 12.5721 26.4811 12.5729C26.4807 12.574 26.4799 12.5753 26.4787 12.5765C26.4776 12.5777 26.4768 12.578 26.4769 12.5779C26.4774 12.5777 26.4777 12.5778 26.4767 12.5778V13.5778C27.0461 13.5778 27.4933 13.1062 27.4815 12.5474L26.4818 12.5685ZM19.7342 12.5778C19.7342 13.1301 20.1819 13.5778 20.7342 13.5778V12.5778H20.7342H19.7342Z" fill="#151417"></path><path d="M14.0195 48.5862H46.876" stroke="#151417" stroke-linecap="round"></path></svg> 