<svg width="25" height="25" fill="none" xmlns="http://www.w3.org/2000/svg"><g clip-path="url(#clip0_6055_108322)"><path fill="#fff" d="M0 0h25v25H0z"/><path d="M4.18 9.144h9.693a3.526 3.526 0 010 7.049H4.179a.88.88 0 00-.88.881l-.001 3.525a.883.883 0 00.881.881l9.69-.003a8.812 8.812 0 100-17.623L4.18 3.85a.883.883 0 00-.881.882v3.53a.88.88 0 00.881.882z" fill="#fff" stroke="#F80066" stroke-width="1.5" stroke-linecap="round" stroke-linejoin="round"/><path d="M8.586 21.481v-5.287 5.287z" fill="#fff"/><path d="M8.586 21.481v-5.287" stroke="#F80066" stroke-width="1.5" stroke-linecap="round" stroke-linejoin="round"/><path d="M8.586 9.144V3.857v5.287z" fill="#fff"/><path d="M8.586 9.144V3.857" stroke="#F80066" stroke-width="1.5" stroke-linecap="round" stroke-linejoin="round"/></g><defs><clipPath id="clip0_6055_108322"><path fill="#fff" d="M0 0h25v25H0z"/></clipPath></defs></svg>