<?xml version="1.0" encoding="UTF-8"?> <svg xmlns="http://www.w3.org/2000/svg" width="280" height="115" viewBox="0 0 280 115" fill="none"><path d="M0 0H280V115H0V0Z" fill="#600DFF"></path><mask id="mask0_8312_149646" style="mask-type:alpha" maskUnits="userSpaceOnUse" x="0" y="0" width="280" height="115"><path d="M0 3C0 1.34315 1.34315 0 3 0H277C278.657 0 280 1.34315 280 3V115H0V3Z" fill="#600DFF"></path></mask><g mask="url(#mask0_8312_149646)"><path d="M86.2797 31.1193C86.3702 31.0564 86.4937 31.1231 86.4896 31.2326L86.3296 35.563C86.3285 35.5918 86.3369 35.6201 86.3534 35.6437L88.841 39.1919C88.9039 39.2817 88.8365 39.4048 88.7263 39.4011L84.3731 39.257C84.3442 39.256 84.3157 39.2645 84.2919 39.281L80.7159 41.7676C80.6254 41.8305 80.5019 41.7638 80.506 41.6543L80.666 37.3239C80.6671 37.2951 80.6587 37.2668 80.6422 37.2432L78.1546 33.695C78.0917 33.6052 78.1591 33.4821 78.2693 33.4858L82.6224 33.6299C82.6514 33.6309 82.6799 33.6224 82.7037 33.6059L86.2797 31.1193Z" fill="white"></path><path d="M95.7023 54.0256C95.7734 54.1098 95.7186 54.239 95.6092 54.2452L92.627 54.415C92.5983 54.4166 92.5708 54.4276 92.5489 54.4463L90.2745 56.3825C90.191 56.4536 90.0622 56.398 90.0555 56.288L89.8733 53.2912C89.8715 53.2623 89.8605 53.2347 89.8418 53.2126L87.9044 50.919C87.8333 50.8348 87.8881 50.7056 87.9976 50.6994L90.9797 50.5296C91.0085 50.528 91.0359 50.517 91.0579 50.4983L93.3323 48.5621C93.4158 48.491 93.5446 48.5466 93.5513 48.6566L93.7334 51.6534C93.7352 51.6823 93.7463 51.7099 93.7649 51.732L95.7023 54.0256Z" fill="white"></path><path d="M216.003 52.9786C216.091 53.0443 216.067 53.1826 215.962 53.2137L213.52 53.9365C213.492 53.9447 213.468 53.9617 213.451 53.9849L211.941 56.0359C211.876 56.1242 211.738 56.0995 211.706 55.994L210.97 53.5421C210.962 53.5143 210.945 53.49 210.922 53.4727L208.866 51.947C208.778 51.8814 208.801 51.7431 208.906 51.7119L211.349 50.9891C211.376 50.9809 211.4 50.9639 211.417 50.9407L212.928 48.8898C212.993 48.8015 213.131 48.8261 213.162 48.9317L213.898 51.3836C213.907 51.4113 213.924 51.4356 213.947 51.4529L216.003 52.9786Z" fill="white"></path><path d="M83.5 98.0325C62.9999 109.032 46.7 109.732 29.5 94.5325C8 75.5325 19.0001 52.0325 31.5001 62.5325C44.0001 73.0325 47.5 91.5325 20 88.0325C-7.5 84.5325 -26 75.5325 -31 98.0325" stroke="#151417" stroke-width="0.6" stroke-dasharray="2 2"></path><path d="M206.915 16.8283L139.2 -9.08269C137.851 -9.59884 136.927 -9.56887 136.05 -7.27584C123.964 24.0188 99.613 87.1033 98.893 89.0843C98.1731 91.0653 98.761 91.6977 99.9942 92.1696L168.162 118.254C169.887 118.914 170.513 118.054 170.918 116.993C182.973 85.4081 207.252 21.9854 208.043 20.1154C208.835 18.2454 208.202 17.3206 206.915 16.8283Z" fill="white"></path><path d="M191.916 31.6926L140.526 12.0283C139.909 11.7925 139.129 11.6024 138.662 12.8232C137.811 14.988 136.112 19.3332 135.837 20.1944C135.562 21.0557 136.074 21.561 136.648 21.7807C153.229 28.1359 186.68 40.9782 188.067 41.4834C189.453 41.9886 189.967 41.5886 190.28 40.7723C190.991 38.8827 192.525 34.834 192.964 33.756C193.404 32.678 192.767 32.0183 191.916 31.6926Z" stroke="#151417" stroke-width="0.595922" stroke-linecap="round"></path><path d="M184.286 51.6327L132.896 31.9684C132.28 31.7326 131.499 31.5425 131.032 32.7632C130.181 34.928 128.482 39.2732 128.207 40.1345C127.932 40.9957 128.444 41.5011 129.018 41.7207C145.599 48.076 179.05 60.9182 180.437 61.4234C181.823 61.9286 182.338 61.5286 182.65 60.7124C183.362 58.8228 184.895 54.7741 185.335 53.6961C185.774 52.6181 185.137 51.9584 184.286 51.6327Z" stroke="#151417" stroke-width="0.595922" stroke-linecap="round"></path><path d="M176.656 71.5725L125.266 51.9082C124.65 51.6723 123.869 51.4823 123.402 52.703C122.551 54.8678 120.852 59.213 120.577 60.0743C120.302 60.9355 120.814 61.4409 121.388 61.6605C137.969 68.0158 171.42 80.858 172.807 81.3632C174.194 81.8684 174.708 81.4684 175.02 80.6522C175.732 78.7626 177.265 74.7139 177.705 73.6359C178.144 72.5579 177.508 71.8982 176.656 71.5725Z" stroke="#151417" stroke-width="0.595922" stroke-linecap="round"></path><path d="M169.026 91.5123L117.635 71.848C117.019 71.6122 116.238 71.4221 115.771 72.6429C114.92 74.8077 113.222 79.1529 112.947 80.0141C112.672 80.8754 113.183 81.3807 113.757 81.6004C130.339 87.9556 163.79 100.798 165.176 101.303C166.563 101.808 167.077 101.408 167.389 100.592C168.101 98.7024 169.634 94.6537 170.074 93.5757C170.514 92.4977 169.877 91.838 169.026 91.5123Z" fill="#FFDE06" stroke="#FFDE06" stroke-width="0.595922" stroke-linecap="round"></path><path d="M140.74 7.30688L154.673 12.6383" stroke="#151417" stroke-width="0.595922" stroke-linecap="round"></path><path d="M132.813 28.0224L149.597 34.4449" stroke="#151417" stroke-width="0.595922" stroke-linecap="round"></path><path d="M125.148 48.0552L138.404 53.1275" stroke="#151417" stroke-width="0.595922" stroke-linecap="round"></path><path d="M134.626 83.985L147.882 89.0574" stroke="#151417" stroke-width="0.595922" stroke-linecap="round"></path></g><path d="M102.047 103.843C102.456 103.514 114.366 92.1542 120.524 86.0676C120.919 85.5839 121.453 81.6651 121.213 81.6318C112.527 81.0547 95.0789 79.9344 94.4031 79.9108C94.0813 79.8996 93.0835 82.9966 93.2185 83.3207C93.3432 83.6198 96.8388 88.8904 97.2584 89.4989C97.6377 90.049 96.7589 90.5035 96.4303 90.6286C93.7159 91.6614 89.6093 89.8592 89.0232 90.1173C88.6167 90.2963 87.1526 93.6344 87.3475 94.1284C87.9645 95.6922 89.6421 99.2944 89.8963 99.8272C90.1458 100.35 90.8143 100.061 91.4609 99.782L91.4978 99.7661C94.217 98.5925 98.9627 95.9872 99.215 96.2432C99.4673 96.4993 99.5409 97.1355 99.5969 97.6496C99.7726 99.2643 100.193 101.878 100.338 102.858C100.519 104.084 100.692 104.934 102.047 103.843Z" fill="#151417" stroke="#151417" stroke-width="0.595922"></path><path d="M102.728 99.8851C103.121 99.5692 115.131 87.9584 121.042 82.1162C121.421 81.6519 121.056 81.4721 120.826 81.4402C112.489 80.8862 95.6519 79.7725 95.0032 79.7498C94.1924 79.7215 94.0888 80.0321 94.2184 80.3432C94.3381 80.6304 97.6182 85.0494 98.021 85.6334C98.3851 86.1615 98.2309 86.374 97.9154 86.4941C95.31 87.4854 90.0359 89.4803 89.4733 89.728C88.9107 89.9758 88.9748 90.3729 89.1015 90.6941C89.6938 92.1951 90.8781 95.1685 91.1259 95.7311C91.3737 96.2937 91.8252 96.4155 92.2478 96.2331C94.8579 95.1066 99.9591 92.8246 100.28 92.7321C100.695 92.6125 100.901 92.7398 100.955 93.2332C101.124 94.7831 101.496 98.1182 101.635 99.059C101.809 100.235 102.196 100.313 102.728 99.8851Z" fill="white" stroke="#151417" stroke-width="0.595922"></path><path d="M227.771 71.571C227.645 70.9193 226.711 69.4253 225.063 68.1355L224.647 67.8518L224.407 68.1198C219.79 72.9497 210.73 82.2618 211.093 83.1742C211.174 83.3792 213.144 85.1275 213.801 85.3525C215.614 85.9259 220.04 85.6033 224.046 81.2048C228.695 76.1017 228.025 72.8798 227.771 71.571Z" fill="#FFDE06" stroke="#151417" stroke-width="0.6" stroke-linecap="round" stroke-linejoin="round"></path><path d="M212.89 72.2425C217.095 66.8289 222.216 66.3359 224.34 67.6214C226.223 68.4615 227.836 74.0544 221.72 80.0479C215.752 85.8957 211.898 84.2615 210.858 82.8628C209.783 81.5784 208.685 77.6562 212.89 72.2425Z" fill="#FFDE06" stroke="#151417" stroke-width="0.6" stroke-linecap="round" stroke-linejoin="round"></path><path d="M248.968 53.7673C248.551 53.332 247.105 52.6504 245.214 52.4751L244.757 52.4631L244.706 52.7852C243.554 58.738 241.211 70.2928 241.936 70.8109C242.099 70.9273 244.461 71.2946 245.073 71.1436C246.738 70.691 249.957 68.2718 250.855 62.948C251.897 56.7713 249.804 54.6413 248.968 53.7673Z" fill="#FFDE06" stroke="#151417" stroke-width="0.6" stroke-linecap="round" stroke-linejoin="round"></path><path d="M237.941 61.5859C238.492 55.39 242.158 52.4998 244.41 52.4379C246.26 52.1543 250.236 55.6306 248.511 63.2074C246.828 70.6002 243.085 71.2453 241.604 70.6887C240.153 70.2361 237.39 67.7818 237.941 61.5859Z" fill="#FFDE06" stroke="#151417" stroke-width="0.6" stroke-linecap="round" stroke-linejoin="round"></path><path d="M245.104 59.3515C243.165 58.2458 242.37 59.1888 242.258 59.675C242.146 60.1611 242.299 60.8327 243.359 61.3952C244.586 62.0461 245.162 62.8254 244.61 63.7219C244.057 64.6184 242.671 64.7508 241.71 63.5037" stroke="#151417" stroke-width="0.6" stroke-linecap="round"></path><path d="M244.059 57.8203L243.905 58.5233" stroke="#151417" stroke-width="0.6" stroke-linecap="round"></path><path d="M242.932 64.7217L242.794 65.428" stroke="#151417" stroke-width="0.6" stroke-linecap="round"></path><path d="M220.54 74.3486C219.498 72.0223 218.129 72.3557 217.699 72.7285C217.268 73.1013 216.956 73.8234 217.554 75.0566C218.247 76.4837 218.252 77.5904 217.139 78.0444C216.025 78.4983 214.658 77.6864 214.613 75.8889" stroke="#151417" stroke-width="0.6" stroke-linecap="round"></path><path d="M220.609 72.2325L219.994 72.7771" stroke="#151417" stroke-width="0.6" stroke-linecap="round"></path><path d="M214.918 77.835L214.315 78.3934" stroke="#151417" stroke-width="0.6" stroke-linecap="round"></path></svg> 