<svg width="25" height="25" fill="none" xmlns="http://www.w3.org/2000/svg"><g clip-path="url(#clip0_9680_181203)" stroke="#FFDE06" stroke-width="1.5" stroke-linecap="round" stroke-linejoin="round"><path d="M16.104 15.658a1.476 1.476 0 102.951 0 1.476 1.476 0 00-2.95 0z"/><path d="M18.834 9.947l.436 1.43a.977.977 0 001.154.67l1.45-.336a1.318 1.318 0 011.255 2.184l-1.015 1.094a.986.986 0 000 1.335l1.015 1.094a1.318 1.318 0 01-1.254 2.184l-1.45-.336a.977.977 0 00-1.155.67l-.436 1.43a1.31 1.31 0 01-2.508 0l-.436-1.43a.977.977 0 00-1.154-.67l-1.45.336a1.318 1.318 0 01-1.255-2.184l1.015-1.094a.986.986 0 000-1.335l-1.015-1.094a1.318 1.318 0 011.255-2.184l1.45.336a.977.977 0 001.154-.67l.436-1.43a1.31 1.31 0 012.508 0z"/><path d="M14.242 7.923V3.814h-11.3v13.352l6.164.001M6.024 6.896h5.136M6.024 9.977h5.136m-5.136 3.082h3.082"/></g><defs><clipPath id="clip0_9680_181203"><path fill="#fff" d="M0 0h25v25H0z"/></clipPath></defs></svg>