<?xml version="1.0" encoding="UTF-8"?> <svg xmlns="http://www.w3.org/2000/svg" width="140" height="104" viewBox="0 0 140 104" fill="none"><path d="M92.0323 80.9892L80.6939 72.0251L75.0247 77.0674L88.0639 86.0314L92.0323 80.9892Z" fill="white" stroke="#151417" stroke-width="1.5"></path><path d="M86.0828 69.8129C77.3808 87.01 56.376 93.8918 39.1674 85.184C21.9588 76.4761 15.0628 55.476 23.7648 38.2789C32.4668 21.0819 55.0994 16.1988 70.6802 22.9079C86.261 29.6169 94.7848 52.6158 86.0828 69.8129Z" fill="white"></path><path d="M39.1674 85.184L38.8288 85.8532L39.1674 85.184ZM85.4136 69.4743C76.8988 86.3013 56.3455 93.0358 39.506 84.5148L38.8288 85.8532C56.4066 94.7478 77.8627 87.7186 86.752 70.1515L85.4136 69.4743ZM39.506 84.5148C22.6666 75.9937 15.9192 55.4446 24.434 38.6176L23.0956 37.9403C14.2064 55.5074 21.251 76.9585 38.8288 85.8532L39.506 84.5148ZM24.434 38.6176C32.9186 21.8502 55.0827 17.0082 70.3836 23.5967L70.9768 22.219C55.1161 15.3895 32.0151 20.3135 23.0956 37.9403L24.434 38.6176ZM70.3836 23.5967C77.9375 26.8495 83.8393 34.0848 86.7779 42.6703C89.7144 51.2495 89.6588 61.0848 85.4136 69.4743L86.752 70.1515C91.2088 61.344 91.2423 51.0813 88.1971 42.1845C85.1541 33.2941 79.0036 25.6754 70.9768 22.219L70.3836 23.5967Z" fill="#151417"></path><path d="M56.6496 80.5703C42.3495 81.4119 30.0742 70.4939 29.232 56.1842C28.3898 41.8745 39.2996 29.592 53.5997 28.7503C67.8998 27.9087 79.4999 40.6198 81.0172 53.1364C82.5345 65.653 70.9496 79.7287 56.6496 80.5703Z" fill="#DFCFFF"></path><path d="M65.7302 66.3351C59.4051 72.5328 49.2501 72.426 43.0483 66.0968C36.8464 59.7675 36.9463 49.6124 43.2714 43.4147C49.5964 37.217 60.1646 38.4337 65.9533 43.653C71.7419 48.8723 72.0552 60.1374 65.7302 66.3351Z" fill="white" stroke="#151417" stroke-width="1.5" stroke-linecap="round" stroke-linejoin="round"></path><path d="M60.4012 57.8545C58.7549 61.108 54.7811 62.41 51.5254 60.7626C48.2697 59.1151 46.965 55.1421 48.6114 51.8886C50.2577 48.6351 54.5395 47.7113 57.4872 48.9806C60.435 50.2499 62.0476 54.601 60.4012 57.8545Z" fill="#151417"></path><path d="M87.3272 36.4824C87.9798 35.1927 89.7616 34.3393 90.5709 34.0739L96.2359 32.2158L101.901 30.3575C103.52 29.8268 101.351 32.7791 101.079 33.3164C99.7213 35.5544 97.7135 38.6331 97.2784 39.4929C97.0065 40.0303 98.0812 40.5741 99.156 41.118L106.142 44.6529C107.861 45.5231 106.133 46.4485 105.054 46.8024L95.3426 49.9879C94.0477 50.4126 92.291 49.7937 91.5745 49.4311L83.2484 44.543L87.3272 36.4824Z" fill="#600DFF"></path><path d="M90.5709 34.0739L90.3371 33.3612L90.3371 33.3612L90.5709 34.0739ZM83.2484 44.543L82.5792 44.2044L82.2611 44.833L82.8687 45.1898L83.2484 44.543ZM91.5745 49.4311L91.1948 50.0779L91.215 50.0897L91.2359 50.1003L91.5745 49.4311ZM95.3426 49.9879L95.1088 49.2752L95.1088 49.2752L95.3426 49.9879ZM105.054 46.8024L105.288 47.5151L105.054 46.8024ZM101.079 33.3164L101.72 33.7054L101.735 33.6808L101.748 33.6551L101.079 33.3164ZM101.901 30.3575L101.667 29.6449L101.667 29.6449L101.901 30.3575ZM96.2359 32.2158L96.4696 32.9285L96.4697 32.9285L96.2359 32.2158ZM90.3371 33.3612C89.8758 33.5125 89.1687 33.8192 88.482 34.2649C87.8056 34.7039 87.0707 35.3281 86.658 36.1437L87.9964 36.821C88.2363 36.3469 88.7186 35.8996 89.2986 35.5231C89.8683 35.1534 90.4566 34.9007 90.8046 34.7865L90.3371 33.3612ZM86.658 36.1437L82.5792 44.2044L83.9176 44.8816L87.9964 36.821L86.658 36.1437ZM82.8687 45.1898L91.1948 50.0779L91.9542 48.7843L83.6281 43.8962L82.8687 45.1898ZM91.2359 50.1003C91.6473 50.3085 92.3267 50.5768 93.0855 50.7383C93.8323 50.8972 94.7471 50.9725 95.5763 50.7005L95.1088 49.2752C94.6432 49.428 94.0322 49.4062 93.3978 49.2712C92.7754 49.1387 92.2182 48.9163 91.9131 48.7619L91.2359 50.1003ZM95.5763 50.7005L105.288 47.5151L104.82 46.0898L95.1088 49.2752L95.5763 50.7005ZM105.288 47.5151C105.59 47.4161 105.939 47.2767 106.269 47.1041C106.588 46.9369 106.939 46.7129 107.201 46.4278C107.46 46.1447 107.738 45.6713 107.569 45.0951C107.416 44.5753 106.965 44.229 106.48 43.9837L105.803 45.3221C106.178 45.512 106.156 45.6076 106.129 45.5171C106.086 45.3703 106.187 45.3135 106.094 45.4147C106.004 45.514 105.828 45.6421 105.573 45.7751C105.329 45.9028 105.058 46.0118 104.82 46.0898L105.288 47.5151ZM106.48 43.9837L99.4946 40.4488L98.8173 41.7872L105.803 45.3221L106.48 43.9837ZM99.4946 40.4488C98.9369 40.1665 98.464 39.9247 98.1562 39.6986C98.0843 39.6458 98.0323 39.6014 97.9963 39.5659C97.9593 39.5294 97.95 39.5127 97.9526 39.5172C97.9726 39.5513 98.0192 39.69 97.9476 39.8315L96.6092 39.1543C96.4016 39.5645 96.4806 39.9727 96.6592 40.2768C96.8159 40.5437 97.056 40.7516 97.2681 40.9074C97.6984 41.2235 98.3003 41.5255 98.8173 41.7872L99.4946 40.4488ZM97.9476 39.8315C98.1452 39.4409 98.7308 38.4948 99.4679 37.3202C100.191 36.1676 101.037 34.8308 101.72 33.7054L100.437 32.9275C99.7626 34.0401 98.9261 35.3616 98.1974 36.5228C97.4825 37.662 96.8466 38.6851 96.6092 39.1543L97.9476 39.8315ZM101.748 33.6551C101.795 33.5621 101.945 33.3329 102.185 32.9519C102.402 32.6061 102.664 32.178 102.868 31.7751C102.97 31.5738 103.066 31.3622 103.134 31.1587C103.197 30.9729 103.265 30.7146 103.24 30.4494C103.227 30.3066 103.183 30.127 103.064 29.957C102.938 29.7778 102.763 29.6588 102.574 29.5971C102.243 29.4892 101.906 29.5667 101.667 29.6449L102.135 31.0702C102.301 31.0157 102.25 31.0693 102.109 31.0233C102.015 30.9926 101.911 30.9261 101.835 30.8179C101.766 30.7189 101.751 30.6288 101.747 30.5914C101.742 30.5367 101.756 30.5517 101.713 30.6789C101.676 30.7884 101.615 30.9296 101.53 31.0978C101.36 31.4338 101.13 31.8113 100.915 32.1536C100.722 32.4607 100.498 32.8021 100.41 32.9778L101.748 33.6551ZM101.667 29.6449L96.0021 31.5032L96.4697 32.9285L102.135 31.0702L101.667 29.6449ZM96.0022 31.5032L90.3371 33.3612L90.8046 34.7865L96.4696 32.9285L96.0022 31.5032Z" fill="#151417"></path><path d="M97.2538 40.7386C97.6449 40.6021 97.8512 40.1745 97.7147 39.7834C97.5782 39.3923 97.1505 39.1859 96.7595 39.3224L97.2538 40.7386ZM54.1322 54.2008C53.7411 54.3373 53.5348 54.765 53.6713 55.156C53.8077 55.5471 54.2354 55.7535 54.6265 55.617L54.1322 54.2008ZM96.7595 39.3224L54.1322 54.2008L54.6265 55.617L97.2538 40.7386L96.7595 39.3224Z" fill="#151417"></path><path d="M114.49 36.4543L105.417 39.7524" stroke="#151417" stroke-width="1.5" stroke-linecap="round"></path><path d="M116.205 30.9753L108.211 34.231" stroke="#151417" stroke-width="1.5" stroke-linecap="round"></path><path d="M120.029 29.7371L118.742 30.1435" stroke="#151417" stroke-width="1.5" stroke-linecap="round"></path><path d="M104.066 87.9571L90.3548 76.8389C89.8325 76.4154 89.3529 76.748 89.1784 76.9672C87.31 79.2398 83.4685 83.9166 83.0497 84.4428C82.6309 84.969 82.9471 85.3215 83.1576 85.4321C88.047 89.6372 98.3051 98.0754 100.222 98.1867C102.618 98.3259 104.296 97.342 105.759 94.3796C106.929 92.0096 106.46 89.8984 104.066 87.9571Z" fill="#151417" stroke="#151417" stroke-width="1.5" stroke-linecap="round"></path></svg> 