<?xml version="1.0" encoding="UTF-8"?> <svg xmlns="http://www.w3.org/2000/svg" width="140" height="104" viewBox="0 0 140 104" fill="none"><g clip-path="url(#clip0_3232_67354)"><path d="M99.6219 29.6171L101.236 22.3352L114.627 25.685L112.026 32.5953L99.6219 29.6171Z" fill="#151417"></path><path d="M130.718 41.322L126.392 45.329C126.884 47.0168 128.003 50.3309 128.547 50.0847C129.226 49.7769 134.295 43.7956 134.481 43.302C134.667 42.8084 133.866 41.9432 133.064 41.078C132.263 40.2128 131.233 40.9523 130.718 41.322Z" fill="#151417"></path><path d="M75.7963 28.5383L78.7523 34.1592C80.2756 33.6055 83.3594 32.3994 83.508 32.0046C83.6938 31.511 79.7506 25.5185 78.7635 25.1469C77.7763 24.7753 76.9111 25.5767 76.0459 26.3781L76.0459 26.3781C75.3538 27.0192 75.5911 28.0854 75.7963 28.5383Z" fill="#151417"></path><path d="M99.6219 29.6171L101.236 22.3352L114.627 25.685L112.026 32.5953L99.6219 29.6171Z" stroke="#151417" stroke-width="1.5" stroke-linecap="round"></path><path d="M130.718 41.322L126.392 45.329C126.884 47.0168 128.003 50.3309 128.547 50.0847C129.226 49.7769 134.295 43.7956 134.481 43.302C134.667 42.8084 133.866 41.9432 133.064 41.078C132.263 40.2128 131.233 40.9523 130.718 41.322Z" stroke="#151417" stroke-width="1.5" stroke-linecap="round"></path><path d="M75.7963 28.5383L78.7523 34.1592C80.2756 33.6055 83.3594 32.3994 83.508 32.0046C83.6938 31.511 79.7506 25.5185 78.7635 25.1469C77.7763 24.7753 76.9111 25.5767 76.0459 26.3781L76.0459 26.3781C75.3538 27.0192 75.5911 28.0854 75.7963 28.5383Z" stroke="#151417" stroke-width="1.5" stroke-linecap="round"></path><path d="M131.476 70.2036C127.684 89.3639 108.774 101.762 89.2386 97.8955C69.7035 94.029 56.9416 75.3621 60.734 56.2017C64.5263 37.0413 85.6159 26.1577 102.972 28.5097C120.328 30.8618 135.269 51.0432 131.476 70.2036Z" fill="white" stroke="#151417" stroke-width="1.5" stroke-linecap="round" stroke-linejoin="round"></path><path d="M120.367 79.948C111.605 93.1092 93.6247 96.5369 80.2061 87.604C66.7876 78.671 63.0124 60.7602 71.774 47.599C80.5357 34.4379 99.678 32.8169 111.935 39.9431C124.191 47.0693 129.128 66.7868 120.367 79.948Z" fill="white" stroke="#151417" stroke-width="1.5" stroke-linecap="round" stroke-linejoin="round"></path><path d="M119.068 21.1139L98.5812 15.6566C97.1005 15.0992 96.667 16.2509 96.5431 16.58C96.1715 17.5672 95.967 18.5489 95.9219 19.7273C95.8581 21.3939 96.9692 21.4364 98.0183 21.6435C103.963 23.3175 116.926 26.5063 118.505 27.1008C120.085 27.6954 120.851 26.8568 121.037 26.3632C121.347 25.5406 121.941 23.6606 121.844 22.7223C121.746 21.7839 119.953 21.259 119.068 21.1139Z" fill="#DFCFFF"></path><path d="M98.5812 15.6566L98.317 16.3585L98.352 16.3717L98.3882 16.3813L98.5812 15.6566ZM119.068 21.1139L118.875 21.8386L118.911 21.8481L118.947 21.854L119.068 21.1139ZM121.844 22.7223L121.098 22.7998L121.844 22.7223ZM98.0183 21.6435L98.2216 20.9216L98.1928 20.9135L98.1635 20.9077L98.0183 21.6435ZM95.9219 19.7273L95.1725 19.6987L95.1725 19.6987L95.9219 19.7273ZM98.3882 16.3813L118.875 21.8386L119.261 20.3892L98.7743 14.9319L98.3882 16.3813ZM118.947 21.854C119.343 21.9191 119.942 22.0707 120.434 22.3002C120.68 22.4151 120.864 22.5334 120.98 22.6427C121.037 22.6953 121.067 22.7367 121.083 22.7638C121.097 22.7888 121.098 22.7995 121.098 22.7998L122.59 22.6447C122.541 22.1707 122.282 21.8065 122.006 21.5483C121.731 21.2907 121.393 21.0927 121.068 20.941C120.418 20.6372 119.678 20.4539 119.19 20.3738L118.947 21.854ZM121.098 22.7998C121.132 23.1229 121.041 23.7112 120.866 24.4016C120.699 25.0606 120.482 25.7094 120.335 26.099L121.739 26.6274C121.902 26.1944 122.137 25.492 122.32 24.7707C122.495 24.0809 122.654 23.26 122.59 22.6447L121.098 22.7998ZM120.335 26.099C120.303 26.1837 120.19 26.3583 119.97 26.4634C119.774 26.5572 119.404 26.6377 118.769 26.3989L118.241 27.8028C119.186 28.1585 119.989 28.117 120.617 27.8168C121.222 27.5279 121.585 27.0363 121.739 26.6274L120.335 26.099ZM118.769 26.3989C118.331 26.2338 117.179 25.9119 115.667 25.5081C114.134 25.0985 112.176 24.5911 110.086 24.0508C105.9 22.9688 101.184 21.7558 98.2216 20.9216L97.815 22.3654C100.797 23.2052 105.534 24.4235 109.711 25.5031C111.802 26.0436 113.753 26.5495 115.28 26.9573C116.829 27.371 117.89 27.6706 118.241 27.8028L118.769 26.3989ZM98.1635 20.9077C97.8572 20.8472 97.6476 20.8169 97.4114 20.7611C97.1921 20.7094 97.0455 20.6548 96.9436 20.5926C96.8557 20.5389 96.7985 20.4785 96.7559 20.3862C96.708 20.2825 96.6585 20.0933 96.6714 19.756L95.1725 19.6987C95.1535 20.1947 95.2189 20.6358 95.3942 21.0152C95.5747 21.4061 95.8489 21.6817 96.1619 21.8728C96.461 22.0555 96.7849 22.1545 97.067 22.2211C97.3321 22.2836 97.6549 22.3362 97.8731 22.3793L98.1635 20.9077ZM96.6714 19.756C96.7135 18.6563 96.9024 17.7543 97.245 16.8442L95.8412 16.3158C95.4405 17.3801 95.2206 18.4415 95.1725 19.6987L96.6714 19.756ZM97.245 16.8442C97.3086 16.6753 97.3927 16.4802 97.5356 16.3603C97.5934 16.3117 97.6614 16.2758 97.7584 16.2624C97.8603 16.2483 98.0377 16.2534 98.317 16.3585L98.8454 14.9547C97.8866 14.5938 97.1148 14.755 96.5711 15.2115C96.0961 15.6103 95.9015 16.1556 95.8412 16.3158L97.245 16.8442Z" fill="#151417"></path><mask id="mask0_3232_67354" style="mask-type:alpha" maskUnits="userSpaceOnUse" x="65" y="35" width="60" height="60"><path d="M119.512 80.8616C110.759 94.0258 92.814 97.4669 79.4313 88.5474C66.0485 79.628 62.2958 61.7256 71.0493 48.5614C79.8028 35.3971 98.9056 33.7613 111.13 40.8755C123.355 47.9897 128.266 67.6973 119.512 80.8616Z" fill="white" stroke="#151417" stroke-width="1.5" stroke-linecap="round" stroke-linejoin="round"></path></mask><g mask="url(#mask0_3232_67354)"><path d="M95.0356 63.38C94.7162 62.8771 100.057 45.4591 102.744 37.4118C102.61 37.2022 105.397 37.8472 105.397 37.8472C114.16 40.0185 120.327 47.7146 122.598 55.0287C124.381 60.7716 124.805 67.1301 123.133 71.5724C121.592 71.231 95.4349 64.0087 95.0356 63.38Z" fill="#DFCFFF"></path></g><path d="M91.1502 82.6815C91.2469 82.2787 90.9988 81.8738 90.596 81.7771C90.1932 81.6804 89.7883 81.9285 89.6916 82.3312L91.1502 82.6815ZM88.6989 86.4658C88.6022 86.8685 88.8503 87.2734 89.253 87.3702C89.6558 87.4669 90.0607 87.2188 90.1574 86.816L88.6989 86.4658ZM89.6916 82.3312L88.6989 86.4658L90.1574 86.816L91.1502 82.6815L89.6916 82.3312Z" fill="#151417"></path><path d="M103.795 40.1048C103.892 39.702 103.644 39.2971 103.241 39.2004C102.838 39.1037 102.433 39.3518 102.337 39.7546L103.795 40.1048ZM101.344 43.8891C101.247 44.2919 101.495 44.6968 101.898 44.7935C102.301 44.8902 102.706 44.6421 102.802 44.2393L101.344 43.8891ZM102.337 39.7546L101.344 43.8891L102.802 44.2393L103.795 40.1048L102.337 39.7546Z" fill="#151417"></path><path d="M71.0604 55.8274C70.6576 55.7307 70.2527 55.9788 70.156 56.3815C70.0593 56.7843 70.3074 57.1892 70.7101 57.2859L71.0604 55.8274ZM74.8447 58.2787C75.2474 58.3754 75.6523 58.1273 75.7491 57.7245C75.8458 57.3217 75.5977 56.9168 75.1949 56.8201L74.8447 58.2787ZM70.7101 57.2859L74.8447 58.2787L75.1949 56.8201L71.0604 55.8274L70.7101 57.2859Z" fill="#151417"></path><path d="M108.384 55.1972L94.3028 61.1674C91.6206 62.3046 92.1371 65.4239 94.2972 65.6735C95.5546 65.8188 98.4142 64.2177 99.7323 63.2111C103.439 60.8495 110.606 56.0403 110.544 55.4468C110.422 54.2738 109.002 55.054 108.384 55.1972Z" fill="#151417" stroke="#151417" stroke-linecap="round"></path><path d="M91.0761 98.0872H51.521" stroke="#151417" stroke-width="1.5" stroke-linecap="round"></path><path d="M61.014 89.6487H39.918" stroke="#151417" stroke-width="1.5" stroke-linecap="round"></path><path d="M43.0824 67.4978H21.9863" stroke="#151417" stroke-width="1.5" stroke-linecap="round"></path><path d="M61.0142 53.7854L43.0825 53.7854" stroke="#151417" stroke-width="1.5" stroke-linecap="round"></path><path d="M37.8086 53.7854L33.5894 53.7854" stroke="#151417" stroke-width="1.5" stroke-linecap="round"></path><path d="M39.4707 24.0919C39.6549 23.723 40.1812 23.723 40.3654 24.0919L42.0355 27.4365C42.7133 28.7937 43.8136 29.894 45.1708 30.5718L48.5155 32.2419C48.8843 32.4261 48.8843 32.9524 48.5155 33.1366L45.1708 34.8068C43.8136 35.4845 42.7133 36.5848 42.0355 37.9421L40.3654 41.2867C40.1812 41.6555 39.6549 41.6555 39.4707 41.2867L37.8006 37.9421C37.1228 36.5848 36.0225 35.4845 34.6652 34.8068L31.3206 33.1366C30.9518 32.9524 30.9518 32.4261 31.3206 32.2419L34.6652 30.5718C36.0225 29.894 37.1228 28.7937 37.8006 27.4365L39.4707 24.0919Z" fill="#600DFF"></path><path d="M22.0665 79.9964C22.2507 79.6276 22.777 79.6276 22.9611 79.9964L24.1043 82.2857C24.7821 83.643 25.8824 84.7433 27.2397 85.4211L29.529 86.5643C29.8979 86.7485 29.8979 87.2748 29.529 87.4589L27.2397 88.6021C25.8824 89.2799 24.7821 90.3802 24.1043 91.7375L22.9611 94.0268C22.777 94.3957 22.2507 94.3957 22.0665 94.0268L20.9233 91.7375C20.2455 90.3802 19.1452 89.2799 17.7879 88.6021L15.4986 87.4589C15.1298 87.2748 15.1298 86.7485 15.4986 86.5643L17.7879 85.4211C19.1452 84.7433 20.2455 83.643 20.9233 82.2857L22.0665 79.9964Z" fill="#600DFF"></path><path d="M9.93629 45.188C10.1205 44.8192 10.6468 44.8192 10.831 45.188L11.7985 47.1256C12.4763 48.4829 13.5766 49.5832 14.9338 50.261L16.8714 51.2285C17.2403 51.4127 17.2403 51.939 16.8714 52.1232L14.9338 53.0907C13.5766 53.7685 12.4763 54.8688 11.7985 56.2261L10.8309 58.1637C10.6468 58.5325 10.1205 58.5325 9.93629 58.1637L8.96874 56.2261C8.29099 54.8688 7.19066 53.7685 5.83341 53.0907L3.89581 52.1232C3.52698 51.939 3.52698 51.4127 3.89581 51.2285L5.83341 50.261C7.19066 49.5832 8.29099 48.4829 8.96874 47.1256L9.93629 45.188Z" fill="#600DFF"></path><path d="M116.175 68.7644C115.772 68.6677 115.367 68.9158 115.271 69.3185C115.174 69.7213 115.422 70.1262 115.825 70.2229L116.175 68.7644ZM119.959 71.2157C120.362 71.3124 120.767 71.0643 120.864 70.6615C120.961 70.2587 120.712 69.8538 120.31 69.7571L119.959 71.2157ZM115.825 70.2229L119.959 71.2157L120.31 69.7571L116.175 68.7644L115.825 70.2229Z" fill="#151417"></path></g><defs><clipPath id="clip0_3232_67354"><rect width="140" height="104" fill="white"></rect></clipPath></defs></svg> 