<svg width="25" height="25" fill="none" xmlns="http://www.w3.org/2000/svg"><rect width="25" height="25" rx="1" fill="#fff"/><path d="M19.805 17.425c0 1.357-.77 2.37-1.62 2.715-.85.347-2.716.234-2.716.234M5.263 8.99c.28-2.132 2.15-6.414 7.379-6.485 5.229-.07 6.94 4.294 7.143 6.485M7.25 16.206V9.909a.445.445 0 00-.264-.418c-.412-.174-1.26-.454-2.224-.325-2.065.275-2.22 2.838-2.22 3.738 0 2.114.236 3.62 2.22 4.08 1.25.29 2.04-.171 2.37-.477a.404.404 0 00.118-.301zm10.5-6.203v6.296c0 .182.097.348.264.419.412.174 1.26.454 2.224.325 2.065-.275 2.219-2.838 2.219-3.738 0-2.114-.235-3.62-2.22-4.08-1.248-.29-2.039.17-2.368.477a.404.404 0 00-.12.301z" stroke="#0655FF" stroke-width="1.5"/><rect x="9.347" y="18.456" width="6.412" height="3.79" rx="1.895" fill="#fff" stroke="#0655FF" stroke-width="1.5"/></svg>