<svg width="150" height="70" viewBox="0 0 150 70" fill="none" xmlns="http://www.w3.org/2000/svg">
<g clip-path="url(#clip0_2204_45622)">
<path d="M32.0957 36.5528H36.5071V39.3295C36.5071 40.7178 36.5071 42.1285 38.6568 42.1285C40.8288 42.1285 40.8288 40.6954 40.8288 38.5681C40.8288 36.8663 40.493 36.1497 39.3285 35.366L35.1187 32.5445C32.8795 31.0218 32.2525 29.3423 32.2525 26.9015C32.2525 25.0206 32.4316 23.2292 33.9767 21.9304C34.8724 21.1914 36.4847 20.4973 38.8135 20.4973C41.3887 20.4973 44.9267 21.5497 44.9267 25.6699V28.0436H40.5377V26.3193C40.5377 25.1549 40.5377 23.8785 38.5896 23.8785C37.4028 23.8785 36.5519 24.3264 36.5519 26.2522C36.5519 28.2675 36.9997 28.693 37.9402 29.3423L42.2844 32.2982C43.1353 32.9028 44.0534 33.7537 44.5684 34.6494C45.2178 35.7466 45.2178 36.4856 45.2178 38.4338C45.2178 40.5834 45.2178 41.9046 44.4341 43.1586C43.1129 45.3083 40.3586 45.5322 38.7239 45.5322C34.9396 45.5322 32.0509 44.0991 32.0509 40.0684V36.5528H32.0957Z" fill="#233D43"/>
<path d="M50.0994 20.9675H61.7212V24.6399H54.5107V30.2828H61.2957V33.9328H54.5107V41.3H62.0347V45.0172H50.0994V20.9675Z" fill="#233D43"/>
<path d="M71.1933 20.9899H66.8043V44.9948H71.1933V20.9899Z" fill="#233D43"/>
<path d="M75.8957 36.5528H80.307V39.3295C80.307 40.7178 80.307 42.1285 82.4567 42.1285C84.6288 42.1285 84.6288 40.6954 84.6288 38.5681C84.6288 36.8663 84.2929 36.1497 83.1285 35.366L78.9187 32.5445C76.6794 31.0218 76.0524 29.3423 76.0524 26.9015C76.0524 25.0206 76.2316 23.2292 77.7767 21.9304C78.6724 21.1914 80.307 20.4973 82.6135 20.4973C85.211 20.4973 88.7267 21.5497 88.7267 25.6699V28.0436H84.3377V26.3193C84.3377 25.1549 84.3377 23.8785 82.3895 23.8785C81.2027 23.8785 80.3518 24.3264 80.3518 26.2522C80.3518 28.2675 80.7997 28.693 81.7402 29.3423L86.0843 32.2982C86.9352 32.9028 87.8534 33.7537 88.3684 34.6494C89.0178 35.7466 89.0178 36.4856 89.0178 38.4338C89.0178 40.5834 89.0178 41.9046 88.234 43.1586C86.9129 45.3083 84.1586 45.5322 82.5239 45.5322C78.7395 45.5322 75.8509 44.0991 75.8509 40.0684V36.5528H75.8957Z" fill="#233D43"/>
<path d="M93.8994 20.9899H101.087L103.931 37.8067L106.753 20.9899H113.874V45.0172H109.485L109.888 24.192L106.014 45.0172H101.871L97.9077 24.192L98.266 45.0172H93.8994V20.9899Z" fill="#233D43"/>
<path d="M123.032 20.9899H118.643V44.9948H123.032V20.9899Z" fill="#233D43"/>
<path d="M136.49 29.7678V26.7C136.49 24.9086 136.177 23.8785 134.251 23.8785C132.325 23.8785 132.213 25.4012 132.213 26.4985V39.3742C132.213 40.8074 132.459 42.0838 134.43 42.0838C136.513 42.0838 136.513 40.5834 136.513 39.1279V35.993H140.902V39.3966C140.902 41.3448 140.902 45.5098 134.363 45.5098C133.109 45.5098 131.094 45.2859 129.705 44.3678C127.802 43.1138 127.802 41.2328 127.802 39.9117V26.8568C127.802 24.9086 127.914 23.5874 128.989 22.4006C130.713 20.5196 133.445 20.4973 134.363 20.4973C140.902 20.4973 140.902 24.3712 140.902 26.073V29.7902H136.49V29.7678Z" fill="#233D43"/>
<path d="M14.2488 28.6034H21.9966C21.9966 24.3488 18.5258 20.9003 14.2488 20.9003C9.97178 20.9003 6.52332 24.3488 6.52332 28.6034C6.52332 32.858 9.99417 36.3064 14.2488 36.3064V28.6034Z" fill="#233D43"/>
<path d="M15.7491 37.8515H8.00122C8.00122 42.1061 11.4721 45.5546 15.7491 45.5546C20.0261 45.5546 23.4745 42.1061 23.4745 37.8515C23.4745 33.5969 20.0037 30.1485 15.7491 30.1485V37.8515Z" fill="#E95517"/>
</g>
<defs>
<clipPath id="clip0_2204_45622">
<rect width="150" height="50" fill="white" transform="translate(0 7)"/>
</clipPath>
</defs>
</svg>
