<?xml version="1.0" encoding="UTF-8"?> <svg xmlns="http://www.w3.org/2000/svg" width="56" height="56" viewBox="0 0 56 56" fill="none"><g clip-path="url(#clip0_2284_45920)"><rect x="17.6723" y="9.22412" width="12.1168" height="5.05403" rx="0.5" stroke="#151417"></rect><path d="M39.4978 13.3277L9.29109 13.7065H7.52534C6.81905 13.7065 6.4743 14.8414 6.39022 15.4089C6.18004 22.3878 6.39052 36.0728 6.39052 37.0818C6.39052 38.7462 8.11191 38.7462 8.70046 38.7462C18.8325 38.7673 38.2366 38.9185 39.4978 38.868C40.7589 38.8176 41.1584 37.7119 41.2005 37.1653V15.7246C41.2006 13.6561 40.0654 13.2648 39.4978 13.3277Z" fill="white" stroke="#151417"></path><path d="M7.08527 14.3369L13.076 27.3274C13.2022 27.6636 13.6563 28.3362 14.4635 28.3362C15.2707 28.3362 27.2862 28.3362 33.193 28.3362C33.5503 28.2732 34.3029 27.9834 34.4542 27.3274C34.6056 26.6714 38.4272 18.0991 40.319 13.8949" stroke="#151417"></path><rect x="20.705" y="25.1202" width="6.43232" height="6.6219" rx="1" fill="#151417"></rect><rect x="46.1001" y="26.7092" width="4.63235" height="1.92761" rx="0.5" transform="rotate(23.0226 46.1001 26.7092)" fill="#151417"></rect><rect x="46.5924" y="28.4657" width="2.30674" height="1.60117" transform="rotate(23.0226 46.5924 28.4657)" fill="#151417"></rect><path d="M50.7053 32.9814C47.2629 29.2744 43.2802 29.5302 41.3407 29.9885C40.0478 30.2941 36.6713 31.5977 34.8723 35.1319C32.3953 39.9984 35.1076 44.5051 36.3665 45.6319C38.7443 47.7603 43.0698 49.8616 47.614 47.8465C52.3977 45.7253 54.9423 37.5441 50.7053 32.9814Z" fill="white"></path><path d="M41.3407 29.9885L41.2265 29.5027L41.2265 29.5027L41.3407 29.9885ZM50.7053 32.9814L51.073 32.6416L50.7053 32.9814ZM47.614 47.8465L47.4116 47.3904L47.614 47.8465ZM36.3665 45.6319L36.7014 45.2599L36.7014 45.2599L36.3665 45.6319ZM34.8723 35.1319L35.3187 35.357L34.8723 35.1319ZM41.455 30.4744C43.2935 30.0399 47.0619 29.7937 50.3375 33.3212L51.073 32.6416C47.4639 28.755 43.2669 29.0205 41.2265 29.5027L41.455 30.4744ZM50.3375 33.3212C52.3129 35.4484 52.7321 38.4475 52.056 41.2124C51.3775 43.9868 49.6241 46.4093 47.4116 47.3904L47.8164 48.3027C50.3876 47.1626 52.2983 44.4339 53.0288 41.4466C53.7616 38.4499 53.3347 35.0771 51.073 32.6416L50.3375 33.3212ZM47.4116 47.3904C43.1239 49.2916 39.0066 47.3232 36.7014 45.2599L36.0315 46.0039C38.482 48.1973 43.0157 50.4315 47.8164 48.3027L47.4116 47.3904ZM36.7014 45.2599C36.1518 44.768 35.2045 43.446 34.7007 41.6487C34.202 39.8695 34.1472 37.6584 35.3187 35.357L34.426 34.9068C33.1204 37.4719 33.1833 39.9474 33.7362 41.9199C34.284 43.8743 35.3222 45.3691 36.0315 46.0039L36.7014 45.2599ZM35.3187 35.357C37.0247 32.0053 40.2383 30.7619 41.455 30.4744L41.2265 29.5027C39.8572 29.8262 36.3178 31.19 34.426 34.9068L35.3187 35.357Z" fill="#151417"></path><path d="M36.3609 37.0384C37.8974 31.427 43.294 31.3204 46.1571 32.034C46.3561 32.0836 46.437 32.3174 46.3239 32.4884C45.9381 33.0716 45.1549 34.3183 44.5942 35.6257C43.823 37.424 43.4617 38.7402 43.5667 39.1824C43.658 39.5669 47.8003 43.2998 48.8795 44.2672C49.015 44.3887 49.0102 44.6015 48.8679 44.715C45.3738 47.5017 41.7181 46.7983 40.3878 46.0927C34.4347 42.9349 36.2392 37.3247 36.3609 37.0384Z" fill="#600DFF"></path></g><defs><clipPath id="clip0_2284_45920"><rect width="56" height="56" fill="white"></rect></clipPath></defs></svg> 