<svg width="150" height="50" viewBox="0 0 150 50" fill="none" xmlns="http://www.w3.org/2000/svg">
<g clip-path="url(#clip0_6145_11248)">
<path d="M20.7937 22.2734H20.7705V29.4827H20.7937C22.2739 29.4827 23.6935 30.0787 24.7402 31.1395C25.7869 32.2004 26.3749 33.6392 26.3749 35.1395C26.3749 36.6397 25.7869 38.0786 24.7402 39.1394C23.6935 40.2003 22.2739 40.7962 20.7937 40.7962H20.7705V48.0029H20.7937C22.4604 48.0029 24.1108 47.6702 25.6506 47.0237C27.1904 46.3773 28.5895 45.4298 29.7681 44.2353C30.9466 43.0408 31.8815 41.6228 32.5193 40.0621C33.1571 38.5014 33.4854 36.8287 33.4854 35.1395C33.4854 33.4502 33.1571 31.7775 32.5193 30.2169C31.8815 28.6562 30.9466 27.2381 29.7681 26.0437C28.5895 24.8492 27.1904 23.9017 25.6506 23.2552C24.1108 22.6088 22.4604 22.276 20.7937 22.276V22.2734Z" fill="#151417"/>
<path d="M17.6917 38.7269H17.7149V31.5254H17.6917C16.2115 31.5254 14.7918 30.9294 13.7452 29.8686C12.6985 28.8077 12.1104 27.3689 12.1104 25.8686C12.1104 24.3684 12.6985 22.9296 13.7452 21.8687C14.7918 20.8078 16.2115 20.2119 17.6917 20.2119H17.7149V13H17.6917C14.3257 13 11.0975 14.3553 8.71731 16.7676C6.33716 19.18 5 22.4518 5 25.8634C5 29.275 6.33716 32.5469 8.71731 34.9592C11.0975 37.3716 14.3257 38.7269 17.6917 38.7269V38.7269Z" fill="#FECC0D"/>
<path d="M54.9795 22.3252H59.0805V38.7006H54.9795V22.3252Z" fill="#151417"/>
<path d="M58.7329 16.9672C58.9592 17.3105 59.0799 17.7141 59.0799 18.1269C59.0799 18.6805 58.863 19.2115 58.4767 19.6029C58.0905 19.9944 57.5667 20.2143 57.0204 20.2143C56.6131 20.2143 56.2149 20.0919 55.8762 19.8625C55.5376 19.6331 55.2736 19.3071 55.1177 18.9257C54.9618 18.5443 54.921 18.1246 55.0005 17.7197C55.08 17.3148 55.2761 16.9429 55.5642 16.6509C55.8522 16.359 56.2191 16.1602 56.6187 16.0797C57.0182 15.9991 57.4323 16.0405 57.8086 16.1984C58.1849 16.3564 58.5066 16.624 58.7329 16.9672Z" fill="#FFDE06"/>
<path d="M85.5188 22.2183C90.1682 22.2183 93.3347 25.7537 93.3347 30.9252V31.841H81.7499C82.0074 33.8397 83.5906 35.507 86.2397 35.507C87.6916 35.507 89.4036 34.9199 90.405 33.9415L92.2071 36.6263C90.6624 38.0666 88.2013 38.8207 85.7711 38.8207C81.024 38.8207 77.4404 35.58 77.4404 30.5051C77.4456 25.9181 80.7717 22.2183 85.5188 22.2183ZM81.6753 29.0283H89.3624C89.2646 27.5228 88.2322 25.5241 85.5188 25.5241C82.9676 25.5241 81.8684 27.455 81.6753 29.0283Z" fill="#151417"/>
<path d="M106.618 28.8639C106.618 26.6695 105.485 25.9181 103.743 25.9181C103.048 25.9258 102.364 26.0987 101.747 26.4227C101.13 26.7467 100.597 27.2128 100.19 27.7837V38.7267H96.0889V22.3148H100.19V24.6631C100.873 23.8795 101.716 23.2553 102.659 22.8333C103.603 22.4112 104.626 22.2014 105.658 22.2182C109.082 22.2182 110.729 24.183 110.729 27.2592V38.7267H106.618V28.8639Z" fill="#151417"/>
<path d="M137.184 22.2183C141.833 22.2183 145 25.7537 145 30.9252V31.841H133.415C133.672 33.8397 135.256 35.507 137.905 35.507C139.357 35.507 141.069 34.9199 142.07 33.9415L143.872 36.6263C142.327 38.0666 139.866 38.8207 137.436 38.8207C132.689 38.8207 129.105 35.58 129.105 30.5051C129.111 25.9181 132.432 22.2183 137.184 22.2183ZM133.34 29.0283H141.027C140.927 27.5228 139.897 25.5241 137.184 25.5241C134.633 25.5241 133.533 27.455 133.34 29.0283V29.0283Z" fill="#151417"/>
<path d="M40.2851 34.1033C41.0857 34.5338 43.3744 35.5227 45.3 35.5227C46.8652 35.5227 47.7302 35.0869 47.7302 34.1033C47.7302 32.9917 46.7005 32.5064 44.9242 32.1464C42.2416 31.6245 38.604 30.6878 38.604 26.9279C38.604 24.277 40.3726 22.2861 45.2974 22.2861C47.4935 22.2934 49.6442 22.9195 51.5094 24.0943L49.8541 26.9123C48.5196 25.9669 46.9333 25.4547 45.3052 25.4433C43.7322 25.4433 42.8569 25.999 42.8595 26.9149C42.8595 27.9299 43.758 28.2847 45.2871 28.5143C47.9877 28.9214 51.9805 30.1842 51.9805 34.1137C51.9805 36.9838 49.6121 38.7346 45.2871 38.7346C42.5763 38.7346 39.9041 37.9075 38.5938 37.0178L40.2851 34.1033Z" fill="#151417"/>
<path d="M63.4804 34.1033C64.2785 34.5338 66.5697 35.5227 68.4953 35.5227C70.058 35.5227 70.923 35.0869 70.923 34.1033C70.923 32.9917 69.8932 32.5064 68.1169 32.1464C65.437 31.6245 61.7968 30.6878 61.7968 26.9279C61.7968 24.277 63.5654 22.2861 68.4902 22.2861C70.6863 22.2925 72.8374 22.9186 74.7022 24.0943L73.0468 26.9123C71.7125 25.9666 70.1261 25.4543 68.4979 25.4433C66.925 25.4433 66.0497 25.999 66.0522 26.9149C66.0522 27.9299 66.9507 28.2847 68.4825 28.5143C71.1804 28.9214 75.1758 30.1842 75.1758 34.1137C75.1758 36.9838 72.81 38.7346 68.4825 38.7346C65.7691 38.7346 63.0994 37.9075 61.7891 37.0178L63.4804 34.1033Z" fill="#151417"/>
<path d="M115.143 34.1033C115.943 34.5338 118.232 35.5227 120.16 35.5227C121.723 35.5227 122.588 35.0869 122.588 34.1033C122.588 32.9917 121.558 32.5064 119.782 32.1464C117.102 31.6245 113.461 30.6878 113.461 26.9279C113.461 24.277 115.23 22.2861 120.155 22.2861C122.351 22.2925 124.502 22.9186 126.367 24.0943L124.712 26.9123C123.377 25.9666 121.791 25.4543 120.163 25.4433C118.59 25.4433 117.714 25.999 117.717 26.9149C117.717 27.9299 118.615 28.2847 120.145 28.5143C122.845 28.9214 126.838 30.1842 126.838 34.1137C126.838 36.9838 124.472 38.7346 120.145 38.7346C117.434 38.7346 114.762 37.9075 113.451 37.0178L115.143 34.1033Z" fill="#151417"/>
</g>
<defs>
<clipPath id="clip0_6145_11248">
<rect width="140" height="35" fill="white" transform="translate(5 13)"/>
</clipPath>
</defs>
</svg>
