<svg width="25" height="25" fill="none" xmlns="http://www.w3.org/2000/svg"><path d="M20.25 4.75v19.5M3.75 4.75h16.5m-16.5 19.5V4.75m16.5 19.5H3.75m16.5-19.5H3.75l1.5-3h13.5l1.5 3zM.75 24.25h22.5m-9-2.25a2.25 2.25 0 00-4.5 0v2.25h4.5V22z" stroke="#F80066" stroke-width="1.5" stroke-linecap="round" stroke-linejoin="round"/><path d="M7.5 8.125a.375.375 0 110-.75m0 .75a.375.375 0 100-.75m4.5.75a.375.375 0 010-.75m0 .75a.375.375 0 000-.75m4.5.75a.375.375 0 010-.75m0 .75a.375.375 0 000-.75m-9 5.25a.375.375 0 110-.75m0 .75a.375.375 0 100-.75m4.5.75a.375.375 0 010-.75m0 .75a.375.375 0 000-.75m4.5.75a.375.375 0 010-.75m0 .75a.375.375 0 000-.75m-9 5.25a.375.375 0 110-.75m0 .75a.375.375 0 100-.75m4.5.75a.375.375 0 010-.75m0 .75a.375.375 0 000-.75m4.5.75a.375.375 0 010-.75m0 .75a.375.375 0 000-.75" stroke="#F80066" stroke-width="1.5"/></svg>