<svg width="115" height="19" fill="none" xmlns="http://www.w3.org/2000/svg"><path d="M8.552 1.908a.5.5 0 01.896 0l2.08 4.216a.5.5 0 00.377.273l4.652.676a.5.5 0 01.277.853l-3.366 3.281a.5.5 0 00-.144.443l.795 4.633a.5.5 0 01-.726.527l-4.16-2.188a.5.5 0 00-.466 0l-4.16 2.188a.5.5 0 01-.726-.527l.795-4.633a.5.5 0 00-.144-.443L1.166 7.926a.5.5 0 01.277-.853l4.652-.676a.5.5 0 00.376-.273l2.08-4.216zm24.505-.057a.5.5 0 01.886 0l2.23 4.28a.5.5 0 00.375.264l4.938.68a.5.5 0 01.271.862l-3.538 3.267a.5.5 0 00-.153.457l.84 4.639a.5.5 0 01-.715.537l-4.468-2.226a.5.5 0 00-.446 0l-4.468 2.226a.5.5 0 01-.715-.537l.84-4.64a.5.5 0 00-.153-.456l-3.538-3.267a.5.5 0 01.27-.863l4.94-.68a.5.5 0 00.374-.264l2.23-4.279zm24 0a.5.5 0 01.886 0l2.23 4.28a.5.5 0 00.375.264l4.938.68a.5.5 0 01.271.862l-3.538 3.267a.5.5 0 00-.153.457l.84 4.639a.5.5 0 01-.715.537l-4.468-2.226a.5.5 0 00-.446 0l-4.468 2.226a.5.5 0 01-.715-.537l.84-4.64a.5.5 0 00-.153-.456l-3.538-3.267a.5.5 0 01.27-.863l4.94-.68a.5.5 0 00.374-.264l2.23-4.279zm24 0a.5.5 0 01.886 0l2.23 4.28a.5.5 0 00.375.264l4.938.68a.5.5 0 01.271.862l-3.538 3.267a.5.5 0 00-.153.457l.84 4.639a.5.5 0 01-.715.537l-4.468-2.226a.5.5 0 00-.446 0l-4.468 2.226a.5.5 0 01-.715-.537l.84-4.64a.5.5 0 00-.153-.456l-3.538-3.267a.5.5 0 01.27-.863l4.94-.68a.5.5 0 00.374-.264l2.23-4.279zm24.495.057a.5.5 0 01.896 0l2.081 4.216a.5.5 0 00.376.273l4.652.676a.5.5 0 01.277.853l-3.366 3.281a.5.5 0 00-.144.443l.795 4.633a.5.5 0 01-.726.527l-4.16-2.188a.501.501 0 00-.466 0l-4.16 2.188a.5.5 0 01-.726-.527l.795-4.633a.5.5 0 00-.144-.443l-3.366-3.281a.5.5 0 01.277-.853l4.652-.676a.5.5 0 00.376-.273l2.081-4.216z" fill="#FFDE06" stroke="#151417" stroke-width="1.5"/></svg>