<svg xmlns="http://www.w3.org/2000/svg" width="38" height="36" fill="none" viewBox="0 0 38 36"><path fill="#fff" stroke="#000" stroke-linecap="round" d="M7.121 29.905c.786-.665 1.76-1.22 2.729-2.026.05-.211.864 1.214 1.27 1.824l.029.077c.39 1.082.643 1.78 1.32 2.834.484.754.726 1.052 1.502 1.772.637.591 1.425.814 2.036.407.673-.45 1.628-1.018 1.832-2.24 0-.378-.038-1.635-.532-1.655-.588-.023-2 .284-2-.58 0-.454.374-1.502.052-1.916-.358-.46-1.185-.53-1.561-.93-.438-.619-.234-1.759 1.394-2.247.662-.199 1.76-.43 2.443-.61 1.165-.31 2.036-.408 3.257-.611 1.15-.276 2.712-.073 3.795-.073.717 0 1.303-.138 1.303-.87 0-.279-1.858-1.15-2.451-2.518-.547-1.262-1.132-2.18-1.629-3.46-.768-1.98-1.296-2.277-2.443-4.072-.875-1.37-2.035-2.647-3.257-4.072-.567-.37-3.61-5.361-3.868-4.071-.29 1.45-.407 2.443-.814 3.868-.916 1.831-1.726 3.766-2.85 5.496-.943 1.451-2.443 2.646-4.105 4.01-.85.983-2.039 1.89-2.677 3.025-.853 1.516-1.28 4.205-.445 5.812.83 1.598 1.69 2.928 3.58 3.348.575.128 1.635-.137 2.09-.522Z"/><path stroke="#000" stroke-linecap="round" d="M20.078 2.832c1.905.132 3.35 2.114 4.748 3.193.99.765 2.052 1.955 2.722 3 .474.74.863 1.543 1.29 2.31.917 1.646 1.894 3.505 1.894 5.49M27.5 1.753c.963.707 1.62 1.518 2.553 2.3.821.69 1.43 1.564 2.036 2.443.617.898 1.017 1.425 1.628 2.24.407.543.61 1.425.814 2.239M33.514 1c.906.611 2.052 1.505 2.803 2.773.238.4.501.826.704 1.232"/><path fill="#09EEE8" stroke="#000" stroke-linecap="round" d="M12.342 4.868c.108-.484.73-.778 1.629-.407 1.629.67 3.767 1.832 5.023 3.46.943 1.222 2.102 2.24 3.12 3.461 1.018 1.222 2.24 3.257 3.36 5.002.915 1.92 2.136 5.991 1.322 7.009-1.382 1.29-3.924-.587-4.886-1.629-1.007-1.09-2.088-2.28-3.12-3.342-.818-.843-1.697-2.358-2.376-3.376-1.629-2.442-2.85-3.867-3.664-7.328-.018-.82-.586-2.046-.408-2.85Z"/><mask id="mask0_1628_2090" width="17" height="22" x="11" y="3" maskUnits="userSpaceOnUse" style="mask-type:alpha"><path fill="#09EEE8" stroke="#000" stroke-linecap="round" d="M12.343 4.868c.107-.484.729-.778 1.628-.407 1.629.67 3.767 1.832 5.024 3.46.942 1.222 2.101 2.24 3.12 3.461 1.017 1.222 2.238 3.257 3.36 5.002.914 1.92 2.135 5.991 1.321 7.009-1.381 1.29-3.924-.587-4.886-1.629-1.006-1.09-2.088-2.28-3.119-3.342-.819-.843-1.698-2.358-2.377-3.376-1.629-2.442-2.85-3.867-3.664-7.328-.018-.82-.586-2.046-.407-2.85Z"/></mask><g mask="url(#mask0_1628_2090)"><path fill="#fff" stroke="#000" stroke-linecap="round" d="M17.34 13.01c-.55 0-1.74.515-1.74 1.159 1.456 1.916 2.036 3.257 3.054 4.275.513.514 1.255 1.585 1.832.61.534-.554 1.203-1.22.61-2.85l-.01-.03c-.286-.785-.589-1.618-1.21-2.209-.606-.575-1.76-.954-2.537-.954Z"/></g></svg>