<svg xmlns="http://www.w3.org/2000/svg" width="42" height="37" fill="none" viewBox="0 0 42 37"><g id="Group 4075" stroke="#000" stroke-linecap="round"><g id="Group 1947"><path id="Vector 1038" d="M18 25.326c-3.899 0-.075.045-3.967 0-2.956-.035-3.547.197-6.48 0-1.44-.097-4.152-.526-5.595-.526-1.271 0-.83-1.433-.83-2.317l.001-3.668c0-2.243-.29-4.34 0-6.564.302-2.315.223-4.563.403-6.564-.286-.879.134-2.79.54-3.64 0-.8 10.919-.282 12.811-.282 2.046 0 4.412-.333 6.423 0 2.623 0 3.834-.141 6.667-.141 1.733.249 2.876.09 4.63.172.326.015 2.198-.11 2.307.36.202.872 0 2.016 0 2.912V15.5"/><path id="Vector 1039" fill="#F6BF56" d="M5.624 5.598C4.51 4.35 3.326 3.184 2.134 2.005 3.44.809 24.466 1.637 34.5 2c-.812.401-3.137 1.842-3.78 2.618C28 6.5 26.5 7.795 24.5 10c-1.522 1.678-3.707 4.296-6 5-1.08.331-3.57-.216-4.258-1.02-.988-1.153-2.297-2.004-3.29-3.163-1.647-1.925-3.656-3.346-5.328-5.219Z"/><path id="Vector 1040" d="M13.467 14.066c-2.598 2.787-2.78 1.777-4.82 5.009-.334.527-6.135 4.682-6.514 5.191"/><path id="Vector 1041" d="M22.5 13c.533.634.5.5 1 1"/></g><g id="Group 1423"><path id="Vector 475" d="M37.342 30.476c-1.328-1.103-2.587-2.1-4.205-2.908l-.646.485c.98.98 2.331 2.513 3.376 3.432.79.695 1.472 1.455 2.517 1.81.278.095 1.217.577 1.274.182.075-.532-.504-1.186-.852-1.565-.447-.487-.92-.984-1.464-1.436Z"/><path id="Vector 476" stroke-width="1.5" d="M25.39 16.343c1.855-1.018 4.039-1.348 6.912.984 1.723 1.4 2.58 4.066 2.425 5.474-.163 1.487-.562 3.157-1.579 4.333-1.582 1.83-4.314 2.48-6.65 2.187-4.672-.588-6.232-5.096-4.875-9.028.623-1.806.986-2.423 3.768-3.95Z"/></g></g></svg>