<svg xmlns="http://www.w3.org/2000/svg" width="46" height="41" fill="none" viewBox="0 0 46 41"><path fill="#fff" stroke="#000" stroke-linecap="round" d="M3.85 10.483C3.703 10.34.192 6.546 1.172 6.447c1.845 0 3.9.934 5.73.728 2.21-.248 4.533-.231 6.765-.324 2.556-.106 5.011-.687 7.583-.687h8.584c.898 0 3.276-.72 3.162 0-.106.67-.58 1.55-.95 2.141-1.224 1.96-3.422 4.12-5.078 5.872-1.13 1.196-4.531 3.946-4.531 5.58v7.413c0 1.106-.1 4.83-1.803 4.83-.931 0-2.665-.79-3.622-1.048-.86-.232-4.562-.675-4.562-1.648v-3.707c0-1.298.455-3.243-.139-4.493-.988-2.08-3.033-3.553-4.577-5.43-1.386-1.682-2.267-3.63-3.884-5.191Z"/><path fill="#fff" stroke="#000" stroke-linecap="round" d="M1 6.01c.179-1.668 4.324-2.916 5.936-3.425C12.686.77 17.143.753 22.233 1.353c2.68.466 5.375 1.056 7.952 1.823 3.77 1.123 3.737 3.187 0 4.557-3.118.69-5.475 1.072-8.315 1.01-3.169-.067-5.425 0-8.812 0-3.387 0-5.101-.455-7.42-.91C3.318 7.377 1 6.922 1 6.01Z"/><path fill="#fff" stroke="#fff" stroke-linecap="round" stroke-width="7" d="M27.289 15.119c1.518-.138 1.331-.178 2.84 0 1.56.39 2.937 2.406 3.235 3.88.243 1.199-.07 2.595-.873 3.587-.92 1.138-2.793 2.225-4.234 2.191-.973-.023-2.526-.354-3.244-1.216-1.286-1.542-1.736-3.317-.976-5.2.55-1.362 1.3-2.926 3.252-3.242Z"/><path stroke="#fff" stroke-linecap="round" stroke-width="7" d="M20 33.378c0-1.177.263-1.766.692-2.649.238-.49 1.019-1.635 1.384-2.06.324-.378 1.383-1.324 2.42-1.766 1.385-.589 1.689-.6 3.026-.801 1.365-.206 3.201-.082 4.585.212 1.384.589 2.075.883 3.113 1.766 1.19 1.013 1.46 1.66 2.076 2.65.492.791.475.893.691 1.765.146.584.346 1.462.346 2.06"/><path fill="#fff" stroke="#fff" stroke-linecap="round" stroke-width="7" d="M31 32.39c0-1.113.198-2.161.801-3.134 2.004-3.228 7.491-2.35 8.693.784.27 1.057.473 3.282 0 4.271-1.603 3.36-5.888 3.172-7.891 1.605C31.8 35.132 31 33.637 31 32.39Z"/><path stroke="#fff" stroke-linecap="round" stroke-width="7" d="M34.056 31.5s.496.69.727.957c.348.402.655.924 1.203.873 1.203-.436 2.236-1.875 3.09-2.852 1.32-1.51 1.7-2.19 2.924-3.256"/><path fill="#AE47FF" stroke="#000333" stroke-linecap="round" d="M27.289 15.119c1.518-.138 1.331-.178 2.84 0 1.56.39 2.937 2.406 3.235 3.88.243 1.199-.07 2.595-.873 3.587-.92 1.138-2.793 2.225-4.234 2.191-.973-.023-2.526-.354-3.244-1.216-1.286-1.542-1.736-3.317-.976-5.2.55-1.362 1.3-2.926 3.252-3.242Z"/><path stroke="#000333" stroke-linecap="round" stroke-width="3" d="M20 33.378c0-1.177.263-1.766.692-2.649.238-.49 1.019-1.635 1.384-2.06.324-.378 1.383-1.324 2.42-1.766 1.385-.589 1.689-.6 3.026-.801 1.365-.206 3.201-.082 4.585.212 1.384.589 2.075.883 3.113 1.766 1.19 1.013 1.46 1.66 2.076 2.65.492.791.475.893.691 1.765.146.584.346 1.462.346 2.06"/><path stroke="#AE47FF" stroke-linecap="round" stroke-width="1.5" d="M20 33.378c0-1.177.263-1.766.692-2.649.238-.49 1.019-1.635 1.384-2.06.324-.378 1.383-1.324 2.42-1.766 1.385-.589 1.689-.6 3.026-.801 1.365-.206 3.201-.082 4.585.212 1.384.589 2.075.883 3.113 1.766 1.19 1.013 1.46 1.66 2.076 2.65.492.791.475.893.691 1.765.146.584.346 1.462.346 2.06"/><path fill="#fff" stroke="#000" stroke-linecap="round" d="M31 32.39c0-1.113.198-2.161.801-3.134 2.004-3.228 7.491-2.35 8.693.784.27 1.057.473 3.282 0 4.271-1.603 3.36-5.888 3.172-7.891 1.605C31.8 35.132 31 33.637 31 32.39Z"/><path stroke="#AE47FF" stroke-linecap="round" stroke-width="1.5" d="M34.056 31.5s.496.69.727.957c.348.402.655.924 1.203.873 1.203-.436 2.236-1.875 3.09-2.852 1.32-1.51 1.7-2.19 2.924-3.256"/></svg>