<svg xmlns="http://www.w3.org/2000/svg" width="37" height="36" fill="none" viewBox="0 0 37 36"><path stroke="#000" stroke-linecap="round" d="M27 14.123c-.5-3.623-.5-4.123-1.07-10.06-.177-1.853-.536-2.502-1.966-2.502-6.876 0-13.871-.651-20.8-.651C2.468.91 1.149.71 1 2.11c.232 4.158.545 7.808 1.078 12.012.673 5.306.828 7.708 1.708 13.815.098.685.724 3.053.93 4.805.096.803.26 2.457 1.864 2.352C8.184 34.99 12.464 34.3 18 34"/><path stroke="#000" stroke-linecap="round" d="M8.47 23.49c.384 0 .721-.06 1.098-.082.64-.04 1.138.082 1.795.082.406.227.437 2.362.437 2.987 0 .282-.51.21-.728.242-.651.097-.717.112-1.374.165-.281.022-1.228.333-1.228-.165 0-.692-.225-1.33-.225-2.076 0-.357-.195-1.153.225-1.153ZM14.5 25.2h10.8M8.812 15.335c.54 0 1.553-.137 1.748.182.124.474.17 1.194.237 1.691.071.532.125.843.094 1.39-.013.24-.945.302-1.465.302H7.962c-.494 0-.52-.216-.52-.785 0-.907-.142-1.39-.142-2.115.012-.414.165-.617.473-.665.51-.08.527 0 1.04 0ZM13.6 17.1h8.1M6.778 7.324c.814 0 2.783-.279 2.9 0 0 .455.067.973.173 1.599.107.625.149 1.063.149 1.69-.095.188-1.6.187-1.778.187H6.678c-.07-.798-.283-1.846-.276-2.68.006-.655-.074-.796.376-.796ZM13.6 9h9"/><path fill="#FF4788" stroke="#000" stroke-linecap="round" d="M36 25.982c0 1.323-.354 2.753-.786 4.007-.639 1.85-1.5 2.585-3.11 3.754-2.41 1.127-2.743 1.55-6.387 1.276-3.212-.682-5.505-3.19-6.44-5.9-.675-3.137-.459-5.311.779-7.815 1.207-2.442 4.658-4.199 7.063-4.199 3.116-.106 6.492 1.488 7.968 4.505.55 1.575.913 2.71.913 4.372Z"/><path stroke="#000" stroke-linecap="round" d="M23.4 25.726c.431.63 1.063 1.547 1.438 2.035.343.447.396.544.767.969.25.287.917-.377 1.246-.727.91-.97 1.342-1.357 2.06-2.035 1.007-1.066 1.803-1.686 2.589-2.568"/></svg>