<svg xmlns="http://www.w3.org/2000/svg" width="37" height="33" fill="none" viewBox="0 0 37 33"><path stroke="#000" stroke-linecap="round" d="M19.02 4.94c-1.603.116-2.988 0-4.735 0-2.09 0-5.02-.115-6.739 0-2.834.191-5.182.725-6.05 3.587-.589 1.94-.436 3.328-.478 4.994-.04 1.544 0 3.094 0 4.639v10.605c0 .676.244 2.579 1.253 3.089 1.475.746 2.842-.305 3.652-.97.53-.436 2.104-1.864 2.73-2.12h7.576c3.651 0 8.009.37 10.17-.605 2.066-.933 2.872-2.632 3.172-3.956.3-1.325.185-3.207.185-4.927"/><path fill="#AE47FF" stroke="#000" stroke-linecap="round" d="M24.795 7.623c1.069-1.094 2.193-2.116 3.348-3.117 1.132-.982 2.226-2.639 4.034-3.298 1.28-.466 3.08-.254 3.676 1.731.502 1.672-.364 3.043-1.36 4.402-.931 1.271-2.71 3.199-3.933 4.327-1.874 1.731-2.659 3.132-4.19 4.553-1.176 1.092-2.132 2.107-3.97 3.387a49.708 49.708 0 0 1-3.565 1.317c-.138.044-2.27.461-2.279.225-.013-.349.147-1.016.441-2.295.32-1.392.478-2.22.79-2.94.223-.513 1.416-2.16 2.48-3.362 1.582-1.788 2.977-3.343 4.528-4.93Z"/><path stroke="#000" stroke-linecap="round" d="M5.667 14.222H11.889M5.667 20.445h6.222"/></svg>