<svg xmlns="http://www.w3.org/2000/svg" width="39" height="38" fill="none" viewBox="0 0 39 38"><path fill="#fff" stroke="#000" stroke-linecap="round" d="M7.353 9.837c2.213-1.77 5.197-2.351 7.852-2.995 1.964-.477 3.337.02 5.393.354 1.088.176 2.002.71 3.03 1.116 1.901.75 4.434 3.227 5.781 4.705 1.04 1.14 1.555 2.471 2.033 4.226.479 1.754.665 3.064.638 4.186-.053 2.253-.239 4.824-1.116 7.177-.677 1.11-1.196 2.497-2.352 3.712-3.07 3.225-5.314 5.178-9.848 5.178-2.769 0-4.45.084-7.177-.412-1.109-.202-2.11-.657-3.119-1.15-1.675-.82-3.383-2.547-4.376-4.219-1.036-1.744-2.162-3.105-2.671-5.063-.562-2.158-.399-4.1-.399-6.3 0-1.59.437-2.998 1.156-4.385 1.186-2.286 3.206-4.555 5.175-6.13Z"/><path stroke="#000" stroke-linecap="round" d="M22.131 12.498c-1.112-.817-2.34-1.489-3.686-1.554-1.104-.054-2.094-.172-3.19 0-.785.122-1.902.37-2.671.598-1.325.391-2.543 1.309-3.582 2.304C7.9 14.9 6.8 16.062 6.125 17.402c-.501.995-.536 2.402-.687 3.512a12.249 12.249 0 0 0-.101 2.48c.1 1.458.595 2.75 1.138 4.082 1.036 2.542 3.221 4.508 5.824 5.346 1.442.465 3.026.817 4.554.694 1.076-.086 2.204-.215 3.22-.59.685-.253 1.366-.509 2.058-.744.742-.253 1.47-.798 2.04-1.323.67-.616 1.89-1.62 2.208-2.492.804-1.874 1.324-3.252 1.634-5.423.236-1.65-.286-3.399-.83-4.97-.193-.56-.637-1.454-1.144-1.792"/><path stroke="#000" stroke-linecap="round" d="M18.674 15.702c-.752 0-1.594-.45-2.342-.373a9.869 9.869 0 0 0-2.791.678c-1.66.653-3.089 2.32-3.685 4.042-.3.866-.365 2.428-.095 3.285.243.772.534 1.622.937 2.325.64 1.117 1.358 2.032 2.561 2.561 1.577.694 3.576.835 5.27.525.785-.144 1.922-.498 2.573-.99.717-.541 1.282-1.285 1.735-2.046.175-.295.415-.544.599-.84.646-1.04.61-1.94.572-3.14-.022-.668-.563-2.787-1.278-3.145"/><path stroke="#000" stroke-linecap="round" d="M16.432 19.652c-.42.061-.785.145-1.26.483-.475.338-.885.772-.953 1.334-.073.6.009.955.08 1.555.05.437.462.89.873 1.117.504.277.994.406 1.598.438.864.046.802.002 1.476-.438.633-.414.877-1.157.877-1.794"/><path fill="#FF4788" stroke="#000" stroke-linecap="round" d="M22 17.5c-1.347 1.113-5.671 5.916-5.223 5.004C18.5 19 20.508 17.087 22.895 14.77c1.853-1.799 3.968-4.255 5.606-6.271.326-.402.5-2.06.5-3C29 3 30.785.393 32 1c1.215.607.222 5 .5 5 .5 0 3.307-.251 4.547-.664.953-.318 1.042.766.953 1.164-.264 1.19-1.828 2-3.553 2.664-1.104.424-2.457.122-3.447.836-2.675 2.675-6.073 5.08-9 7.5Z"/></svg>