<svg xmlns="http://www.w3.org/2000/svg" width="42" height="33" fill="none" viewBox="0 0 42 33"><path fill="#000" fill-rule="evenodd" d="M26.692 0c-1.03 0-2.05.042-3.061.083-.627.026-1.25.051-1.871.066-.364.01-.74.014-1.122.018-.986.011-2.015.023-2.99.117-1.693.164-3.452.138-5.242.084l-.927-.03C9.997.287 8.498.237 7.033.281c-.742.022-1.26.08-1.746.135l-.125.014c-.516.057-1.02.108-1.78.108h-.02l-.02.001C1.25.701 0 2.687 0 5.013c0 .784.053 1.548.104 2.293v.007c.052.752.102 1.484.102 2.23 0 .314-.01.705-.02 1.134l-.02.86c-.012.72-.014 1.467.038 2.013C0 16.46 0 18.594 0 21.523v.005c0 1.858.187 3.077.75 3.854.595.82 1.52 1.032 2.57 1.162l.03.004h.032c2.09 0 3.649 0 6.772.185.68.063 1.293.114 1.864.154.007-.34.016-.673.026-1.001a86.68 86.68 0 0 1-1.807-.15h-.016c-3.142-.187-4.724-.188-6.809-.188-1.024-.13-1.534-.315-1.853-.754C1.206 24.308 1 23.397 1 21.528c0-2.946 0-5.054.205-7.95l.003-.043-.005-.043c-.049-.481-.05-1.193-.037-1.937.005-.277.012-.56.019-.832.01-.441.021-.856.021-1.18 0-.783-.052-1.546-.104-2.29v-.009A32.383 32.383 0 0 1 1 5.013c0-2.037 1.049-3.36 2.401-3.474.803-.001 1.344-.055 1.871-.114l.125-.014c.483-.054.966-.108 1.666-.13 1.43-.043 2.89.006 4.372.056l.94.03c1.794.055 3.608.083 5.37-.088.93-.09 1.89-.1 2.86-.111.393-.005.786-.01 1.18-.019.656-.016 1.293-.042 1.924-.068.99-.04 1.967-.081 2.983-.081.832 0 1.666.037 2.514.074h.003c.844.037 1.7.075 2.56.075 1.323 0 1.948.39 2.298.968.392.647.516 1.636.54 3.017.016.896.01 1.788.005 2.687v.001c-.002.453-.005.907-.005 1.364V12.996c0 .7.036 1.207.081 1.657.228.013.502-.014.777-.041l.222-.021c-.045-.44-.08-.918-.08-1.595V9.186c0-.444.003-.892.005-1.34v-.002c.006-.907.01-1.82-.005-2.728-.024-1.363-.136-2.611-.685-3.517-.59-.974-1.61-1.45-3.153-1.45-.835 0-1.67-.037-2.519-.074h-.007A57.936 57.936 0 0 0 26.692 0Z" clip-rule="evenodd"/><path stroke="#000" stroke-linecap="round" d="M1 6.937c1.6 0 3.732.034 5.33 0 8.171-.179 6.194-.187 14.42-.187h14"/><path fill="#000" d="M5.35 5.02c-.852.342-1.024-.973-.57-1.135.34-.12.837-.01.98.47.069.234-.131.554-.41.666ZM7.488 5.064c-.608.003-.641-1.13-.066-1.227.5-.085.946.338.796.733-.103.272-.303.491-.73.494ZM10.143 5.048c-.516-.01-1.052-.758-.245-1.18.41-.215.915.214.81.802-.042.24-.363.382-.565.378Z"/><path fill="#FF4788" stroke="#000333" stroke-linecap="round" d="M21.674 17.5c2.058 0 4.182.037 6.236.193 1.475 0 3.49-.138 4.963 0 1.99.187 4.012-.188 5.988.29 2.734 1.401 2.228 6.688 1.796 9.153-.276 1.578-.14 2.931-1.335 4.024-.81.742-2.313 1.014-3.428 1.1-4.964.377-10.005.198-14.982.198-.893 0-1.758-.005-2.644-.118-2.075-.267-2.768-1.312-2.949-3.373-.241-2.754-.617-5.226.085-8.014.363-1.444 1.78-2.457 3.146-2.97 1.033-.389 2.007-.483 3.124-.483Z"/><path stroke="#fff" stroke-linecap="round" stroke-width="1.5" d="M21 28.268c.48-.48.806-1.553 1.11-2.146.248-.486.526-.952.726-1.456.092-.23.983-2.22 1.048-2.165.462.393.77.94.961 1.442.333.877.62 1.754.974 2.63.298.735.684 1.095.95 1.696M22.442 26.345h2.884M29.719 28.27v-3.583c0-.391-.172-1.458.037-1.816.239-.41.859-.369 1.248-.369 1.068 0 1.838 1.15 1.414 2.253-.343.893-1.427.806-2.202.806M35.42 22.501v5.768"/></svg>