<svg xmlns="http://www.w3.org/2000/svg" width="40" height="37" fill="none" viewBox="0 0 40 37"><path fill="#fff" stroke="#000" stroke-linecap="round" d="M16.785 1.254c.896.22 3.548 1.846 4.35 3.604.596 1.309.865 2.317.865 3.267 0 1.944-.273 3.261-1.14 5.082C19.653 15.737 16.747 16 14.018 16c-3.115 0-5.613-.469-7.019-3-1-1.8-1-3.126-1-4.512C6 7.01 6.333 5.5 7.262 4.132c.78-.825 1.186-1.22 2.197-1.815 2.012-1.181 4.917-1.653 7.326-1.063Z"/><path fill="#fff" stroke="#000" stroke-linecap="round" d="M1.044 17.064V5.822c.778-.333 1.63 0 2.47 0 2.106 0 4.22.458 6.335.458 4.748 0 9.646-1.905 14.393-1.82.694.693.34 4.169.462 4.856v6.708c0 1.334.1 3.495 0 4.827-.12 1.628 0 2.117 0 3.842 0 1.275.153 2.034 0 3.307-.155 1.299-2.12 2.28-3.507 2.341-2.803.122-5.23.618-8.29.618-3.058 0-5.25-.152-7.548-1.235-1.183-.558-2.967-1.376-3.777-2.427-.81-1.05-.538-8.081-.538-10.233Z"/><path fill="#fff" stroke="#000" stroke-linecap="round" d="M8.515 1.221C7.31 1.247 5.48 1.793 4.352 2.3c-1.607.718-2.805 1.235-3.238 2.623-.362 1.159.615 1.607 1.156 1.85 1.227.552 2.845 1.324 4.163 1.6 2 .419 4.127.713 6.191.713 2.033 0 3.944-.077 5.952-.463 1.65-.316 3.122-.693 4.51-1.387.925-.694 1.503-1.523 1.503-2.313 0-.925-.85-1.46-1.966-2.197-1.204-.796-3.47-1.324-5.088-1.504-1.62-.18-3.385-.284-4.91-.18-1.48.103-2.623.148-4.11.18Z"/><path stroke="#000" stroke-linecap="round" d="M1.229 13.248c.925.694 1.88 1.381 2.775 1.735 1.657.654 3.436 1.139 5.25 1.286 2.094.17 4.213.08 6.312.08 1.187 0 2.548-.306 3.703-.557 2.283-.495 3.374-1.247 5.32-2.544M1.114 20.599c1.272.975 3.067 2.162 4.163 2.386 1.695.348 4.176.758 5.898.787 2.315.038 4.999.048 7.285-.347 1.041-.18 1.887-.469 2.891-.81 1.3-.442 2.078-.731 3.354-1.156"/><path fill="#AE47FF" stroke="#fff" stroke-linecap="round" stroke-width="6" d="M12.943 28.262c-.591.546-1.16 1.076-1.804 1.553-.12.088-1.17 1-1.138 1.034.45.692.505.785.966 1.383.202.261.537.802.773 1.035.315.312.453.895.86.69a58.158 58.158 0 0 0 3.323-2.738c.8-.713 1.53-1.403 2.347-2.008a24.683 24.683 0 0 0 2.061-1.726c.237-.225.964.771 1.203.971.382.32 1.278 1.77 1.805 1.36.924-.723 1.879-1.486 2.834-2.199.618-.46 1.217-.977 1.815-1.474.537-.446 1.133-.87 1.702-1.28a45.637 45.637 0 0 0 2.153-1.67c1.032-.846 1.548-1.691 1.784-1.691.45.373.795.805 1.31 1.27.516.465 1.205 1.445 1.257 1.002.12-1.027.175-1.76.29-2.792.088-.804.09-1.594.257-2.386 0-1.122.258-2.59.258-3.539.05-.129-1.91 0-2.32 0-.79 0-6.182.058-6.467.656-.093.194.88 1.04 1.055 1.157.37.247 1.48 1.243 1.203 1.467-.952 1.035-1.375 1.467-2.482 2.645-.586.41-1.245 1.152-1.815 1.584-.614.466-1.684 1.6-2.405 2.07-.598.392-1.46-.862-1.89-1.443-.08-.15-1.292-1.532-1.433-1.5-.288.063-1.203 1-1.402 1.218-1.117.95-1.362 1.313-2.492 2.244-.617.508-1.117.988-1.804 1.553a43.36 43.36 0 0 0-1.804 1.554Z"/><path fill="#AE47FF" stroke="#000" stroke-linecap="round" stroke-width="1.5" d="M13.725 27.866c-.547.488-1.073.962-1.67 1.39-.111.078-1.083.894-1.054.925.417.619.467.702.894 1.237.187.234.498.718.716.926.292.28.42.8.796.618a53.518 53.518 0 0 0 3.078-2.45c.74-.639 1.416-1.256 2.172-1.797a22.689 22.689 0 0 0 1.91-1.544c.218-.201.892.69 1.113.869.353.285 1.183 1.584 1.67 1.216.856-.647 1.74-1.33 2.625-1.967.572-.412 1.127-.875 1.68-1.319.498-.399 1.05-.778 1.576-1.146a42.122 42.122 0 0 0 1.994-1.494c.956-.756 1.433-1.513 1.652-1.513.417.334.736.72 1.213 1.137.477.416 1.116 1.293 1.164.896.111-.919.162-1.574.268-2.498.082-.719.083-1.425.239-2.135 0-1.004.238-2.316.238-3.166.047-.115-1.768 0-2.148 0-.731 0-5.724.052-5.988.587-.086.173.815.93.977 1.035.342.222 1.371 1.112 1.113 1.313-.881.926-1.273 1.312-2.298 2.366-.542.367-1.152 1.03-1.68 1.417-.569.417-1.56 1.432-2.227 1.854-.554.35-1.352-.773-1.75-1.293-.073-.134-1.196-1.37-1.326-1.342-.268.057-1.115.895-1.3 1.09-1.033.85-1.26 1.175-2.306 2.008-.572.455-1.034.884-1.67 1.39a39.75 39.75 0 0 0-1.671 1.39Z"/></svg>