<svg xmlns="http://www.w3.org/2000/svg" width="42" height="41" fill="none" viewBox="0 0 42 41"><path stroke="#000" stroke-linecap="round" d="M37.342 34.476c-1.328-1.103-2.587-2.1-4.205-2.908l-.646.485c.98.98 2.331 2.513 3.376 3.432.79.695 1.472 1.455 2.517 1.81.278.095 1.217.577 1.274.182.075-.532-.504-1.186-.852-1.565-.447-.487-.92-.984-1.464-1.436Z"/><path stroke="#000" stroke-linecap="round" stroke-width="1.5" d="M25.39 20.343c1.855-1.018 4.039-1.348 6.912.984 1.723 1.4 2.58 4.066 2.425 5.474-.163 1.487-.562 3.157-1.579 4.333-1.582 1.83-4.314 2.48-6.65 2.187-4.672-.588-6.232-5.096-4.875-9.028.623-1.806.986-2.423 3.768-3.95Z"/><path stroke="#2648F7" stroke-linecap="round" stroke-width="3" d="M9.647 11.482v8.336"/><path fill="#2648F7" stroke="#2648F7" stroke-linecap="round" stroke-width="3" d="M8.944 7.057c-.155-.347-.165-1.3.37-1.3.421-.04.967-.086.982.417.01.333.11.808-.162 1.068-.281.27-1.057.112-1.19-.185Z"/><path stroke="#2648F7" stroke-linecap="round" stroke-width="3" d="M15.597 10.666c-.085 1.34-.127 2.67-.085 3.366.085 1.403.013 2.356.085 3.5.08 1.252.225 1.217.225 2.476"/><path stroke="#2648F7" stroke-linecap="round" stroke-width="3" d="M15.622 14.483c.398-1.715 1.794-2.535 2.589-3.049.55-.356 1.991-.572 3.186-.19.597.19.983.966 1.195 1.524.4 1.058.398 1.905.398 3.012 0 .798-.032 1.42 0 2.132"/><path stroke="#000" stroke-linecap="round" d="M17.44 25.959H8.492c-1.611 0-5.787.374-6.716-1.138-1.29-2.103-.566-6.83-.633-9.128-.08-2.768.001-5.385 0-8.407 0-1.69 0-3.71 1.016-4.888.577-1.283 3.068-1.27 4.308-1.27 2.575 0 4.36-.013 6.926-.013 1.734.098 4.486 0 6.227 0 3.149 0 6.38-.454 9.404.441 1.688.5 1.722 3.277 1.918 4.544.197 1.27-.188 2.934 0 4.208v4.375"/></svg>