<svg xmlns="http://www.w3.org/2000/svg" width="42" height="37" fill="none" viewBox="0 0 42 37"><path fill="#fff" stroke="#000" stroke-linecap="round" d="M16.785 1.254c.896.22 3.548 1.846 4.35 3.604.596 1.309.865 2.317.865 3.267 0 1.944-.273 3.261-1.14 5.082C19.653 15.737 16.747 16 14.018 16c-3.115 0-5.613-.469-7.019-3-1-1.8-1-3.126-1-4.512C6 7.01 6.333 5.5 7.262 4.132c.78-.825 1.186-1.22 2.197-1.815 2.012-1.181 4.917-1.653 7.326-1.063ZM15.887 17.096c-2.972-.198-6.01-.11-8.736.447-3.947.805-5.574 3.133-5.9 4.97-.279 1.576-.445 3.002.163 3.87.814 1.16 11.303 1.668 13.504 1.613 2.655-.067 5.312-.2 7.915-.453 1.963-.19 3.13-.462 3.1-1.364-.03-.93.164-1.905 0-2.832-.262-1.489-1.038-3.27-3.1-4.465-1.751-1.014-4.208-1.602-6.946-1.786Z"/><path fill="#fff" stroke="#fff" stroke-linecap="round" stroke-width="7" d="M23.165 13.51c2.05-1.125 4.465-1.49 7.642 1.09 1.906 1.547 2.852 4.495 2.681 6.051-.18 1.645-.621 3.491-1.745 4.792-1.75 2.023-4.77 2.742-7.354 2.418-5.165-.65-6.89-5.635-5.39-9.982.69-1.998 1.09-2.68 4.166-4.368Z"/><path fill="#fff" stroke="#fff" stroke-linecap="round" stroke-width="1.5" d="M37.263 28.985c-1.63-1.354-3.177-2.578-5.162-3.57l-.794.596c1.204 1.202 2.862 3.084 4.145 4.213.97.853 1.806 1.785 3.09 2.222.341.116 1.494.708 1.563.223.093-.653-.618-1.456-1.046-1.921-.549-.598-1.13-1.209-1.796-1.763Z"/><path fill="#2648F7" stroke="#000333" stroke-linecap="round" d="M37.263 28.985c-1.63-1.354-3.177-2.578-5.162-3.57l-.794.596c1.204 1.202 2.862 3.084 4.145 4.213.97.853 1.806 1.785 3.09 2.222.341.116 1.494.708 1.563.223.093-.653-.618-1.456-1.046-1.921-.549-.598-1.13-1.209-1.796-1.763Z"/><path stroke="#000333" stroke-linecap="round" stroke-width="1.5" d="M22.852 12.76c2.276-1.25 4.957-1.655 8.483 1.208 2.116 1.717 3.167 4.99 2.977 6.719-.2 1.825-.69 3.875-1.938 5.319-1.941 2.246-5.295 3.044-8.163 2.684-5.734-.722-7.65-6.255-5.984-11.082.765-2.217 1.21-2.975 4.625-4.849Z"/><path stroke="#2648F7" stroke-linecap="round" d="M23.165 13.51c2.05-1.125 4.465-1.49 7.642 1.09 1.906 1.547 2.852 4.495 2.682 6.051-.18 1.645-.622 3.492-1.746 4.792-1.75 2.023-4.77 2.742-7.354 2.418-5.165-.65-6.89-5.635-5.39-9.982.69-1.998 1.09-2.68 4.166-4.368Z"/></svg>