<svg xmlns="http://www.w3.org/2000/svg" width="34" height="36" fill="none" viewBox="0 0 34 36"><path stroke="#000" stroke-linecap="round" stroke-width="2" d="M4.905 15.587c0-1.376-.146-2.55 0-3.392.13-.756.26-1.512.345-2.272.139-1.243 1.15-3.158 1.864-4.218.719-1.068 1.724-1.896 2.857-2.57 1.741-1.037 3.636-1.943 5.74-2.09 1.815-.128 3.491.009 5.213.555 1.11.352 2.338.795 3.333 1.382.655.386 1.313.87 1.932 1.306.62.436 1.043 1.07 1.4 1.694.906 1.581 1.105 3.227 1.394 4.973.176 1.063.177 3.558.177 4.632"/><path stroke="#000" stroke-linecap="round" d="M27.867 26.018c0 .764-.154 1.538-.26 2.294-.112.8-.5 1.647-.932 2.512-.432.864-.95 1.111-1.539 1.641-1.09.981-2.466 1.26-3.871 1.413-.912.098-1.819.145-2.737.145h-2.624M13.116 32.77a2.328 2.328 0 0 1 1.998.085c.338.26.642.638.68 1.084.085.982-.33 1.452-1.276 1.452-1.029 0-1.394-.016-1.937-.78-.307-.432.041-1.621.535-1.84Z"/><path fill="#AE47FF" stroke="#000" stroke-linecap="round" d="M7.257 26.382h.5V17.31l-.005-.036a5.228 5.228 0 0 1-.025-.851c.003-.108.008-.223.013-.338.008-.216.017-.435.017-.618l.001-.196c.002-.253.004-.642-.001-.779a.538.538 0 0 0-.26-.436.744.744 0 0 0-.195-.081 1.918 1.918 0 0 0-.315-.051c-.217-.02-.5-.027-.794-.024-.581.006-1.275.049-1.674.119l.086.492-.086-.492c-1.323.232-2.998.618-3.593 2.262C.525 17.392.518 18.113.51 19.11l-.005.408c-.016 1.018.01 2.382.24 3.456.05.234.209.605.358.915.15.31.34.664.49.848.883 1.082 1.926 1.506 3.29 1.644.296.03.775.029 1.219.022l.558-.01c.239-.005.447-.01.598-.01ZM26.743 26.382h-.5V17.31l.005-.036a5.24 5.24 0 0 0 .025-.851 31.36 31.36 0 0 0-.012-.338c-.01-.216-.018-.435-.018-.618l-.001-.196c-.002-.253-.004-.642.001-.779.01-.266.203-.4.26-.436a.744.744 0 0 1 .195-.081c.097-.027.21-.042.315-.051.217-.02.5-.027.793-.024.582.006 1.275.049 1.675.119l-.086.492.086-.492c1.322.232 2.998.618 3.593 2.262.401 1.111.408 1.832.417 2.829l.005.408c.016 1.018-.01 2.382-.24 3.456-.05.234-.209.605-.358.915-.15.31-.34.664-.49.848-.883 1.082-1.926 1.506-3.29 1.644-.296.03-.775.029-1.218.022l-.558-.01c-.24-.005-.448-.01-.6-.01Z"/></svg>