<svg xmlns="http://www.w3.org/2000/svg" width="40" height="35" fill="none" viewBox="0 0 40 35"><path stroke="#000" stroke-linecap="round" d="M2.595 20.328c-.568.072-1.789.175-1.569-.617.51-1.837 1.196-2.765 2.092-4.11.897-1.345 1.72-3.138 2.69-4.633.972-1.494 3.057-4.156 3.061-4.154a106.493 106.493 0 0 0 3.216 5.051c.885 1.32 1.57 2.579 2.316 3.96.607 1.121 2.018 3.45 2.018 3.886 0 .133-3.761.385-3.81.385-3.335 0-6.705-.187-10.014.232ZM25.012 26.007c-.568.072-1.79.175-1.57-.617.511-1.837 1.196-2.765 2.093-4.11.897-1.345 1.719-3.138 2.69-4.633.971-1.494 3.057-4.156 3.06-4.154a106.447 106.447 0 0 0 3.217 5.051c.885 1.32 1.569 2.578 2.316 3.96.606 1.121 2.018 3.45 2.018 3.886 0 .132-3.762.385-3.81.385-3.335 0-6.705-.187-10.014.232Z"/><path fill="#F6BF56" stroke="#000" stroke-linecap="round" d="M4.901 20.096c2.422 0 4.882-.055 7.319-.083 1.782-.021 2.4-.322 4.199-.227.15.971.15 2.377.15 2.69-.3 2.092-1.421 3.626-2.84 4.633-1.793 1.272-3.35 1.462-6.576 1.345-2.263-.385-3.6-1.275-4.931-3.139-1.196-1.494-1.196-3.806-1.196-5.219 1.495.138 2.686 0 3.875 0ZM27.318 25.775c2.422 0 4.882-.055 7.318-.084 1.782-.02 2.401-.321 4.2-.226.15.971.15 2.376.15 2.69-.3 2.092-1.422 3.626-2.84 4.632-1.794 1.273-3.35 1.463-6.576 1.345-2.264-.384-3.6-1.275-4.932-3.138-1.195-1.494-1.195-3.806-1.195-5.22 1.494.14 2.686 0 3.875 0Z"/><path stroke="#000" stroke-linecap="round" stroke-width="2" d="M5.418 1c1.485.349 2.162.447 3.183.798 1.391.479 3.548.906 4.952 1.344 1.618.505 3.343 1.098 5.007 1.42 1.688.326 2.587.68 4.279.986 1.076.194 2.67.476 4.762 1.106 2.864.862 4.27.947 6.277 1.719"/><path fill="#fff" stroke="#000" stroke-linecap="round" stroke-width="1.5" d="M18.593 6.712c-.619-.57-1.005-1.426-1.005-2.212 0-1.412 1-2.33 2.746-2.33 1.139.117 2.005.757 2.277 1.98.162.73 0 2.065-.67 2.562-.67.497-1.485.582-1.875.524l-.014-.002c-.365-.054-1.062-.157-1.46-.522Z"/></svg>