<svg xmlns="http://www.w3.org/2000/svg" width="37" height="37" fill="none" viewBox="0 0 37 37"><path stroke="#000" stroke-linecap="round" d="M10.95 8H5.118c-1.45 0-4 .514-4.085 4.015 0 1.843.085 3.178.085 4.239 0 3.184-.085 4.699-.085 7.794-.073 1.206-.016 3.439.085 4.645.263 3.143 4.883 2.874 7.05 2.874 2.454 0 2.656-.07 4.616 0 3.487.124 8.378-.484 11.834 0 1.705.24 2.564 1.04 3.79 2.01 1.225.968 3.362 2.927 3.509 2.303 0-1.014.187-1.29 0-3.244v-7.813"/><path fill="#09EEE8" stroke="#000" stroke-linecap="round" stroke-width="1.5" d="M36 10.303c-.028-4.082-2.953-8.077-7.056-9.062-3.09-.74-7.836.24-10.442 2.735-1.69 1.619-2.493 4.593-2.493 6.773.232 2.823 1.786 4.928.91 6.506-.428.773-.995 2.762-.91 2.727.572-.235 1.817-.46 2.39-.77 1.406-.761 2.233-.808 3.919 0 2.037.976 3.023.77 4.933.77 2.062 0 5.119-1.48 6.515-3.44.889-1.248 2.252-3.54 2.234-6.239Z"/><path stroke="#000" stroke-linecap="round" d="M21.035 11.329c-.304-1.423 1.455-1.827 1.965-.6 0 .872-.213.886-.628 1.213-.255.2-1.282-.144-1.337-.613ZM25.335 11.828c-.495-.54-.495-1.691.367-1.817.625-.092 1.283.43 1.296.772.017.438-.06.758-.441 1.045-.225.17-.855.283-1.222 0ZM29.14 11.546c-.288-.688-.192-1.546.859-1.546.576 0 .86.336.959.73.118.471.005 1.27-.574 1.27-.33 0-.862.022-1.244-.454Z"/></svg>