<svg xmlns="http://www.w3.org/2000/svg" width="41" height="41" fill="none" viewBox="0 0 41 41"><path fill="#fff" stroke="#000333" stroke-linecap="round" d="M28.615 12.461c-1.785-1.485-2.978-2.25-5.156-3.006-5.75-1.604-9.715 1.294-12.293 4.61-2.18 2.806-2.429 7.617-1.376 10.27 2.368 5.966 8.82 8.6 14.269 7.369 4.206-.95 7.53-3.809 8.125-9.22.044-4.113-.199-7.216-3.57-10.023Z"/><path fill="#36C5F0" stroke="#000333" stroke-linecap="round" d="M23.1 13.045c-.543-.448-.906-.68-1.569-.908-1.75-.484-2.957.39-3.741 1.392-.664.847-.74 2.3-.419 3.1.72 1.802 3.316 2.672 4.432 2.277 1.237-.438 2.203-1.202 2.383-2.835.014-1.242-.06-2.179-1.086-3.026Z"/><path stroke="#000333" stroke-linecap="round" d="M17.322 38.383c-2.981-.596-5.152-1.712-7.607-3.497-1.671-1.216-3.575-3.352-4.693-5.14-1.045-1.928-1.956-4.09-1.956-5.996M2.492 17.067c.662-2.967 1.826-5.113 3.665-7.527 1.252-1.645 3.43-3.5 5.242-4.578 1.951-1.002 4.134-1.865 6.039-1.823M24.129 3.315c2.973.637 5.128 1.782 7.558 3.6 1.655 1.24 3.53 3.402 4.622 5.205 1.019 1.942 1.9 4.117 1.874 6.023M37.807 24.344c-.689 2.961-1.872 5.096-3.733 7.493-1.268 1.633-3.463 3.47-5.285 4.53-1.96.984-4.15 1.827-6.055 1.767"/><path stroke="#000333" stroke-linecap="round" d="M1 27.064c.233-.16.564-.986.724-1.216.412-.596.58-1.522 1.038-2.025.168-.185.92-.11 1.367.336.447.447 1.673 1.505 2.01 2.012M14.17 1c.154.236.974.586 1.2.75.586.426 1.509.615 2.001 1.084.181.171.09.921-.366 1.358-.457.437-1.542 1.64-2.056 1.966M40.294 14.856c-.235.157-.577.98-.74 1.207-.421.59-.602 1.514-1.066 2.01-.17.183-.921.098-1.362-.355-.44-.453-1.653-1.527-1.983-2.038M25.983 40.303c-.153-.237-.969-.594-1.194-.76-.582-.432-1.503-.63-1.99-1.102-.18-.174-.082-.923.378-1.356.461-.432 1.556-1.625 2.073-1.947"/><path fill="#36C5F0" stroke="#000333" stroke-linecap="round" d="M28.161 26c-1.97 0-5.32-.194-7.683-.194h-7.29c0-1.556.615-3.556 1.773-4.862C16.614 19.08 19.134 19 21.463 19c1.316 0 3.93.764 5.122 2.528.831 1.23 1.773 4.277 1.576 4.472Z"/></svg>