<svg xmlns="http://www.w3.org/2000/svg" width="36" height="34" fill="none" viewBox="0 0 36 34"><path fill="#fff" stroke="#000333" stroke-linecap="round" d="M11.445 1.146c1.864-.169 1.634-.219 3.487 0 1.913.478 3.604 2.953 3.97 4.762.297 1.47-.087 3.184-1.072 4.402-1.129 1.396-3.427 2.73-5.196 2.69-1.194-.029-3.1-.435-3.982-1.493-1.577-1.892-2.13-4.072-1.197-6.383.674-1.67 1.596-3.59 3.99-3.978Z"/><path stroke="#000333" stroke-linecap="round" d="M1 26.5c0-1.376.211-3.5 1.5-5.972.298-.572 1.542-2.032 2-2.528.407-.442 1.84-1.428 3.142-1.944 1.735-.689 2.117-.701 3.794-.937 1.713-.24 4.017-.095 5.753.248"/><path fill="#F6BF56" stroke="#000" stroke-linecap="round" d="M35 24.294c-.024-3.64-2.51-7.2-6-8.079-2.627-.66-6.663.213-8.88 2.438-1.437 1.443-2.12 4.095-2.12 6.039 0 1.943.857 5.76 3.394 7.356 2.126 1.337 4.542.875 6.166.875 1.754 0 4.353-1.319 5.54-3.067.756-1.112 1.916-3.155 1.9-5.562Z"/><path stroke="#000" stroke-linecap="round" stroke-width="2" d="M26.183 23.5c-.008-.501-.006 1.122-.006 1.68v1.605c0 .566-.152.997-.152 1.72 0 .188.091.495 0 .495-.09 0 .088-1.5.152-2.5 0-1.586.02-2 .006-3Z"/><path stroke="#000" stroke-linecap="round" d="M27.052 19.062c.142 0 .24.613-.06.846-.265.206-.774.037-.782-.233-.004-.137-.078-.53.073-.61.158-.082.769-.09.769-.003Z"/></svg>