<?xml version="1.0" encoding="UTF-8"?> <svg xmlns="http://www.w3.org/2000/svg" width="56" height="56" viewBox="0 0 56 56" fill="none"><path d="M9.6824 43.1255L6.8007 23.2173C6.31684 19.8746 6.61028 19.0701 9.01822 18.7151C18.9495 17.2508 37.0294 14.6334 39.6753 14.2504L39.928 14.2138C41.9354 13.9231 42.5112 15.3428 42.7101 16.6808C43.6842 23.2313 45.6646 36.6622 45.7935 37.9818C45.9223 39.3014 45.3068 40.0462 44.1069 40.2516C33.5715 42.0554 13.4258 45.1695 12.0469 45.3022C10.668 45.4349 9.86596 44.3934 9.6824 43.1255Z" fill="#151417" stroke="#151417"></path><path d="M11.2886 42.8923L8.40685 22.9842C7.92299 19.6415 8.21644 18.837 10.6244 18.482C20.5556 17.0177 38.6356 14.4003 41.2815 14.0172L41.5342 13.9807C43.5415 13.69 44.1173 15.1097 44.3163 16.4477C45.2904 22.9982 47.2707 36.429 47.3996 37.7487C47.5285 39.0683 46.913 39.813 45.713 40.0185C35.1777 41.8223 15.032 44.9364 13.6531 45.0691C12.2742 45.2017 11.4721 44.1603 11.2886 42.8923Z" fill="white" stroke="#151417"></path><path d="M28.8485 28.2741C31.3297 27.9959 34.4802 27.3675 36.9557 27.0674C38.1611 26.9212 40.5783 26.5668 41.7758 26.3296" stroke="#151417" stroke-linecap="round"></path><path d="M29.3552 31.4358C31.0569 31.2388 33.2257 30.7922 34.9243 30.5794C35.7513 30.4758 37.4116 30.2243 38.2359 30.0557" stroke="#151417" stroke-linecap="round"></path><path d="M16.2665 33.0668C14.6548 34.3064 14.1381 36.2033 14.0566 37.6534C14.0114 38.4592 14.7582 39.0042 15.556 38.8872L26.2963 37.3122C27.0297 37.2046 27.5804 36.5645 27.3714 35.8536C27.0871 34.8865 26.5228 33.8682 25.8013 33.1896C23.0356 30.5882 19.0786 30.9039 16.2665 33.0668Z" fill="#600DFF"></path><path d="M20.3632 23.9491C18.6037 23.4492 17.4207 24.2755 16.9073 24.781C16.565 25.1181 15.766 26.1545 15.873 27.5843C16.0205 29.5532 17.7044 30.4373 18.3049 30.5493C19.4391 30.761 21.1703 30.599 22.1967 29.1236C23.2773 27.5704 22.5288 24.5644 20.3632 23.9491Z" fill="#600DFF"></path><path d="M28.3646 18.8924L24.1927 19.4963C23.8253 19.5495 23.7414 18.9697 23.7414 18.9697L23.1085 14.5975C23.007 13.8965 23.6352 12.4147 25.2858 12.1758C26.9365 11.9368 27.9745 13.2867 28.0605 13.8807L28.7175 18.42C28.7653 18.7501 28.5021 18.8725 28.3646 18.8924Z" fill="#151417"></path><path d="M24.2643 19.9911L28.4362 19.3872L28.293 18.3976L24.121 19.0014L24.2643 19.9911ZM28.4362 19.3872C28.5842 19.3658 28.7893 19.295 28.9578 19.1323C29.149 18.9477 29.2596 18.6747 29.2124 18.3484L28.2227 18.4916C28.2244 18.5035 28.2207 18.4918 28.2293 18.4671C28.2377 18.4428 28.2516 18.4241 28.2633 18.4128C28.2686 18.4077 28.2729 18.4046 28.2754 18.4029C28.2779 18.4013 28.2793 18.4006 28.2797 18.4005C28.28 18.4003 28.2805 18.4001 28.2815 18.3998C28.2824 18.3996 28.286 18.3986 28.293 18.3976L28.4362 19.3872ZM29.2124 18.3484L28.5553 13.8091L27.5656 13.9523L28.2227 18.4916L29.2124 18.3484ZM28.5553 13.8091C28.5197 13.5628 28.3991 13.2975 28.241 13.0561C28.0777 12.8069 27.853 12.5504 27.5725 12.3257C27.0078 11.8733 26.2 11.5382 25.2142 11.6809L25.3574 12.6706C26.0223 12.5744 26.5588 12.7948 26.9473 13.1061C27.1434 13.2632 27.2974 13.4407 27.4045 13.6041C27.5168 13.7755 27.5583 13.9016 27.5656 13.9523L28.5553 13.8091ZM25.2142 11.6809C24.2409 11.8218 23.5557 12.3349 23.1341 12.9216C22.7275 13.4873 22.5401 14.1608 22.6137 14.6691L23.6033 14.5259C23.5754 14.3332 23.6514 13.9153 23.9461 13.5052C24.2259 13.1159 24.68 12.7687 25.3574 12.6706L25.2142 11.6809ZM22.6137 14.6691L23.2465 19.0413L24.2362 18.898L23.6033 14.5259L22.6137 14.6691ZM23.7414 18.9697C23.2465 19.0413 23.2465 19.0415 23.2466 19.0416C23.2466 19.0417 23.2466 19.0418 23.2466 19.0419C23.2467 19.0422 23.2467 19.0424 23.2467 19.0426C23.2468 19.0431 23.2469 19.0436 23.247 19.0442C23.2471 19.0453 23.2473 19.0466 23.2475 19.048C23.248 19.0508 23.2485 19.0543 23.2492 19.0582C23.2505 19.0662 23.2523 19.0763 23.2546 19.0884C23.2592 19.1125 23.266 19.1448 23.2756 19.1826C23.2943 19.2559 23.3262 19.3613 23.3792 19.4707C23.4692 19.6567 23.7373 20.0674 24.2643 19.9911L24.121 19.0014C24.1423 18.9984 24.1724 18.9987 24.2059 19.0084C24.2385 19.0177 24.2622 19.0323 24.2765 19.0436C24.2995 19.0617 24.2954 19.0684 24.2794 19.0352C24.2654 19.0063 24.2534 18.97 24.2448 18.9362C24.2408 18.9206 24.2382 18.908 24.2368 18.9006C24.2361 18.8969 24.2357 18.8947 24.2356 18.8941C24.2356 18.8938 24.2356 18.894 24.2357 18.8946C24.2358 18.895 24.2358 18.8954 24.2359 18.896C24.2359 18.8963 24.236 18.8966 24.236 18.8969C24.2361 18.8971 24.2361 18.8973 24.2361 18.8975C24.2361 18.8975 24.2362 18.8977 24.2362 18.8977C24.2362 18.8979 24.2362 18.898 23.7414 18.9697Z" fill="#151417"></path><path d="M46.4237 12.7284L48.7828 11.7832M44.8768 11.0016L46.3563 8.09979M42.8275 10.9904L42.0063 8.78242" stroke="#151417" stroke-linecap="round"></path></svg> 