<?xml version="1.0" encoding="UTF-8"?> <svg xmlns="http://www.w3.org/2000/svg" width="140" height="104" viewBox="0 0 140 104" fill="none"><path d="M39.1514 40.1583H32.914C31.3223 40.1583 31.7232 39.3491 31.9885 38.9445C32.7844 37.4608 34.997 33.6842 35.6337 32.0656C36.2704 30.4471 36.7638 31.526 37.1617 32.0655C37.9576 33.6841 40.4365 37.7756 41.0732 39.0705C41.7099 40.3653 39.8146 40.1583 39.1514 40.1583Z" fill="#151417" stroke="#151417" stroke-width="1.5"></path><path d="M104.725 99.5421L104.725 93.3048C104.725 91.713 105.534 92.114 105.939 92.3792C107.423 93.1751 111.199 95.3877 112.818 96.0244C114.436 96.6611 113.357 97.1545 112.818 97.5524C111.199 98.3483 107.108 100.827 105.813 101.464C104.518 102.101 104.725 100.205 104.725 99.5421Z" fill="#151417" stroke="#151417" stroke-width="1.5"></path><path d="M45.0195 54.4447L45.4326 97H57V53.7999C57 50.705 56.6278 49.2864 54.5213 49.2865C52.4556 49.2866 49.1506 48.6418 46.6721 49.2865C44.6975 49.8001 45.0195 53.1552 45.0195 54.4447Z" fill="#600DFF"></path><path d="M45.4326 97L44.6826 97.0073L44.6898 97.75H45.4326V97ZM45.0195 54.4447H44.2694L44.2695 54.452L45.0195 54.4447ZM46.6721 49.2865L46.8609 50.0123L46.6721 49.2865ZM54.5213 49.2865L54.5212 48.5365L54.5213 49.2865ZM57 97V97.75H57.75V97H57ZM46.1826 96.9927L45.7694 54.4374L44.2695 54.452L44.6826 97.0073L46.1826 96.9927ZM45.7695 54.4447C45.7695 53.7249 45.692 52.6779 45.8463 51.6904C46.0063 50.667 46.349 50.1455 46.8609 50.0123L46.4833 48.5606C45.0206 48.9411 44.537 50.3539 44.3643 51.4588C44.186 52.5997 44.2695 53.875 44.2695 54.4447H45.7695ZM46.8609 50.0123C47.9802 49.7212 49.3272 49.7137 50.7082 49.7935C52.0243 49.8696 53.4671 50.0365 54.5213 50.0365L54.5212 48.5365C53.5097 48.5365 52.2671 48.3811 50.7948 48.296C49.3872 48.2147 47.8425 48.2071 46.4833 48.5606L46.8609 50.0123ZM54.5213 50.0365C54.9688 50.0365 55.2512 50.1125 55.437 50.2143C55.6107 50.3094 55.7537 50.4559 55.8746 50.7075C56.1464 51.2729 56.25 52.2323 56.25 53.7999H57.75C57.75 52.2726 57.6675 50.9752 57.2266 50.0577C56.9911 49.5677 56.646 49.1662 56.1575 48.8986C55.6811 48.6377 55.127 48.5365 54.5212 48.5365L54.5213 50.0365ZM56.25 53.7999V97H57.75V53.7999H56.25ZM57 96.25H45.4326V97.75H57V96.25Z" fill="#151417"></path><path d="M63.04 44.3849V97.3425H77C76.8449 80.9003 76.4631 47.9317 76.4631 44.8399C76.4631 41.6135 77 40.0011 74.3154 40.0003C71.6308 39.9995 66.6036 40.0005 65.3666 40.0003C62.5029 39.9997 63.04 43.2887 63.04 44.3849Z" fill="white"></path><path d="M63.04 97.3425H62.29V98.0925H63.04V97.3425ZM65.3666 40.0003L65.3668 39.2503L65.3666 40.0003ZM74.3154 40.0003L74.3156 39.2503L74.3154 40.0003ZM77 97.3425V98.0925H77.7571L77.75 97.3355L77 97.3425ZM63.79 97.3425V44.3849H62.29V97.3425H63.79ZM63.79 44.3849C63.79 44.226 63.7804 44.0334 63.7717 43.8468C63.7626 43.652 63.7534 43.4452 63.7507 43.2282C63.7454 42.7896 63.768 42.3452 63.8598 41.9517C63.9517 41.5578 64.0999 41.2703 64.3038 41.082C64.4935 40.9068 64.8037 40.7502 65.3665 40.7503L65.3668 39.2503C64.4977 39.2501 63.8012 39.5044 63.2861 39.98C62.7853 40.4425 62.5309 41.0456 62.399 41.611C62.2671 42.1766 62.245 42.76 62.2508 43.2464C62.2538 43.4919 62.2642 43.7218 62.2733 43.9167C62.2828 44.1198 62.29 44.2697 62.29 44.3849H63.79ZM65.3665 40.7503C66.6049 40.7505 71.6298 40.7495 74.3152 40.7503L74.3156 39.2503C71.6317 39.2495 66.6024 39.2505 65.3668 39.2503L65.3665 40.7503ZM74.3152 40.7503C74.9303 40.7505 75.2359 40.8466 75.39 40.9415C75.5081 41.0143 75.6015 41.1245 75.6683 41.3921C75.743 41.6913 75.7635 42.1077 75.7551 42.7123C75.7473 43.2725 75.7131 44.0383 75.7131 44.8399H77.2131C77.2131 44.0283 77.2459 43.3826 77.255 42.7331C77.2633 42.1279 77.2503 41.5362 77.1236 41.0288C76.9891 40.4899 76.7133 39.9952 76.1771 39.6646C75.6768 39.3562 75.0427 39.2505 74.3156 39.2503L74.3152 40.7503ZM75.7131 44.8399C75.7131 47.9362 76.095 80.9149 76.25 97.3496L77.75 97.3355C77.5948 80.8857 77.2131 47.9271 77.2131 44.8399H75.7131ZM77 96.5925H63.04V98.0925H77V96.5925Z" fill="#151417"></path><path d="M82 77.3482V96.7572H95.0543C95.0543 91.0064 94.6042 79.0735 94.6042 77.3482C94.6042 75.5888 94.154 75.3765 92.8036 75.1917C89.6525 74.7604 85.6566 75.1917 83.8006 75.1917C82 75.1917 82 76.6294 82 77.3482Z" fill="#DFCFFF"></path><path d="M82 96.7572H81.25V97.5072H82V96.7572ZM83.8006 75.1917L83.8006 74.4417L83.8006 75.1917ZM92.8036 75.1917L92.7019 75.9348L92.8036 75.1917ZM95.0543 96.7572V97.5072H95.8043V96.7572H95.0543ZM82.75 96.7572V77.3482H81.25V96.7572H82.75ZM82.75 77.3482C82.75 76.9611 82.7624 76.6023 82.8956 76.3363C82.9516 76.2246 83.025 76.1403 83.1343 76.0773C83.2486 76.0114 83.4497 75.9417 83.8006 75.9417L83.8006 74.4417C83.2512 74.4417 82.7771 74.5517 82.385 74.7779C81.9878 75.0069 81.7236 75.3269 81.5545 75.6645C81.2376 76.2971 81.25 77.0165 81.25 77.3482H82.75ZM83.8006 75.9417C84.7375 75.9417 86.2727 75.8316 87.8413 75.7795C89.456 75.726 91.1912 75.728 92.7019 75.9348L92.9053 74.4486C91.2649 74.2241 89.4266 74.2261 87.7916 74.2804C86.1105 74.3361 84.7197 74.4417 83.8006 74.4417L83.8006 75.9417ZM92.7019 75.9348C93.4249 76.0337 93.5951 76.1208 93.6666 76.1961C93.7256 76.2582 93.8542 76.4699 93.8542 77.3482H95.3542C95.3542 76.4671 95.2577 75.693 94.754 75.1629C94.2628 74.6459 93.5327 74.5345 92.9053 74.4486L92.7019 75.9348ZM93.8542 77.3482C93.8542 78.2252 93.9674 81.662 94.0796 85.5647C94.1921 89.4843 94.3043 93.8944 94.3043 96.7572H95.8043C95.8043 93.8692 95.6914 89.4375 95.5789 85.5216C95.466 81.5888 95.3542 78.1965 95.3542 77.3482H93.8542ZM95.0543 96.0072H82V97.5072H95.0543V96.0072Z" fill="#DFCFFF"></path><path d="M36.3551 92.7368L35.6051 92.742L35.6055 92.7968L35.6138 92.851L36.3551 92.7368ZM35.6275 33.2043C35.6003 33.3131 35.5874 33.4495 35.5789 33.5543C35.5688 33.6787 35.5597 33.8353 35.5514 34.0191C35.5347 34.3877 35.5202 34.887 35.5075 35.5C35.482 36.7274 35.4634 38.4285 35.4507 40.4898C35.4251 44.6134 35.4226 50.1899 35.4343 56.326C35.4578 68.5988 35.5381 83.1169 35.6051 92.742L37.105 92.7316C37.0381 83.1079 36.9578 68.5925 36.9343 56.3231C36.9226 50.1882 36.9251 44.6165 36.9506 40.4991C36.9634 38.44 36.9819 36.7475 37.0071 35.5312C37.0198 34.9224 37.034 34.4373 37.0499 34.0869C37.0578 33.9112 37.0659 33.7746 37.0739 33.6757C37.0836 33.5572 37.0898 33.5401 37.0826 33.5687L35.6275 33.2043ZM35.6138 92.851C35.7695 93.8613 36.3382 95.3022 37.5435 96.4565C38.7725 97.6335 40.6214 98.4712 43.2338 98.2973L43.1342 96.8006C40.9261 96.9476 39.4944 96.248 38.581 95.3732C37.6439 94.4756 37.2084 93.35 37.0963 92.6226L35.6138 92.851ZM43.2338 98.2973C48.0181 97.9789 89.0806 98.1651 109.059 98.299L109.069 96.799C89.1447 96.6655 47.9909 96.4774 43.1342 96.8006L43.2338 98.2973Z" fill="#151417"></path><path d="M32.4781 26.4623L28.2388 23.0922" stroke="#151417" stroke-width="1.5" stroke-linecap="round"></path><path d="M36.2571 23.7677L36.136 18.0843" stroke="#151417" stroke-width="1.5" stroke-linecap="round"></path><path d="M42.7044 26.1995L46.3639 22.1204" stroke="#151417" stroke-width="1.5" stroke-linecap="round"></path></svg> 