<svg width="181" height="236" viewBox="0 0 181 236" fill="none" xmlns="http://www.w3.org/2000/svg">
<g clip-path="url(#clip0_1504_22383)">
<path d="M15.6301 173.474L91.8508 212.26L165.177 173.474V21.8049H15.6301V173.474Z" fill="white"/>
<path d="M166.721 22.3838L14.0864 176.176L93.2016 215.348L166.721 177.72V22.3838Z" fill="#F2F3F2"/>
<path d="M10.613 72.3614V176.755L13.3145 178.106L89.5352 216.891L91.8508 218.049L94.1663 216.891L167.686 178.106L170.387 176.755V16.7878H10.613V72.3614ZM15.6301 173.86V21.8049H165.37V173.86L91.8508 212.646L15.6301 173.86Z" fill="#DCDEDC"/>
<path d="M90.5 24.3134C91.2718 24.3134 92.0437 24.3134 92.8155 24.5064L90.5 28.9446C87.0266 28.7516 83.9392 31.4531 83.7463 34.9264C83.5533 38.3998 86.2548 41.4872 89.7281 41.6802H90.5C92.0437 41.6802 93.5874 41.1013 94.7452 40.1365L97.2537 44.3817C95.3241 45.7324 93.0085 46.5043 90.5 46.5043C84.3251 46.6972 79.1151 42.0661 78.9222 35.8913C78.7292 29.7164 83.3603 24.5064 89.5352 24.3134H90.5V24.3134ZM98.4115 33.7687L101.306 38.5927L98.4115 43.2239L95.71 38.5927H90.1141L93.0085 33.7687H98.4115ZM93.7804 32.032C93.7804 31.2601 93.9733 30.4883 94.3593 29.9094C94.7452 29.3305 95.517 28.7516 96.0959 28.3657L96.4819 28.1727C97.2537 27.7868 97.4467 27.5938 97.4467 27.2079C97.4467 26.822 96.8678 26.436 96.4819 26.436C95.71 26.436 95.1311 26.822 94.7452 27.5938L93.7804 26.629C93.9733 26.2431 94.3593 25.8571 94.7452 25.4712C95.3241 25.0853 95.903 25.0853 96.4819 25.0853C97.0608 25.0853 97.8326 25.2782 98.2185 25.6642C98.6045 26.0501 98.9904 26.629 98.9904 27.2079C98.9904 28.1727 98.4115 28.9446 97.2537 29.3305L96.6748 29.7164C96.0959 30.1023 95.71 30.2953 95.517 30.8742H98.9904V32.2249L93.7804 32.032V32.032ZM90.5 56.1525L108.832 45.7324V16.7878H71.9755V45.5394L90.5 56.1525Z" fill="#FF492C"/>
<path d="M44.9606 94.7452V77.7643C44.9606 77.5714 45.1535 77.3784 45.3465 77.3784H49.7847C49.9776 77.3784 50.1706 77.5714 50.1706 77.7643V94.7452C50.1706 97.2537 51.9073 99.1833 54.6088 99.1833C57.3103 99.1833 59.0469 97.4466 59.0469 94.7452V77.7643C59.0469 77.5714 59.2399 77.3784 59.4329 77.3784H63.871C64.064 77.3784 64.2569 77.5714 64.2569 77.7643V94.7452C64.2569 100.148 60.3977 103.621 54.6088 103.621C48.8198 103.621 44.9606 99.9552 44.9606 94.7452V94.7452ZM67.5373 98.0255V97.6396C67.5373 97.4466 67.7303 97.2537 67.9233 97.2537H71.9755C72.1685 97.2537 72.3614 97.4466 72.3614 97.6396C72.3614 98.7974 73.7122 99.5692 75.6418 99.5692C77.3785 99.5692 78.5363 98.7974 78.5363 97.8326C78.5363 96.2889 75.6418 96.2889 72.9403 95.3241C70.4318 94.5522 67.7303 93.2014 67.7303 89.9211C67.7303 86.2547 70.8177 83.9392 75.6418 83.9392C80.4659 83.9392 83.5533 86.4477 83.5533 89.9211C83.5533 90.114 83.3604 90.307 83.1674 90.307H79.1152C78.9222 90.307 78.7292 90.114 78.7292 89.9211C78.7292 88.7633 77.5714 87.9914 75.6418 87.9914C74.0981 87.9914 72.9403 88.5703 72.9403 89.7281C72.9403 91.2718 75.4488 91.2718 78.3433 92.2366C81.2378 93.0085 84.1322 94.3592 84.1322 97.8326C84.1322 101.499 80.8518 103.621 76.0277 103.621C70.8177 103.621 67.5373 101.306 67.5373 98.0255V98.0255ZM104.007 94.9381C104.007 95.324 103.815 95.3241 103.429 95.3241H91.8508C91.6578 95.3241 91.6578 95.324 91.6578 95.517C91.6578 96.0959 91.8508 96.4818 92.0437 97.0607C92.6226 98.4115 93.7804 99.1833 95.903 99.1833C97.6397 99.1833 98.7975 98.4115 99.7623 97.2537C99.9552 97.0607 100.148 96.8678 100.341 97.2537L103.043 99.9552C103.236 100.148 103.236 100.341 103.043 100.534C101.306 102.657 98.6045 103.814 95.5171 103.814C91.2719 103.814 88.3774 101.692 87.0267 98.2185C86.4478 96.8678 86.2548 95.517 86.2548 93.5874C86.2548 92.2366 86.4478 90.8859 86.8337 89.7281C87.9915 86.2548 90.8859 83.9392 94.9382 83.9392C99.9552 83.9392 103.043 87.2196 103.622 91.8507C104.007 92.8155 104.007 93.7803 104.007 94.9381V94.9381ZM92.0437 90.5C91.8508 90.8859 91.8508 91.2718 91.8508 91.6577C91.8508 91.8507 91.8508 91.8507 92.0437 91.8507H98.4115C98.6045 91.8507 98.6045 91.8507 98.6045 91.6577C98.6045 91.2718 98.4115 90.8859 98.4115 90.6929C98.0256 89.1492 96.8678 88.3774 95.1311 88.3774C93.5874 88.3774 92.6226 89.1492 92.0437 90.5ZM119.059 84.5181C119.252 84.711 119.252 84.904 119.252 85.097L118.48 89.3422C118.48 89.7281 118.287 89.7281 117.901 89.5351C117.322 89.3422 116.55 89.3422 115.778 89.3422C114.042 89.5351 112.498 90.6929 112.498 92.6226V102.85C112.498 103.043 112.305 103.236 112.112 103.236H107.674C107.481 103.236 107.288 103.043 107.288 102.85V84.711C107.288 84.5181 107.481 84.3251 107.674 84.3251H112.112C112.305 84.3251 112.498 84.5181 112.498 84.711V86.0618C112.498 86.2547 112.691 86.2548 112.691 86.2548C113.656 84.904 115.006 83.9392 116.743 83.9392C117.901 83.9392 118.48 84.1322 119.059 84.5181V84.5181ZM120.602 98.0255V97.6396C120.602 97.4466 120.795 97.2537 120.988 97.2537H125.041C125.234 97.2537 125.426 97.4466 125.426 97.6396C125.426 98.7974 126.777 99.5692 128.707 99.5692C130.444 99.5692 131.601 98.7974 131.601 97.8326C131.601 96.2889 128.707 96.2889 126.005 95.3241C123.497 94.5522 120.795 93.2014 120.795 89.9211C120.795 86.2547 123.883 83.9392 128.707 83.9392C133.531 83.9392 136.618 86.4477 136.618 89.9211C136.618 90.114 136.425 90.307 136.232 90.307H132.18C131.987 90.307 131.794 90.114 131.794 89.9211C131.794 88.7633 130.636 87.9914 128.707 87.9914C127.163 87.9914 126.005 88.5703 126.005 89.7281C126.005 91.2718 128.514 91.2718 131.408 92.2366C134.303 93.0085 137.197 94.3592 137.197 97.8326C137.197 101.499 133.917 103.621 129.093 103.621C123.883 103.621 120.602 101.306 120.602 98.0255V98.0255ZM28.1727 134.11V109.024C28.1727 108.832 28.3657 108.639 28.5587 108.639H32.9968C33.1898 108.639 33.3827 108.832 33.3827 109.024V129.865C33.3827 130.058 33.3827 130.058 33.5757 130.058H45.7324C45.9254 130.058 46.1184 130.25 46.1184 130.443V134.11C46.1184 134.303 45.9254 134.496 45.7324 134.496H28.5587C28.3657 134.496 28.1727 134.303 28.1727 134.11ZM49.2058 128.707C48.8198 127.549 48.6269 126.198 48.6269 124.847C48.6269 123.497 48.8198 121.953 49.2058 120.988C50.3636 117.322 53.451 115.199 57.6962 115.199C61.7484 115.199 64.8358 117.515 65.9936 120.988C66.3796 122.146 66.5725 123.497 66.5725 124.847C66.5725 126.198 66.3796 127.549 65.9936 128.514C64.8358 132.373 61.7484 134.689 57.6962 134.689C53.451 134.882 50.1706 132.566 49.2058 128.707V128.707ZM60.9766 127.549C61.1695 126.777 61.3625 125.812 61.3625 125.04C61.3625 124.076 61.1695 123.111 60.9766 122.339C60.3977 120.602 59.2399 119.637 57.6962 119.637C55.9595 119.637 54.8017 120.602 54.4158 122.339C54.0299 122.918 54.0299 123.883 54.0299 125.04C54.0299 126.005 54.0299 126.97 54.2228 127.549C54.8017 129.286 55.9595 130.25 57.6962 130.25C59.2399 130.443 60.3977 129.286 60.9766 127.549V127.549ZM73.7122 134.11L67.7303 115.778C67.5373 115.392 67.7303 115.199 68.1162 115.199H72.9403C73.1333 115.199 73.3262 115.392 73.5192 115.585L76.6066 126.777C76.6066 126.97 76.7996 126.97 76.7996 126.777L79.887 115.585C79.887 115.392 80.08 115.199 80.4659 115.199H85.29C85.6759 115.199 85.8689 115.392 85.6759 115.778L79.694 133.917C79.694 134.11 79.5011 134.303 79.1152 134.303H74.2911C73.9051 134.496 73.7122 134.496 73.7122 134.11V134.11ZM104.2 126.198C104.2 126.584 104.007 126.584 103.622 126.584H92.0437C91.8508 126.584 91.8508 126.584 91.8508 126.777C91.8508 127.356 92.0437 127.742 92.2367 128.321C92.8156 129.672 93.9734 130.443 96.096 130.443C97.8326 130.443 98.9904 129.672 99.9552 128.514C100.148 128.321 100.341 128.128 100.534 128.514L103.236 131.215C103.429 131.408 103.429 131.601 103.236 131.794C101.499 133.917 98.7975 135.075 95.71 135.075C91.4648 135.075 88.5704 132.952 87.2196 129.479C86.6407 128.128 86.4478 126.777 86.4478 124.847C86.4478 123.497 86.6407 122.146 87.0267 120.988C88.1844 117.515 91.0789 115.199 95.1311 115.199C100.148 115.199 103.236 118.48 103.815 123.111C104.2 124.076 104.2 125.04 104.2 126.198V126.198ZM92.2367 121.76C92.0437 122.146 92.0437 122.532 92.0437 122.918C92.0437 123.111 92.0437 123.111 92.2367 123.111H98.6045C98.7975 123.111 98.7975 123.111 98.7975 122.918C98.7975 122.532 98.6045 122.146 98.6045 121.953C98.2186 120.409 97.0608 119.637 95.3241 119.637C93.5874 119.637 92.6226 120.409 92.2367 121.76V121.76ZM115.006 126.005V109.024C115.006 108.832 115.199 108.639 115.392 108.639H119.831C120.023 108.639 120.216 108.832 120.216 109.024V126.005C120.216 128.514 121.953 130.443 124.655 130.443C127.356 130.443 129.093 128.707 129.093 126.005V109.024C129.093 108.832 129.286 108.639 129.479 108.639H133.917C134.11 108.639 134.303 108.832 134.303 109.024V126.005C134.303 131.408 130.444 134.882 124.655 134.882C118.866 134.882 115.006 131.215 115.006 126.005ZM137.583 129.286V128.9C137.583 128.707 137.776 128.514 137.969 128.514H142.021C142.214 128.514 142.407 128.707 142.407 128.9C142.407 130.058 143.758 130.829 145.688 130.829C147.424 130.829 148.582 130.058 148.582 129.093C148.582 127.549 145.688 127.549 142.986 126.584C140.478 125.812 137.776 124.462 137.776 121.181C137.776 117.515 140.864 115.199 145.688 115.199C150.512 115.199 153.599 117.708 153.599 121.181C153.599 121.374 153.406 121.567 153.213 121.567H149.161C148.968 121.567 148.775 121.374 148.775 121.181C148.775 120.023 147.617 119.252 145.688 119.252C144.144 119.252 142.986 119.83 142.986 120.988C142.986 122.532 145.495 122.532 148.389 123.497C151.284 124.269 154.178 125.619 154.178 129.093C154.178 132.759 150.898 134.882 146.074 134.882C140.864 134.882 137.583 132.566 137.583 129.286V129.286Z" fill="#252530"/>
<path d="M37.2421 156.687H75.8348V158.23H37.2421V156.687ZM106.323 156.687H144.916V158.23H106.323V156.687Z" fill="#DCDEDC"/>
<path d="M81.8167 154.95L87.7985 153.985L90.8859 148.003L93.7804 153.792L100.148 154.95L95.71 159.388L96.6748 165.756L90.8859 163.054L85.097 165.756L85.8689 159.388L81.8167 154.95Z" fill="#DCDEDC"/>
</g>
<defs>
<clipPath id="clip0_1504_22383">
<rect width="181" height="235.03" fill="white"/>
</clipPath>
</defs>
</svg>
