<svg width="24" height="24" fill="none" xmlns="http://www.w3.org/2000/svg"><path d="M8.899 1.278L6.6 10.47a1.067 1.067 0 01-2.07 0L2.231 1.278m19.537 13.11c-.343-.97-1.411-1.666-2.5-1.666-1.329 0-2.5 1.077-2.5 2.405 0 1.035.704 1.937 1.708 2.188l1.413.354a2.481 2.481 0 011.88 2.406v.147a2.5 2.5 0 01-2.5 2.5c-1.09 0-2.158-.696-2.5-1.667m-9.089.615l6.014-7.642a.71.71 0 00-.374-1.124l-2.705-.724a.708.708 0 01-.374-1.125L17 2.59" stroke="#FFDE06" stroke-width="1.5" stroke-linecap="round" stroke-linejoin="round"/></svg>