<svg width="25" height="25" fill="none" xmlns="http://www.w3.org/2000/svg"><g clip-path="url(#clip0_6604_241028)"><path fill="#fff" d="M0 0h25v25H0z"/><path d="M.781 10.22a9.44 9.44 0 1018.879.001 9.44 9.44 0 00-18.879 0zm16.116 6.676l7.322 7.323" stroke="#600DFF" stroke-width="1.5" stroke-linecap="round" stroke-linejoin="round"/><path d="M9.925 4.045a.51.51 0 01.649.723 3.278 3.278 0 00.611 4.13c.44-.434.765-.971.945-1.563a.508.508 0 01.768-.268 5.312 5.312 0 012.292 4.382 5.096 5.096 0 01-10.19 0 8.289 8.289 0 014.925-7.404z" stroke="#600DFF" stroke-width="1.5" stroke-linecap="round" stroke-linejoin="round"/></g><defs><clipPath id="clip0_6604_241028"><path fill="#fff" d="M0 0h25v25H0z"/></clipPath></defs></svg>