<?xml version="1.0" encoding="UTF-8"?> <svg xmlns="http://www.w3.org/2000/svg" width="141" height="78" viewBox="0 0 141 78" fill="none"><rect x="0.34668" y="0.240234" width="140" height="77" rx="2" fill="#7AFFD2"></rect><path d="M61.0865 14.0537C61.7036 14.1451 78.0303 16.9551 86.1166 18.3487C87.0094 18.5026 87.1489 18.9792 87.107 19.1983L86.7683 21.1051L88.0515 21.5549C88.4156 21.6278 89.2693 22.838 89.267 23.0906C89.2656 23.2528 83.7384 58.7039 83.6128 60.0222C83.5129 61.0706 82.962 61.1578 82.2226 61.0502C81.8398 60.9945 58.4707 57.0896 57.5066 56.9388C56.7354 56.818 56.4698 56.7894 56.0141 56.25C55.409 55.5338 53.9771 53.5432 53.9814 53.0501C53.9869 52.4338 60.0421 15.718 60.144 15.1038C60.246 14.4896 60.3153 13.9396 61.0865 14.0537Z" fill="white" stroke="#151417" stroke-width="0.6" stroke-linecap="round"></path><path d="M80.2153 57.1642L55.3811 52.9999C54.8466 52.8983 54.9563 53.25 55.3737 53.8422C55.7433 54.3668 56.4219 55.3611 56.6585 55.6304C56.8995 55.905 56.7872 55.8511 57.5184 55.9674C64.9746 57.1537 80.1408 59.5674 81.1559 59.7327C82.4248 59.9392 82.3185 59.5876 82.4044 59.1878C82.4756 58.8561 88.1611 22.9116 88.347 21.9324C88.397 21.6695 88.4553 21.5301 88.347 21.2763C88.209 20.9528 87.3242 19.8982 86.9942 19.8402C86.9628 19.8346 86.804 20.8332 86.7365 21.2763C84.9374 33.095 81.2618 56.3629 81.1868 56.8142C81.1119 57.2654 80.8026 57.2874 80.2153 57.1642Z" fill="white" stroke="#151417" stroke-width="0.6" stroke-linecap="round"></path><path d="M71.8141 62.3598C71.806 62.0519 72.3918 58.8575 72.6857 57.2988L75.8674 57.7615C75.5994 59.5338 74.9233 63.0212 74.8787 63.0029C74.7437 62.9478 74.0719 62.1938 73.6688 61.7269C73.6061 61.6543 73.5025 61.6344 73.4193 61.6788C72.7962 62.0111 71.8177 62.495 71.8141 62.3598Z" fill="#151417" stroke="#151417" stroke-width="0.2" stroke-linecap="round"></path><path d="M72.1128 57.0566C73.3764 57.2866 76.0865 57.7792 76.8181 57.9101" stroke="#151417" stroke-width="0.6" stroke-linecap="round"></path><path d="M80.2392 40.4577C77.59 45.6179 71.1955 47.6829 65.9567 45.07C60.7179 42.4571 58.6186 36.1557 61.2677 30.9955C63.9169 25.8353 69.9718 24.3769 75.1055 26.3247C80.2392 28.2725 82.8883 35.2975 80.2392 40.4577Z" fill="white"></path><path d="M79.9723 40.3207C77.3993 45.3324 71.1847 47.3423 66.0906 44.8015L65.8228 45.3385C71.2064 48.0236 77.7807 45.9034 80.506 40.5947L79.9723 40.3207ZM66.0906 44.8015C60.9989 42.262 58.9629 36.1418 61.5346 31.1325L61.0008 30.8585C58.2742 36.1697 60.4369 42.6522 65.8228 45.3385L66.0906 44.8015ZM61.5346 31.1325C64.098 26.1394 69.9728 24.6981 74.9991 26.6052L75.2119 26.0442C69.9708 24.0556 63.7358 25.5312 61.0008 30.8585L61.5346 31.1325ZM74.9991 26.6052C77.4696 27.5426 79.3604 29.7105 80.3093 32.2901C81.2579 34.8688 81.2528 37.8264 79.9723 40.3207L80.506 40.5947C81.8747 37.9288 81.8696 34.7938 80.8724 32.083C79.8756 29.3731 77.8751 27.0547 75.2119 26.0442L74.9991 26.6052Z" fill="#151417"></path><path d="M71.1985 44.0075C66.616 44.2772 62.6825 40.7786 62.4126 36.1931C62.1427 31.6076 65.3348 27.6342 70.6694 27.6318C76.004 27.6294 78.5208 31.2055 79.007 35.2164C79.4932 39.2273 75.7809 43.7378 71.1985 44.0075Z" fill="#600DFF"></path><path d="M74.378 39.5303C72.3112 41.5555 68.993 41.5206 66.9665 39.4525C64.94 37.3843 64.9726 34.066 67.0394 32.0409C69.1061 30.0158 72.5594 30.4133 74.4509 32.1188C76.3424 33.8242 76.4448 37.5052 74.378 39.5303Z" fill="white"></path><path d="M72.925 36.8671C72.2854 38.1311 70.7416 38.6369 69.4768 37.9969C68.212 37.3569 67.7052 35.8134 68.3448 34.5495C68.9844 33.2855 70.6478 32.9266 71.793 33.4197C72.9381 33.9128 73.5646 35.6032 72.925 36.8671Z" fill="#151417"></path><path d="M51.6206 19.3848L53.9114 22.0895" stroke="#151417" stroke-width="0.6" stroke-linecap="round"></path><path d="M48.894 20.9004L51.6209 22.515" stroke="#151417" stroke-width="0.6" stroke-linecap="round"></path><path d="M57.2854 28.276C56.8355 28.321 56.3106 27.9947 56.1044 27.826L54.661 26.6448L53.2175 25.4635C52.8052 25.1261 53.9487 25.2012 54.1362 25.1824C54.9549 25.1638 56.1046 25.1751 56.4046 25.1452C56.5921 25.1264 56.5546 24.7515 56.5172 24.3765L56.2737 21.9394C56.2138 21.3394 56.666 21.8426 56.941 22.0676C57.6283 22.6301 59.2621 23.8438 59.5921 24.1138C59.922 24.3838 59.9604 24.7268 59.9854 24.9768L60.0975 27.9951L57.2854 28.276Z" fill="#151417" stroke="#151417" stroke-width="0.6"></path><path d="M56.9483 25.5143L71.0526 36.6189" stroke="#151417" stroke-width="0.6" stroke-linecap="round"></path><path d="M60.0618 27.9934L56.3943 24.9013" stroke="white" stroke-width="0.6" stroke-linecap="round"></path><ellipse opacity="0.05" cx="70.3035" cy="66.9317" rx="13.5872" ry="1.2989" fill="#151417"></ellipse><path d="M92.946 45.3849C92.9874 45.2248 93.193 45.1798 93.2956 45.3084L94.0897 46.3037C94.1167 46.3375 94.1539 46.3615 94.1958 46.3722L95.4298 46.686C95.5893 46.7265 95.6329 46.9325 95.5041 47.0361L94.5067 47.8381C94.4728 47.8653 94.4487 47.9028 94.4378 47.9449L94.1176 49.184C94.0763 49.3441 93.8706 49.3891 93.768 49.2605L92.9739 48.2652C92.9469 48.2314 92.9097 48.2074 92.8678 48.1967L91.6338 47.8829C91.4744 47.8424 91.4307 47.6364 91.5595 47.5328L92.5569 46.7308C92.5908 46.7036 92.615 46.6661 92.6258 46.624L92.946 45.3849Z" fill="white"></path><path d="M47.4255 34.672C47.4668 34.5119 47.6725 34.4669 47.7751 34.5955L48.781 35.8564C48.808 35.8902 48.8452 35.9142 48.8871 35.9249L50.4504 36.3224C50.6098 36.3629 50.6535 36.5688 50.5247 36.6724L49.2612 37.6884C49.2273 37.7157 49.2031 37.7531 49.1923 37.7952L48.7867 39.365C48.7453 39.525 48.5397 39.57 48.4371 39.4415L47.4311 38.1806C47.4042 38.1468 47.3669 38.1227 47.325 38.1121L45.7617 37.7146C45.6023 37.674 45.5587 37.4681 45.6875 37.3645L46.951 36.3485C46.9848 36.3213 47.009 36.2838 47.0199 36.2417L47.4255 34.672Z" fill="white"></path><path d="M100.658 36.5524C100.823 36.5393 100.933 36.7191 100.845 36.858L99.4318 39.0846C99.4086 39.1211 99.398 39.1641 99.4016 39.2072L99.6201 41.8353C99.6337 41.9992 99.4533 42.1076 99.3133 42.0195L97.0698 40.608C97.033 40.5849 96.9897 40.5742 96.9464 40.5776L94.3041 40.7871C94.1392 40.8002 94.0297 40.6204 94.1178 40.4815L95.5307 38.2549C95.5539 38.2184 95.5645 38.1754 95.5609 38.1323L95.3424 35.5042C95.3287 35.3403 95.5092 35.2319 95.6491 35.32L97.8927 36.7315C97.9294 36.7546 97.9727 36.7653 98.0161 36.7619L100.658 36.5524Z" fill="white"></path></svg> 