<svg width="150" height="50" viewBox="0 0 150 50" fill="none" xmlns="http://www.w3.org/2000/svg">
<g clip-path="url(#clip0_6145_11273)">
<path fill-rule="evenodd" clip-rule="evenodd" d="M28.2661 21.4226L32.1327 31.7221L36.1842 21.4226H41.9354L32.1008 45.2733H26.4125L29.3214 37.8828L22.3301 21.4226H28.2661ZM89.0116 21.0574C94.2046 21.0574 97.9916 24.9506 97.9916 30.2794C97.9916 35.6081 94.2046 39.5023 89.0116 39.5023C87.0951 39.5023 85.4817 39.012 84.25 38.0668L84.1703 38.0043L84.1018 37.9499V45.2678H78.5598V21.4226H83.4602V23.2052L83.4883 23.1744C84.6956 21.844 86.522 21.1081 88.779 21.0601L88.8981 21.0583L89.0116 21.0574ZM52.0298 21.0574C57.7482 21.0574 61.8015 24.8745 61.8015 30.2794C61.8015 35.6616 57.735 39.5023 52.0298 39.5023C46.2926 39.5023 42.2196 35.667 42.2196 30.2794C42.2196 24.8691 46.2786 21.0574 52.0298 21.0574ZM71.0347 17.4985V21.4226H75.5937V26.0472H71.0347V32.4308C71.0347 33.8591 71.7523 34.6448 73.06 34.6928L73.1238 34.6937L73.1885 34.6946C74.075 34.6946 74.7466 34.4699 75.3479 33.9116L75.4042 33.8582L75.5533 33.7104H75.5946V38.8117L75.4248 38.8906C74.5121 39.312 73.9502 39.5023 72.3949 39.5023C68.0011 39.5023 65.5884 37.1913 65.4946 32.8758L65.4927 32.7444V32.613L65.4918 26.0472H63.4862V21.4226H65.6428V17.4985H71.0347ZM110.102 21.0574C115.82 21.0574 119.874 24.8745 119.874 30.2794C119.874 35.6616 115.807 39.5023 110.102 39.5023C104.365 39.5023 100.292 35.667 100.292 30.2794C100.292 24.8691 104.352 21.0574 110.102 21.0574ZM124.391 33.6343C126.068 33.6343 127.428 34.9484 127.428 36.5678C127.428 38.1882 126.067 39.5023 124.391 39.5023C122.714 39.5023 121.355 38.1882 121.355 36.5678C121.355 34.9475 122.715 33.6343 124.391 33.6343ZM88.1814 25.865C85.6843 25.865 83.9883 27.6503 83.9883 30.2794C83.9883 32.9093 85.6843 34.6946 88.1814 34.6946C90.7104 34.6946 92.412 32.9148 92.412 30.2794C92.412 27.6449 90.7104 25.865 88.1814 25.865ZM52.0288 25.865C49.5242 25.865 47.7992 27.6594 47.7992 30.2794C47.7992 32.9003 49.5242 34.6946 52.0298 34.6946C54.5025 34.6946 56.2229 32.8948 56.2229 30.2794C56.2229 27.6648 54.5015 25.865 52.0288 25.865ZM110.102 25.865C107.597 25.865 105.871 27.6594 105.871 30.2794C105.871 32.9003 107.597 34.6946 110.102 34.6946C112.575 34.6946 114.295 32.8948 114.295 30.2794C114.295 27.6648 112.575 25.865 110.102 25.865Z" fill="#0042E4"/>
</g>
<defs>
<clipPath id="clip0_6145_11273">
<rect width="106" height="29" fill="white" transform="translate(22 17)"/>
</clipPath>
</defs>
</svg>
