<svg width="150" height="50" viewBox="0 0 150 50" fill="none" xmlns="http://www.w3.org/2000/svg">
<path d="M97.1116 35.5925C98.8926 35.6343 100.609 34.9863 101.897 33.7739L104.257 36.2613C102.69 37.829 100.523 38.9996 97.1545 38.9996C91.3611 38.9996 87.6275 35.258 87.6275 30.1996C87.6275 25.1829 91.5542 21.3995 96.6181 21.3995C102.369 21.3995 105.609 25.6637 105.33 31.5582H91.7688C92.2408 34.0248 94.0218 35.5925 97.1116 35.5925ZM101.231 28.7573C100.867 26.4789 99.4719 24.7858 96.661 24.7858C94.0432 24.7858 92.2408 26.2281 91.7688 28.7573H101.231ZM8 35.4043L18.4496 25.0575H8.23603V21.8176H23.2775V25.1411L12.8493 35.467H23.4277V38.707H8V35.4043ZM35.1433 35.5925C36.9243 35.6343 38.6408 34.9863 39.9283 33.7739L42.2886 36.2613C40.7222 37.829 38.555 38.9996 35.1862 38.9996C29.4143 38.9996 25.6592 35.258 25.6592 30.1996C25.6592 25.1829 29.5859 21.3995 34.6498 21.3995C40.4003 21.3995 43.6404 25.6637 43.3614 31.5582H29.8005C30.294 34.0248 32.0535 35.5925 35.1433 35.5925ZM39.2846 28.7573C38.9198 26.4789 37.5251 24.7858 34.7142 24.7858C32.0964 24.7858 30.294 26.2281 29.8219 28.7573H39.2846ZM65.9343 30.2205C65.9343 24.8067 70.0756 21.4413 74.646 21.4413C76.9419 21.4413 79.1305 22.4238 80.4179 23.9706V14H84.1086V38.6651H80.4179V36.324C79.0876 37.9754 76.899 38.9996 74.603 38.9996C70.1829 38.9996 65.9343 35.5925 65.9343 30.2205ZM80.6325 30.1787C80.6325 27.1687 78.2937 24.7022 75.1395 24.7022C72.0496 24.7022 69.6464 27.106 69.6464 30.1787C69.6464 33.2514 72.0496 35.6761 75.1395 35.6761C78.2937 35.697 80.6325 33.2305 80.6325 30.1787ZM107.733 35.0699L111.08 33.3768C111.981 34.9445 113.698 35.8851 115.543 35.8433C117.625 35.8433 118.719 34.7982 118.719 33.6067C118.719 32.248 116.702 31.9554 114.513 31.5164C111.552 30.9103 108.484 29.9696 108.484 26.4789C108.484 23.8034 111.102 21.3368 115.2 21.3786C118.44 21.3786 120.843 22.6328 122.195 24.6604L119.084 26.3326C118.29 25.1411 116.917 24.4095 115.179 24.4095C113.183 24.4095 112.175 25.3501 112.175 26.4371C112.175 27.6494 113.784 27.9839 116.294 28.5274C119.148 29.1335 122.388 30.0532 122.388 33.5649C122.388 35.906 120.307 39.0414 115.35 38.9996C111.745 38.9996 109.192 37.5782 107.733 35.0699ZM132.409 31.1611L129.49 34.2756V38.6651H125.8V14H129.49V30.1369L137.322 21.7758H141.807L135.026 29.0081L142 38.6651H137.816L132.409 31.1611ZM54.7766 21.4204C50.3779 21.4204 46.7087 24.2005 46.7087 28.7782V38.6651H50.4852V29.2589C50.4852 26.4789 52.1159 24.8276 54.9054 24.8276C57.6948 24.8276 59.0895 26.4789 59.0895 29.2589V38.6651H62.8445V28.7991C62.8445 24.2005 59.1753 21.4204 54.7766 21.4204Z" fill="#03363D"/>
</svg>
